<svg width="512" height="512" viewBox="0 0 512 512" fill="none" xmlns="http://www.w3.org/2000/svg">
<g clip-path="url(#clip0_16_1190)">
<mask id="mask0_16_1190" style="mask-type:luminance" maskUnits="userSpaceOnUse" x="0" y="0" width="512" height="512">
<path d="M512 0H0V512H512V0Z" fill="white"/>
</mask>
<g mask="url(#mask0_16_1190)">
<path d="M73.9999 1.1002C72.6999 1.7002 70.6999 2.9002 69.5999 3.8002C66.6999 6.4002 2.49989 103.1 1.19989 106.9C-0.500106 111.6 -0.500106 418.6 1.09989 424.5C3.89989 434.4 13.7999 444.2 23.9999 446.9C27.3999 447.8 55.0999 448 137.2 447.8C245.2 447.5 245.9 447.5 248.6 445.4C253.9 441.5 255.5 438.3 255.5 432C255.5 425.7 253.9 422.5 248.6 418.6C245.9 416.5 245.2 416.5 138.9 416.2L31.9999 416V272V128H95.9999H159.9L160.2 170.9C160.5 212.5 160.6 213.9 162.6 216.6C165.7 220.8 169.3 223.1 173.7 223.7C177 224.1 182.1 222.8 200.9 216.5L224 208.8L247.1 216.5C265.9 222.8 271 224.1 274.3 223.7C278.7 223.1 282.3 220.8 285.4 216.6C287.4 213.9 287.5 212.5 287.8 170.9L288.1 128H352H416L416.2 186.9C416.5 244.7 416.5 245.9 418.6 248.6C422.5 253.9 425.7 255.5 432 255.5C438.3 255.5 441.5 253.9 445.4 248.6C447.5 245.9 447.5 244.7 447.8 178.7C448 130.6 447.8 110.4 446.9 107.5C445.5 102.4 380.5 5.3002 376.7 2.5002C373.9 0.5002 373.1 0.5002 225.2 0.3002C128.5 0.2002 75.5999 0.5002 73.9999 1.1002ZM172.5 35.2002C172.2 37.0002 169.8 51.3002 167.2 67.0002L162.4 95.5002L104.2 95.8002L45.9999 96.0002L67.1999 64.0002L88.4999 32.1002L130.8 32.0002H173.1L172.5 35.2002ZM247.2 61.0002C249.8 76.7002 252.2 91.0002 252.5 92.7002L253.1 96.0002H224H194.8L195.4 93.2002C195.7 91.7002 198 77.9002 200.6 62.5002C203.1 47.1002 205.3 33.9002 205.5 33.2002C205.9 32.2002 210.1 32.0002 224.2 32.2002L242.4 32.5002L247.2 61.0002ZM380.8 64.0002L402 96.0002L343.8 95.8002L285.6 95.5002L280.8 67.0002C278.2 51.3002 275.8 37.0002 275.5 35.2002L274.9 32.0002H317.2L359.5 32.1002L380.8 64.0002ZM256 156.9V185.9L241.3 180.9C233.2 178.2 225.4 176 224 176C222.6 176 214.8 178.2 206.7 180.9L192 185.9V156.9V128H224H256V156.9Z" fill="#EC8951"/>
<path d="M381 289.6C356.1 294.1 331.6 307.9 315.8 326.3C278.7 369.4 278.7 430.6 315.8 473.7C336.1 497.3 368.4 512 400 512C461.4 512 512 461.4 512 400C512 345.7 472.4 298.9 418.5 289.6C407.7 287.7 391.3 287.7 381 289.6ZM420.8 323C448.9 330.9 469.8 352.3 477.6 381C480.3 390.9 480.1 410.1 477.2 420.3C469 448.9 447.9 469.7 419 477.6C410 480.1 390 480.1 381 477.6C366.8 473.8 355.3 467.3 345.2 457.6C334 446.9 327.1 435.4 322.8 420.3C319.9 410.1 319.7 390.9 322.4 381C326.2 366.8 332.7 355.3 342.4 345.2C355 332.1 369.5 324.3 387.8 321C395.3 319.6 412.6 320.7 420.8 323Z" fill="#EC8951"/>
<path d="M393.5 353.4C389.8 355.1 386.5 358.6 385.1 362.3C383.4 366.7 383.7 402.3 385.4 406.3C386.2 408.1 395.3 417.901 405.6 428.201C425.9 448.301 427.3 449.1 435.7 447.5C440.6 446.6 446.6 440.601 447.5 435.701C449.1 427.501 448 425.7 431.5 409L416.1 393.5L415.8 377.8C415.5 360.8 415 359.401 408.8 354.701C405.4 352.201 397.5 351.5 393.5 353.4Z" fill="#EC8951"/>
</g>
</g>
<defs>
<clipPath id="clip0_16_1190">
<rect width="512" height="512" fill="white"/>
</clipPath>
</defs>
</svg>
