<svg width="512" height="512" viewBox="0 0 512 512" fill="none" xmlns="http://www.w3.org/2000/svg">
<path d="M253.8 0.999683C226.6 5.59968 204.2 25.5997 194.8 53.4997L192.5 60.4997L192.2 179.7L191.9 299H171.2C147.1 299 140.4 300.1 128.5 305.9C104.9 317.3 89.5999 337.9 86.0999 363.3C85.4999 367.8 84.9999 387 84.9999 407.9C84.9999 448.4 84.6999 451.2 78.6999 462.3C74.9999 469.3 65.4999 479.4 58.9999 483.2C52.9999 486.7 42.9999 489.7 35.0999 490.4C27.4999 491.1 24.3999 492.9 22.3999 497.7C20.3999 502.4 21.9999 507.4 26.3999 510.1C29.3999 512 32.2999 512 144.5 511.8L259.5 511.5L266.5 509.2C291.6 500.7 308.8 483.5 317.1 458.5C319.3 451.9 319.4 449.7 319.8 417.7L320.2 384H358.6C400.3 384 401.1 383.9 404 378.6C405.1 376.4 405.3 352.4 405.4 230.8L405.5 85.4997L445.1 84.9997C488.5 84.4997 487 84.6997 489.7 78.2997C491.5 73.8997 491.4 51.5997 489.5 42.4997C487.4 32.2997 482.7 23.8997 474.8 15.8997C467.4 8.39968 457.8 3.09968 448.2 1.09968C442 -0.200317 261.4 -0.300317 253.8 0.999683ZM394 21.4997C394 21.6997 392.4 24.7997 390.5 28.1997C383.7 40.5997 384 33.4997 384 178.2V309L377.8 305.6C364.5 298.4 367.8 298.6 286.5 298.5H213.5V182.5V66.4997L215.7 59.4997C222 39.3997 239.8 24.4997 260 21.9997C266.9 21.1997 394 20.6997 394 21.4997ZM451.1 24.7997C457 27.6997 462.5 33.1997 465.8 39.4997C467.9 43.5997 468.5 46.1997 468.8 54.1997L469.2 63.9997H437H404.7L405.4 55.6997C405.7 51.1997 406.5 45.7997 407 43.7997C409.3 35.4997 419.1 25.5997 427.4 22.9997C433 21.2997 446 22.2997 451.1 24.7997ZM305.6 326.2C299.1 338.1 299.1 338.2 298.7 395C298.4 444.6 298.3 446.7 296.2 453C290.9 469.2 277.3 482.8 261.1 488.2C254.5 490.4 254.4 490.5 169.8 490.8C123.1 491 84.9999 490.8 84.9999 490.5C84.9999 490.1 86.9999 487.5 89.4999 484.7C95.0999 478.2 101.2 466.8 104.1 457C106.2 449.9 106.3 447 106.9 405.5C107.6 362.4 107.6 361.4 109.9 355.5C116.7 338.3 131.5 325.2 148.4 321.5C153.2 320.5 171.6 320.1 231.7 320.1L309 320L305.6 326.2ZM365.4 323.4C377 328.7 383 338.7 383.8 353.7L384.3 363H352H319.7L320.2 353.7C320.6 346.5 321.3 343.1 323.2 338.9C330.7 322.8 349.4 315.9 365.4 323.4Z" fill="#EC8951"/>
<path d="M240 65.6996C236.1 68.3996 235.1 70.1996 235 74.6996C235 77.9996 235.6 79.4996 238.1 81.8996L241.2 84.9996H298.4C354.4 84.9996 355.8 84.9996 358.3 82.9996C362.1 79.9996 363.5 74.9996 361.6 70.6996C358.8 63.7996 360.4 63.9996 298.3 63.9996C247.3 63.9996 242.2 64.0996 240 65.6996Z" fill="#EC8951"/>
<path d="M240 129.7C236.1 132.4 235.1 134.2 235 138.7C235 142 235.6 143.5 238.1 145.9L241.2 149H298.4C354.4 149 355.8 149 358.3 147C362.1 144 363.5 139 361.6 134.7C358.8 127.8 360.4 128 298.3 128C247.3 128 242.2 128.1 240 129.7Z" fill="#EC8951"/>
<path d="M240 193.7C236.1 196.4 235.1 198.2 235 202.7C235 206 235.6 207.5 238.1 209.9L241.2 213H298.4C354.4 213 355.8 213 358.3 211C362.1 208 363.5 203 361.6 198.7C358.8 191.8 360.4 192 298.3 192C247.3 192 242.2 192.1 240 193.7Z" fill="#EC8951"/>
<path d="M240 257.7C236.1 260.4 235.1 262.2 235 266.7C235 270 235.6 271.5 238.1 273.9L241.2 277H298.4C354.4 277 355.8 277 358.3 275C362.1 272 363.5 267 361.6 262.7C358.8 255.8 360.4 256 298.3 256C247.3 256 242.2 256.1 240 257.7Z" fill="#EC8951"/>
<path d="M131.7 365.6C130.2 367 128.8 369.1 128.4 370.2C127.4 373.5 128.9 378.5 131.6 381.1L134.2 383.5L200.8 383.8C237.5 383.9 268.4 383.8 269.6 383.6C270.7 383.3 272.9 381.8 274.3 380.4C278.3 376.5 278.1 370.2 273.9 366.1L270.8 363H202.6H134.3L131.7 365.6Z" fill="#EC8951"/>
<path d="M131.7 429.6C130.2 431 128.8 433.1 128.4 434.2C127.4 437.5 128.9 442.5 131.6 445.1L134.2 447.5L200.8 447.8C237.5 447.9 268.4 447.8 269.6 447.6C270.7 447.3 272.9 445.8 274.3 444.4C278.3 440.5 278.1 434.2 273.9 430.1L270.8 427H202.6H134.3L131.7 429.6Z" fill="#EC8951"/>
</svg>
