<svg version="1.2" xmlns="http://www.w3.org/2000/svg" viewBox="0 0 428 370" width="428" height="370">
	<title>empty-items-svg</title>
	<style>
		.s0 { fill: #263238 } 
		.s1 { fill: #ec8951 } 
		.s2 { opacity: .3;fill: #000000 } 
		.s3 { fill: #f5f5f5 } 
		.s4 { fill: #455a64 } 
		.s5 { fill: #ffffff } 
		.s6 { opacity: .6;fill: #ffffff } 
		.s7 { fill: #ffbe9d } 
		.s8 { fill: #eb996e } 
		.s9 { fill: #fafafa } 
		.s10 { fill: #000000 } 
		.s11 { opacity: .4;fill: #000000 } 
		.s12 { fill: #e0e0e0 } 
	</style>
	<g id="freepik--Floor--inject-7">
		<path id="Layer" class="s0" d="m428.4 369.3c0 0.1-102.3 0.3-228.4 0.3-126.1 0-228.4-0.2-228.4-0.3 0-0.1 102.3-0.3 228.4-0.3 126.2 0 228.4 0.2 228.4 0.3z"/>
	</g>
	<g id="freepik--Box--inject-7">
		<path id="Layer" class="s1" d="m391.5 318.8l-1.3 24.8q0 0.3-0.2 0.6-0.1 0.2-0.3 0.5-0.3 0.2-0.6 0.3-0.3 0.1-0.6 0.1l-44.5 0.4q-0.4 0-0.7-0.2-0.3-0.1-0.5-0.3-0.3-0.3-0.4-0.6-0.1-0.3-0.1-0.6l-0.2-19.3q0-0.3 0.2-0.6 0.1-0.3 0.3-0.6 0.3-0.2 0.6-0.3 0.3-0.2 0.6-0.2h27.4q0.2 0 0.3 0 0.2 0 0.3-0.1 0.2-0.1 0.3-0.1 0.2-0.1 0.3-0.3l4.7-4.7q0.1-0.1 0.3-0.2 0.1-0.1 0.3-0.1 0.1-0.1 0.3-0.1 0.1-0.1 0.3-0.1l11.5-0.1q0.4 0 0.7 0.2 0.3 0.1 0.6 0.4 0.2 0.2 0.3 0.5 0.1 0.3 0.1 0.7z"/>
		<path id="Layer" class="s2" d="m391.5 318.8l-1.3 24.8q0 0.3-0.2 0.6-0.1 0.2-0.3 0.5-0.3 0.2-0.6 0.3-0.3 0.1-0.6 0.1l-44.5 0.4q-0.4 0-0.7-0.2-0.3-0.1-0.5-0.3-0.3-0.3-0.4-0.6-0.1-0.3-0.1-0.6l-0.2-19.3q0-0.3 0.2-0.6 0.1-0.3 0.3-0.6 0.3-0.2 0.6-0.3 0.3-0.2 0.6-0.2h27.4q0.2 0 0.3 0 0.2 0 0.3-0.1 0.2-0.1 0.3-0.1 0.2-0.1 0.3-0.3l4.7-4.7q0.1-0.1 0.3-0.2 0.1-0.1 0.3-0.1 0.1-0.1 0.3-0.1 0.1-0.1 0.3-0.1l11.5-0.1q0.4 0 0.7 0.2 0.3 0.1 0.6 0.4 0.2 0.2 0.3 0.5 0.1 0.3 0.1 0.7z"/>
		<path id="Layer" class="s3" d="m391 348.7l-48.7 0.3-0.2-29.1 48.7-0.3z"/>
		<path id="Layer" class="s1" d="m394.7 322.1l-3.5 30.4q0 0.2-0.1 0.4-0.1 0.2-0.3 0.3-0.1 0.1-0.3 0.2-0.2 0.1-0.4 0.1l-47.4 0.3q-0.2 0.1-0.4 0-0.2-0.1-0.4-0.2-0.1-0.2-0.2-0.4-0.1-0.1-0.1-0.4l-2.6-30.3q0-0.2 0.1-0.4 0-0.2 0.2-0.4 0.1-0.2 0.3-0.3 0.2-0.1 0.5-0.1l53.5-0.4q0.2 0.1 0.4 0.1 0.3 0.1 0.4 0.3 0.2 0.2 0.2 0.4 0.1 0.2 0.1 0.4z"/>
		<path id="Layer" class="s1" d="m404.6 314.1l-1.3 24.8q0 0.3-0.2 0.6-0.1 0.3-0.3 0.5-0.3 0.2-0.6 0.3-0.3 0.2-0.6 0.2l-44.5 0.3q-0.4 0-0.7-0.1-0.3-0.2-0.5-0.4-0.2-0.2-0.4-0.5-0.1-0.3-0.1-0.7l-0.2-19.3q0-0.3 0.2-0.6 0.1-0.3 0.3-0.5 0.3-0.3 0.6-0.4 0.3-0.1 0.6-0.1h27.4q0.2 0 0.3-0.1 0.2 0 0.4-0.1 0.1 0 0.2-0.1 0.2-0.1 0.3-0.2l4.7-4.7q0.1-0.2 0.3-0.2 0.1-0.1 0.3-0.2 0.1-0.1 0.3-0.1 0.1 0 0.3 0l11.6-0.1q0.3 0 0.6 0.1 0.3 0.2 0.6 0.4 0.2 0.2 0.3 0.6 0.1 0.3 0.1 0.6z"/>
		<path id="Layer" class="s2" d="m404.6 314.1l-1.3 24.8q0 0.3-0.2 0.6-0.1 0.3-0.3 0.5-0.3 0.2-0.6 0.3-0.3 0.2-0.6 0.2l-44.5 0.3q-0.4 0-0.7-0.1-0.3-0.2-0.5-0.4-0.2-0.2-0.4-0.5-0.1-0.3-0.1-0.7l-0.2-19.3q0-0.3 0.2-0.6 0.1-0.3 0.3-0.5 0.3-0.3 0.6-0.4 0.3-0.1 0.6-0.1h27.4q0.2 0 0.3-0.1 0.2 0 0.4-0.1 0.1 0 0.2-0.1 0.2-0.1 0.3-0.2l4.7-4.7q0.1-0.2 0.3-0.2 0.1-0.1 0.3-0.2 0.1-0.1 0.3-0.1 0.1 0 0.3 0l11.6-0.1q0.3 0 0.6 0.1 0.3 0.2 0.6 0.4 0.2 0.2 0.3 0.6 0.1 0.3 0.1 0.6z"/>
		<path id="Layer" class="s3" d="m404.1 344l-48.7 0.3-0.2-29 48.7-0.4z"/>
		<path id="Layer" class="s1" d="m407.8 317.5l-3.5 30.3q0 0.2-0.1 0.4-0.1 0.2-0.2 0.4-0.2 0.1-0.4 0.2-0.2 0-0.4 0l-47.4 0.4q-0.2 0-0.4-0.1-0.2-0.1-0.3-0.2-0.2-0.1-0.3-0.3-0.1-0.2-0.1-0.4l-2.6-30.3q0-0.3 0.1-0.5 0-0.2 0.2-0.3 0.1-0.2 0.3-0.3 0.2-0.1 0.5-0.1l53.5-0.4q0.2 0 0.4 0.1 0.3 0.1 0.4 0.3 0.2 0.1 0.2 0.3 0.1 0.3 0.1 0.5z"/>
		<path id="Layer" class="s2" d="m407.8 317.5l-3.5 30.3q0 0.2-0.1 0.4-0.1 0.2-0.2 0.4-0.2 0.1-0.4 0.2-0.2 0-0.4 0l-47.4 0.4q-0.2 0-0.4-0.1-0.2-0.1-0.3-0.2-0.2-0.1-0.3-0.3-0.1-0.2-0.1-0.4l-2.6-30.3q0-0.3 0.1-0.5 0-0.2 0.2-0.3 0.1-0.2 0.3-0.3 0.2-0.1 0.5-0.1l53.5-0.4q0.2 0 0.4 0.1 0.3 0.1 0.4 0.3 0.2 0.1 0.2 0.3 0.1 0.3 0.1 0.5z"/>
		<path id="Layer" class="s1" d="m419.4 319.9l-1.3 24.8q-0.1 0.3-0.2 0.6-0.1 0.3-0.4 0.5-0.2 0.2-0.5 0.3-0.3 0.2-0.6 0.2l-44.6 0.3q-0.3 0-0.6-0.1-0.3-0.2-0.5-0.4-0.3-0.2-0.4-0.5-0.1-0.3-0.1-0.7l-0.2-19.3q0-0.3 0.1-0.6 0.2-0.3 0.4-0.5 0.2-0.3 0.5-0.4 0.3-0.1 0.7-0.1h27.4q0.1 0 0.3-0.1 0.2 0 0.3-0.1 0.2 0 0.3-0.1 0.1-0.1 0.3-0.2l4.7-4.7q0.1-0.2 0.2-0.2 0.2-0.1 0.3-0.2 0.2-0.1 0.3-0.1 0.2 0 0.4 0l11.5-0.1q0.3 0 0.7 0.1 0.3 0.1 0.5 0.4 0.3 0.2 0.4 0.6 0.1 0.3 0.1 0.6z"/>
		<path id="Layer" class="s3" d="m418.9 349.8l-48.7 0.3-0.2-29 48.7-0.4z"/>
		<path id="Layer" class="s1" d="m422.6 323.3l-3.5 30.3q-0.1 0.2-0.1 0.4-0.1 0.2-0.3 0.3-0.1 0.1-0.3 0.2-0.2 0.1-0.4 0.1l-47.4 0.3q-0.2 0-0.4 0-0.2-0.1-0.4-0.2-0.1-0.2-0.2-0.4-0.1-0.2-0.1-0.4l-2.6-30.3q0-0.2 0-0.4 0.1-0.2 0.3-0.4 0.1-0.2 0.3-0.3 0.2 0 0.4-0.1l53.6-0.3q0.2 0 0.4 0.1 0.2 0 0.4 0.2 0.2 0.2 0.2 0.4 0.1 0.2 0.1 0.5z"/>
		<path id="Layer" fill-rule="evenodd" class="s4" d="m427.6 327.4v42.1h-60.7v-42.1zm-40.7 8.8q0.2 0.6 0.7 1 0.4 0.4 1 0.7 0.5 0.2 1.1 0.2h14.9c0.9 0 1.7-0.3 2.3-0.8 0.7-0.6 1-1.4 1-2.3 0-0.9-0.3-1.7-1-2.3-0.6-0.6-1.4-0.9-2.3-0.8h-14.9q-0.6 0-1.1 0.2-0.6 0.3-1 0.7-0.5 0.4-0.7 1-0.3 0.6-0.3 1.2 0 0.6 0.3 1.2z"/>
		<path id="Layer" class="s0" d="m334.1 327.4v42.1h32.8v-42.1z"/>
	</g>
	<g id="freepik--Character--inject-7">
		<path id="Layer" class="s1" d="m219.6 337.7l-3.2 18.3c0 0-19.6 2.9-20.5 6.2l35.2 7.5 6.1-28.3z"/>
		<g id="Layer" style="opacity: .6">
			<path id="Layer" class="s5" d="m227.6 356.8q0.3 0.1 0.4 0.3 0.2 0.2 0.3 0.5 0.1 0.2 0.1 0.5 0 0.3-0.1 0.5-0.1 0.3-0.3 0.4-0.2 0.2-0.5 0.3-0.3 0.1-0.5 0.1-0.3 0-0.5-0.1-0.3-0.2-0.5-0.4-0.2-0.2-0.3-0.5-0.1-0.3-0.1-0.6 0.1-0.3 0.2-0.5 0.1-0.3 0.4-0.4 0.2-0.2 0.5-0.3 0.3 0 0.5 0 0.3 0 0.6 0.2"/>
		</g>
		<path id="Layer" class="s6" d="m231.1 369.6l0.5-2.8-34-6c0 0-1.7 0.3-1.8 1.5z"/>
		<path id="Layer" class="s0" d="m215.9 355.7c0 0.2 0.8 0.4 1.5 1.2 0.8 0.7 1 1.5 1.2 1.5 0.2-0.1 0.1-1.1-0.7-2-0.9-0.8-2-0.9-2-0.7z"/>
		<path id="Layer" class="s0" d="m211.9 356.4c-0.1 0.2 0.6 0.7 1 1.5 0.4 0.8 0.4 1.7 0.6 1.7 0.2 0 0.5-0.9-0.1-2-0.5-1.1-1.5-1.3-1.5-1.1z"/>
		<path id="Layer" class="s0" d="m208.8 360.4c0.2 0.1 0.6-0.7 0.4-1.7-0.3-1.1-1-1.6-1.1-1.5-0.1 0.1 0.3 0.7 0.5 1.6 0.2 0.8 0.1 1.6 0.2 1.6z"/>
		<path id="Layer" class="s0" d="m217.1 351.6c0 0.2 0.8 0.1 1.8 0.4 0.9 0.2 1.7 0.7 1.8 0.6 0.1-0.1-0.5-0.9-1.6-1.2-1.2-0.3-2.1 0.1-2 0.2z"/>
		<path id="Layer" class="s2" d="m219 341.3l-0.6 3.3 17.3 3.5 0.7-2.9-17.4-3.9z"/>
		<path id="Layer" class="s0" d="m217.8 347.9q0.2 0.1 0.4 0.2 0.2 0.1 0.4 0.1 0.3 0.1 0.5 0.1 0.2 0 0.4 0 0.3 0 0.5 0 0.3 0 0.5 0 0.3-0.1 0.5-0.1 0.3 0 0.5-0.1 0.2 0 0.3 0 0.2-0.1 0.3-0.1 0.1-0.1 0.3-0.1 0.1-0.1 0.3-0.1 0 0 0.1-0.1 0.1 0 0.2 0 0.1-0.1 0.1-0.1 0.1-0.1 0.2-0.1 0.1-0.1 0.2-0.2 0-0.1 0.1-0.2 0-0.1 0-0.3 0-0.1 0-0.2-0.1-0.1-0.2-0.2 0-0.1-0.1-0.2-0.1 0-0.2-0.1-0.1 0-0.2-0.1-0.1 0-0.2 0-0.1 0-0.2 0 0 0-0.1 0-0.1 0-0.2 0-0.1 0-0.3 0-0.1 0-0.3 0-0.1 0.1-0.3 0.1-0.1 0-0.3 0-0.2 0.1-0.5 0.2-0.2 0-0.4 0.1-0.3 0.1-0.5 0.2-0.2 0.1-0.4 0.3c-1 0.6-1.4 1.1-1.4 1.2 0.1 0 0.6-0.4 1.6-0.8q0.2-0.1 0.4-0.2 0.2-0.1 0.4-0.2 0.3-0.1 0.5-0.1 0.2-0.1 0.4-0.1 0.2 0 0.3 0 0.1-0.1 0.3-0.1 0.1 0 0.2 0 0.2 0 0.3 0c0.4 0 0.7 0 0.8 0.2 0 0.2 0 0.1-0.1 0.2q0 0-0.1 0.1-0.1 0-0.1 0-0.1 0.1-0.1 0.1-0.1 0-0.2 0-0.1 0.1-0.2 0.1-0.1 0.1-0.2 0.1-0.2 0.1-0.3 0.1-0.1 0-0.3 0.1-0.2 0-0.4 0.1-0.2 0-0.5 0.1-0.2 0-0.4 0-0.3 0-0.5 0.1-0.2 0-0.5 0-0.2 0-0.4 0-0.2 0-0.5 0-0.2 0-0.4 0z"/>
		<path id="Layer" class="s0" d="m218 348.2q0.2-0.1 0.3-0.3 0.1-0.2 0.2-0.4 0.1-0.2 0.2-0.4 0.1-0.3 0.1-0.5 0.1-0.2 0.1-0.5 0.1-0.2 0.1-0.5 0-0.2 0-0.5 0-0.2 0-0.5 0-0.1 0-0.3-0.1-0.1-0.1-0.3 0-0.1-0.1-0.3 0-0.1 0-0.3-0.1-0.1-0.2-0.3 0-0.2-0.2-0.3-0.1-0.2-0.2-0.3-0.2-0.1-0.4-0.2-0.1 0-0.2 0-0.1 0-0.2 0.1-0.2 0-0.2 0.1-0.1 0.1-0.2 0.2-0.1 0-0.1 0.1-0.1 0.1-0.1 0.2 0 0-0.1 0.1 0 0.1 0 0.2-0.1 0.1-0.1 0.3-0.1 0.1-0.1 0.3 0 0.1-0.1 0.3 0 0.1 0 0.3 0 0.2 0 0.5 0 0.2 0.1 0.5 0 0.2 0.1 0.5 0.1 0.2 0.2 0.5c0.5 1 1.2 1.4 1.2 1.3 0 0-0.5-0.5-0.8-1.5q-0.1-0.2-0.1-0.4-0.1-0.3-0.1-0.5 0-0.2 0-0.4 0-0.3 0-0.5 0-0.1 0-0.2 0-0.2 0.1-0.3 0-0.1 0-0.2 0.1-0.2 0.1-0.3c0.2-0.3 0.4-0.6 0.5-0.5 0.1 0 0.4 0.3 0.5 0.7q0 0.1 0.1 0.2 0 0.1 0 0.3 0.1 0.1 0.1 0.2 0 0.2 0 0.3 0.1 0.2 0.1 0.5 0 0.2 0 0.4 0 0.3 0 0.5 0 0.2-0.1 0.4c-0.2 1.1-0.5 1.7-0.4 1.7z"/>
		<path id="Layer" class="s1" d="m339.3 338.1l-7.7-9.9-0.4-0.5-13 9.6 12 13.2-0.4 13.4c-6.7 1.7-7.7 5-7.7 5h13.9l12.7-24.3z"/>
		<path id="Layer" class="s6" d="m348.7 344.6l-12.6 24.3h-14l1.6-2.1 11.3-0.6 11.7-23 2 1.4z"/>
		<path id="Layer" class="s0" d="m329.9 357.8c0.1 0.1 0.9-0.4 2-0.3 1.1 0 1.9 0.4 2 0.3 0.2-0.1-0.6-0.9-2-1-1.3 0-2.1 0.8-2 0.9z"/>
		<path id="Layer" class="s0" d="m330.2 354.4c0.1 0.1 0.7-0.7 1.8-0.9 1.1-0.2 2 0.3 2.1 0.1 0.1-0.1-0.1-0.3-0.5-0.5q-0.4-0.2-0.8-0.2-0.5-0.1-0.9 0-0.4 0.1-0.8 0.3-0.4 0.2-0.7 0.6c-0.3 0.3-0.3 0.6-0.2 0.6z"/>
		<path id="Layer" class="s0" d="m330.1 350.2c0.1 0.1 0.6-0.8 1.6-1.1 0.9-0.3 1.8 0 1.9-0.2 0-0.1-0.2-0.2-0.6-0.4q-0.3-0.1-0.8-0.1-0.4 0-0.7 0.1-0.4 0.2-0.8 0.4-0.3 0.3-0.5 0.6c-0.2 0.4-0.2 0.6-0.1 0.7z"/>
		<path id="Layer" class="s0" d="m326.3 346.9c0.2 0 0.6-0.8 1.5-1.3 0.8-0.6 1.7-0.7 1.7-0.8 0-0.2-1-0.4-2.1 0.3-1 0.7-1.2 1.8-1.1 1.8z"/>
		<path id="Layer" class="s0" d="m324.5 344q0.2-0.2 0.4-0.3 0.1-0.2 0.3-0.4 0.1-0.2 0.3-0.4 0.1-0.2 0.2-0.4l1.2-1.6q0.1-0.2 0.2-0.3 0.1-0.1 0.2-0.3 0.1-0.1 0.1-0.3 0.1-0.1 0.1-0.3 0.1-0.1 0.1-0.2 0-0.1 0-0.2 0-0.1 0-0.2-0.1-0.1-0.1-0.2-0.1-0.1-0.2-0.2-0.1-0.1-0.2-0.1-0.1-0.1-0.2-0.1-0.1-0.1-0.3 0-0.2 0-0.3 0.1-0.2 0-0.4 0.1-0.1 0.1-0.3 0.2-0.1 0.1-0.3 0.2-0.1 0.1-0.2 0.3-0.1 0.1-0.2 0.2-0.1 0.1-0.2 0.3-0.1 0.1-0.2 0.2-0.2 0.3-0.3 0.5-0.1 0.2-0.2 0.5-0.1 0.2-0.1 0.5-0.1 0.3-0.1 0.5-0.1 0.3-0.1 0.5 0 0.3 0 0.5 0.1 0.3 0.2 0.5 0 0.2 0.2 0.4 0-0.2 0-0.4 0-0.3 0-0.5 0-0.2 0-0.4 0.1-0.3 0.1-0.5 0.1-0.4 0.2-0.7 0.1-0.4 0.3-0.7 0.2-0.4 0.5-0.6 0.2-0.3 0.5-0.6 0.1-0.1 0.2-0.2 0.1 0 0.3-0.1 0.1-0.1 0.2-0.1 0.2-0.1 0.3-0.1 0 0 0.1 0 0 0 0.1 0 0 0 0 0.1 0.1 0 0.1 0 0 0.1 0 0.1 0 0.1 0 0.1 0 0.1 0 0.1 0 0.1 0 0.1-0.1 0.1-0.1 0.3-0.1 0.1-0.2 0.2 0 0.2-0.1 0.3-0.1 0.1-0.2 0.2l-1 1.8q-0.2 0.1-0.3 0.3-0.1 0.2-0.2 0.4-0.1 0.2-0.2 0.5-0.1 0.2-0.2 0.4z"/>
		<path id="Layer" class="s0" d="m324 344.4c0.1 0 0-0.7-0.7-1.5q-0.4-0.4-0.9-0.7-0.5-0.3-1.1-0.4-0.5-0.1-1.1 0-0.6 0.1-1.1 0.3 0 0.1-0.1 0.1 0 0.1 0 0.1-0.1 0.1-0.1 0.2 0 0.1 0 0.1 0 0.1 0 0.1 0 0.1 0.1 0.2 0 0 0 0.1 0.1 0 0.1 0.1 0 0 0.1 0.1 0.1 0 0.1 0.1 0.1 0.1 0.2 0.1 0 0.1 0.1 0.1 0.1 0.1 0.2 0.2 0.2 0 0.3 0.1 0.1 0.1 0.2 0.1 0.2 0.1 0.3 0.2 0.2 0.1 0.4 0.1 0.3 0.1 0.5 0.2 0.2 0.1 0.4 0.1 0.3 0 0.5 0.1 0.2 0 0.5 0 0.2 0 0.4 0 0.2 0 0.4 0 0.2-0.1 0.4-0.2c0-0.1-0.6 0-1.6-0.3q-0.2 0-0.4-0.1-0.2 0-0.5-0.1-0.2-0.1-0.4-0.2-0.2 0-0.4-0.1-0.1-0.1-0.2-0.2-0.1 0-0.2-0.1-0.1-0.1-0.2-0.1-0.1-0.1-0.2-0.2-0.1 0-0.1-0.1 0 0-0.1 0 0-0.1-0.1-0.1 0-0.1-0.1-0.1c0-0.1 0-0.1 0-0.1q0.1-0.1 0.1-0.1 0.1 0 0.1 0 0.1 0 0.1-0.1 0.1 0 0.1 0 0.1 0 0.2 0 0 0 0.1 0 0.1 0 0.1 0 0.1-0.1 0.2-0.1 0.1 0 0.2 0 0.1 0 0.3 0 0.1 0 0.2 0.1 0.1 0 0.3 0 0.2 0.1 0.4 0.1 0.2 0.1 0.4 0.2 0.1 0.1 0.3 0.2 0.2 0.1 0.4 0.3c0.6 0.6 0.8 1.3 0.9 1.2z"/>
		<path id="Layer" class="s6" d="m339.3 345.8c-1 0-1.7-0.7-1.7-1.6 0-0.9 0.7-1.7 1.6-1.7 1 0 1.7 0.8 1.7 1.7 0 0.9-0.7 1.6-1.7 1.6z"/>
		<path id="Layer" class="s2" d="m319.5 338.6l2.6 3 11.3-11.2-1.6-2-12.3 10.2z"/>
		<path id="Layer" class="s0" d="m251.5 159.5c0 0-13 44.1-24.6 94-7 30.3-13.6 86.5-13.6 86.5l30.8 6.8 13.3-72.3 14.1-42.8c4.8-13.5 11.8-23.4 20.3-30.7 9.2-13 14-27.9 12.1-43.7z"/>
		<path id="Layer" class="s0" d="m249 166.6l11.5 95c1.1 9.1 2.7 18 8.9 24.8l46.7 55.4 23.1-20.8-49.4-67.7 8.6-95.3-48.5 8.2"/>
		<path id="Layer" class="s4" d="m290.2 252.6c0.1 0.2-2 1.2-4 3.3-2 2.1-2.9 4.2-3 4.1-0.2 0 0.5-2.4 2.6-4.5 2-2.2 4.4-3 4.4-2.9z"/>
		<path id="Layer" class="s4" d="m289.5 253.3c0 0.2-1.8 0.2-4 0.4-2.3 0.2-4 0.6-4.1 0.4q0.4-0.2 0.9-0.4 0.5-0.2 1-0.4 0.5-0.1 1-0.2 0.6 0 1.1-0.1c2.3-0.2 4.2 0.2 4.1 0.3z"/>
		<path id="Layer" class="s4" d="m302.5 178.8q0 0.2 0 0.3 0 0.1 0 0.3-0.1 0.1-0.1 0.3 0 0.1-0.1 0.2-0.1 0.6-0.2 1.3c-0.1 0.5-0.3 1.1-0.5 1.8q-0.5 1.4-1 2.7-0.6 1.3-1.2 2.7-0.6 1.3-1.4 2.5-0.7 1.3-1.5 2.5c-2.7 4.1-6.5 8.5-10.5 13.6q-0.8 1-1.5 2-0.8 1-1.5 2-0.7 1.1-1.4 2.1-0.7 1.1-1.4 2.1-0.7 1.2-1.3 2.4-0.7 1.2-1.3 2.4-0.7 1.2-1.3 2.4-0.6 1.2-1.1 2.4c-3.1 6.8-5.6 13.4-7.8 19.5-2.1 6.1-3.9 11.6-5.4 16.3-1.5 4.6-2.7 8.3-3.5 11q-0.6 1.9-1 3-0.1 0.1-0.1 0.2 0 0.2-0.1 0.3 0 0.1-0.1 0.2-0.1 0.2-0.1 0.3 0-0.1 0-0.3 0.1-0.1 0.1-0.3 0-0.1 0.1-0.2 0-0.1 0.1-0.3l0.8-3 3.4-11.1c1.4-4.6 3.2-10.2 5.3-16.3 2.1-6.1 4.6-12.8 7.7-19.6q0.6-1.2 1.2-2.4 0.6-1.2 1.2-2.4 0.6-1.3 1.3-2.4 0.7-1.2 1.4-2.4 0.7-1.1 1.4-2.1 0.7-1.1 1.4-2.1 0.7-1.1 1.5-2.1 0.8-1 1.6-2c4-5 7.8-9.5 10.5-13.5q0.8-1.2 1.5-2.4 0.8-1.2 1.5-2.5 0.6-1.3 1.2-2.6 0.6-1.3 1-2.7c0.2-0.7 0.5-1.2 0.6-1.7 0.1-0.5 0.2-1 0.3-1.3q0-0.1 0.1-0.3 0-0.1 0-0.2 0.1-0.2 0.1-0.3 0.1-0.1 0.1-0.3z"/>
		<path id="Layer" class="s7" d="m191 132.1l-8.1 4.2-14.1 6.9q-0.3 0.2-0.7 0.3-0.3 0.2-0.6 0.5-0.3 0.2-0.5 0.5-0.2 0.3-0.4 0.6l-5.2 9.1h9.9l2.6-4.5q1.3 0.5 2.6 0.5 1.3 0.1 2.6-0.3 1.2-0.3 2.3-1.1 1.1-0.7 2-1.7l14.3-5z"/>
		<path id="Layer" class="s0" d="m285.2 20.6c0.6-1.2 1.5-2.2 2.7-2.8 1.2-0.7 2.5-0.9 3.9-0.8 1.3 0.2 2.5 0.7 3.5 1.7 1 0.9 1.7 2.1 2 3.4q0 0.5 0.1 0.9 0 0.5 0.1 1 0.1 0.4 0.2 0.9 0.1 0.5 0.2 0.9 0.3 0.6 0.8 1.1 0.4 0.4 1 0.7 0.6 0.3 1.3 0.4 0.6 0 1.3-0.1-0.2 0.4-0.5 0.7-0.2 0.3-0.5 0.6-0.3 0.3-0.6 0.5-0.3 0.2-0.7 0.4 0.2-0.1 0.4-0.1 0.2 0 0.5 0 0.2 0.1 0.3 0.3 0.2 0.2 0.2 0.4 0 0.2 0 0.4 0 0.2-0.1 0.4-0.1 0.2-0.3 0.4-0.1 0.2-0.3 0.3-0.2 0.1-0.4 0.2-0.2 0.1-0.4 0.1-0.2 0.1-0.4 0.1-0.3 0.1-0.5 0.1c-2.8 0.4-6 0.5-8.4-1-2.6-1.7-3.8-4.9-4.7-7.8"/>
		<path id="Layer" class="s0" d="m257.9 12.4c-3 0.2-5.5 2.4-7.2 4.9-1.8 2.5-3 5.3-4.8 7.7-1.4 1.8-3.1 3.4-3.8 5.5-1 3.5 0.9 7.4-0.6 10.7-0.9 1.8-2.7 3-3.5 4.9-1.1 2.2-0.6 5 0 7.4q0.1 0.6 0.4 1.2 0.2 0.6 0.5 1.2 0.3 0.6 0.7 1.1 0.4 0.6 0.9 1 0.4 0.3 0.9 0.5 0.4 0.3 0.9 0.5 0.5 0.1 1 0.3 0.5 0.1 1 0.1 3.8 0.7 7.7 0.9 3.9 0.1 7.7-0.4 3.9-0.5 7.6-1.5 3.8-1.1 7.3-2.7"/>
		<path id="Layer" class="s7" d="m281.3 29.5c0-2.1-0.5-4.1-1.3-6-0.9-1.9-2.1-3.7-3.6-5.1-1.5-1.4-3.3-2.5-5.3-3.2-1.9-0.7-4-1-6.1-0.9-8.3 0.4-14.7 7.6-14.8 15.9 0 7.3 0.1 14.6 0.6 17.2 1.2 7.9 6.3 10.3 8.3 10.9q0.2 0.1 0.5 0.1 0.3 0.1 0.5 0.1 0.3 0 0.6 0.1 0.3 0 0.5 0 0 0 0 0 0.1 0 0.1 0 0 0 0 0 0 0 0 0l-0.4 9.3c0 6 4.1 10.9 10.2 10.9 6 0 10-5.2 10-11.3z"/>
		<path id="Layer" class="s0" d="m253.2 34.3q0 0.2 0.1 0.4 0.1 0.3 0.3 0.5 0.2 0.1 0.4 0.2 0.2 0.1 0.5 0.1 0.2 0.1 0.4 0 0.3-0.1 0.4-0.3 0.2-0.1 0.3-0.3 0.1-0.3 0.2-0.5 0-0.2-0.1-0.5-0.1-0.2-0.3-0.4-0.2-0.2-0.4-0.3-0.2-0.1-0.5-0.1-0.2 0-0.4 0.1-0.3 0.1-0.5 0.2-0.2 0.2-0.3 0.4-0.1 0.2-0.1 0.5z"/>
		<path id="Layer" class="s0" d="m252.4 32.1c0.2 0.1 1.1-0.6 2.5-0.6 1.4 0 2.4 0.7 2.5 0.5 0.2-0.1-0.1-0.3-0.5-0.7q-0.2-0.1-0.5-0.2-0.2-0.1-0.5-0.2-0.2-0.1-0.5-0.1-0.3-0.1-0.5-0.1-0.3 0-0.6 0.1-0.2 0-0.5 0.1-0.2 0.1-0.5 0.2-0.2 0.1-0.4 0.3c-0.4 0.3-0.6 0.6-0.5 0.7z"/>
		<path id="Layer" class="s0" d="m266.6 34.3q0 0.2 0 0.4 0.1 0.3 0.3 0.5 0.2 0.1 0.4 0.2 0.2 0.1 0.5 0.1 0.2 0.1 0.5 0 0.2-0.1 0.4-0.3 0.2-0.1 0.3-0.3 0.1-0.3 0.1-0.5 0-0.2-0.1-0.5-0.1-0.2-0.3-0.4-0.1-0.2-0.4-0.3-0.2-0.1-0.4-0.1-0.3 0-0.5 0.1-0.2 0.1-0.4 0.2-0.2 0.2-0.3 0.4-0.1 0.2-0.1 0.5z"/>
		<path id="Layer" class="s0" d="m265.8 32.3c0.2 0.2 1.1-0.5 2.5-0.5 1.4 0 2.4 0.7 2.5 0.5 0.1-0.2-0.1-0.4-0.5-0.7q-0.2-0.2-0.5-0.3-0.2-0.1-0.5-0.2-0.2 0-0.5-0.1-0.3 0-0.5 0-0.3 0-0.6 0-0.2 0.1-0.5 0.1-0.2 0.1-0.5 0.2-0.2 0.2-0.4 0.3c-0.4 0.3-0.6 0.6-0.5 0.7z"/>
		<path id="Layer" class="s0" d="m260.9 42.4q-0.3-0.1-0.6-0.1-0.3-0.1-0.5-0.1-0.3-0.1-0.6-0.1-0.3-0.1-0.5-0.1c-0.4 0-0.7-0.1-0.8-0.3q0-0.1 0-0.3 0-0.1 0.1-0.2 0-0.2 0-0.3 0.1-0.1 0.1-0.2l1-2.7c1.5-3.7 2.5-6.8 2.4-6.9q-0.5 0.8-0.9 1.6-0.4 0.9-0.7 1.7-0.4 0.9-0.7 1.7-0.3 0.9-0.6 1.7-0.5 1.4-1 2.7-0.1 0.2-0.1 0.3-0.1 0.2-0.1 0.4 0 0.1 0 0.3 0 0.2 0 0.4 0 0.1 0.1 0.1 0.1 0.1 0.1 0.2 0.1 0.1 0.2 0.1 0.1 0.1 0.2 0.1 0.1 0 0.1 0 0.1 0 0.2 0 0.1 0.1 0.1 0.1 0.1 0 0.2 0 0.3 0 0.5 0 0.3 0 0.6 0 0.3 0 0.6 0 0.3 0 0.6-0.1z"/>
		<path id="Layer" class="s8" d="m261.3 58.6c0 0 5.3 0.4 11.9-3.6 0 0-2.1 7-12 6z"/>
		<path id="Layer" class="s8" d="m261.4 45.7q0.2-0.2 0.5-0.4 0.2-0.2 0.5-0.3 0.3-0.1 0.6-0.2 0.3 0 0.6 0 0.3 0 0.5 0.1 0.2 0.1 0.4 0.2 0.2 0.1 0.4 0.2 0.1 0.2 0.3 0.3 0.1 0.2 0.2 0.4 0.1 0.2 0.1 0.4 0 0.2 0 0.5-0.1 0.2-0.2 0.4-0.2 0.1-0.4 0.3-0.2 0.1-0.4 0.2-0.3 0-0.5 0-0.3 0-0.5-0.1-0.2-0.1-0.5-0.2-0.2-0.1-0.4-0.2-0.2-0.1-0.4-0.3-0.2-0.1-0.4-0.3-0.1 0-0.1-0.1-0.1 0-0.1-0.1-0.1 0-0.1-0.1-0.1 0-0.1-0.1-0.1 0-0.1-0.1 0-0.1 0-0.1 0-0.1 0-0.2 0 0 0.1-0.1"/>
		<path id="Layer" class="s0" d="m264.9 43.4c-0.3 0-0.3 1.4-1.5 2.5-1.3 1-2.9 0.9-2.9 1.1 0 0.2 0.4 0.3 1 0.3q0.4 0 0.7-0.1 0.3 0 0.6-0.1 0.3-0.1 0.6-0.3 0.3-0.1 0.5-0.3 0.2-0.2 0.4-0.5 0.2-0.2 0.4-0.5 0.1-0.3 0.2-0.5 0.1-0.3 0.2-0.7c0-0.6-0.1-0.9-0.2-0.9z"/>
		<path id="Layer" class="s0" d="m265.2 29.9c0.1 0.4 1.5 0.2 3.1 0.4 1.6 0.2 2.9 0.6 3.1 0.3 0.1-0.1-0.1-0.5-0.6-0.8q-0.6-0.4-1.2-0.6-0.5-0.2-1.2-0.3-0.6 0-1.2 0-0.6 0.1-1.2 0.3c-0.6 0.3-0.9 0.6-0.8 0.7z"/>
		<path id="Layer" class="s0" d="m252.9 29.3c0.3 0.3 1.2 0 2.3 0 1.2 0 2.1 0.2 2.3-0.2 0.1-0.1 0-0.4-0.4-0.7q-0.5-0.3-1-0.4-0.4-0.1-0.9-0.1-0.5 0-1 0.2-0.5 0.1-0.9 0.4c-0.4 0.3-0.5 0.6-0.4 0.8z"/>
		<path id="Layer" class="s0" d="m248.4 28.5c2 2.2 7 0 9.9-2.2q1.3 0.6 2.8 0.6 1.5 0.1 2.8-0.4 1.4-0.5 2.5-1.5 1.1-1 1.7-2.3c2.1 2 5.7 0.7 6.6-2 1-2.7-0.3-6.2-2.4-8.2q-0.8-0.7-1.7-1.2-0.9-0.5-1.9-0.9-1-0.3-2-0.5-1.1-0.2-2.1-0.2-2.4-0.1-4.8 0.5-2.4 0.5-4.5 1.8-2.1 1.2-3.7 3-1.7 1.8-2.8 4c-1.3 2.8-1.8 6.5-0.4 9.5"/>
		<path id="Layer" class="s0" d="m271.8 12.4c5.7-2 12.2 3 13.4 7.1 2.1 7.1 1.2 8.2 3 11.5 1.2 2.1 4.6 4 6 6.2 1.7 2.3 2.3 6.5 1.8 9.3-0.4 2.4-2.5 9.1-2.5 9.1 0 0-8.8 1-13.4 0.5q-0.5 0-0.9-0.1-0.4-0.1-0.9-0.2-0.4-0.1-0.8-0.3-0.4-0.2-0.8-0.4c-1-0.6 0.4-3.5 0.1-4.7-0.9-3.1-3.6-4.6-3.4-7.9 0.3-4.3 3.6-5 2.9-9.4-0.4-2.2-4.3-5-4.9-7.3-0.7-2.2-3.1-9.9 0.3-13.4"/>
		<path id="Layer" class="s1" d="m286.4 25.9c-0.2 0-0.1-1.4-0.4-3.2-0.3-1.7-0.8-3.1-0.7-3.2q0.3 0.4 0.5 0.7 0.2 0.4 0.4 0.8 0.1 0.4 0.2 0.8 0.1 0.4 0.1 0.8 0.1 0.4 0.2 0.9 0 0.4 0 0.8 0 0.4-0.1 0.8-0.1 0.4-0.2 0.8z"/>
		<path id="Layer" class="s4" d="m285.8 23.5c0 0-0.2 0.1-0.6 0.2q-0.2 0.1-0.4 0.1-0.2 0.1-0.5 0.1-0.2 0-0.4 0-0.2 0-0.5 0-0.3 0-0.6-0.1-0.4 0-0.7-0.1-0.3-0.1-0.6-0.2-0.3-0.1-0.6-0.2-0.4-0.2-0.8-0.4-0.3-0.2-0.6-0.5-0.4-0.2-0.7-0.5-0.3-0.3-0.5-0.6-0.3-0.3-0.5-0.6-0.3-0.3-0.5-0.6-0.3-0.3-0.6-0.6-0.3-0.2-0.6-0.5-0.3-0.2-0.5-0.4-0.3-0.1-0.6-0.3-0.3-0.1-0.5-0.2-0.3-0.1-0.6-0.2-0.3-0.1-0.6-0.2-0.3 0-0.6-0.1-0.3 0-0.6-0.1-0.3 0-0.6 0 0.1-0.1 0.2-0.1 0.1 0 0.1 0 0.1 0 0.2 0 0.1 0 0.2 0 0.2-0.1 0.4 0 0.2 0 0.5 0 0.2 0 0.4 0 0.2 0.1 0.4 0.1 0.4 0.1 0.7 0.2 0.3 0.1 0.6 0.3 0.3 0.1 0.6 0.3 0.3 0.1 0.6 0.3 0.3 0.3 0.6 0.5 0.3 0.3 0.6 0.6 0.3 0.3 0.6 0.6 0.2 0.3 0.5 0.6 0.4 0.5 1 1 0.5 0.4 1.1 0.8 0.6 0.3 1.3 0.5 0.7 0.2 1.4 0.3 0.3 0 0.6 0 0.3 0 0.5 0 0.3 0 0.6 0 0.3 0 0.6 0z"/>
		<path id="Layer" class="s4" d="m301.5 30.4q-0.1 0.1-0.2 0.1-0.1 0.1-0.2 0.1-0.1 0.1-0.2 0.1-0.1 0-0.2 0-0.2 0.1-0.5 0.1-0.3 0-0.6 0-0.3-0.1-0.5-0.1-0.3-0.1-0.5-0.2-0.4-0.2-0.7-0.5-0.4-0.2-0.7-0.5-0.3-0.3-0.5-0.7-0.2-0.3-0.4-0.7c-0.6-1-1-2.3-1.6-3.5q-0.1-0.5-0.4-0.9-0.2-0.4-0.5-0.7-0.3-0.4-0.7-0.7-0.3-0.3-0.7-0.5-0.4-0.2-0.7-0.3-0.4-0.1-0.8-0.1-0.4 0-0.7 0-0.4 0-0.8 0.1-0.3 0.1-0.6 0.3-0.4 0.1-0.7 0.3-0.3 0.2-0.5 0.5-0.3 0.2-0.5 0.5 0-0.1 0-0.2 0.1-0.1 0.1-0.2 0.1-0.1 0.1-0.2 0.1-0.1 0.2-0.1 0.2-0.2 0.4-0.4 0.2-0.2 0.4-0.3 0.3-0.2 0.5-0.3 0.3-0.1 0.5-0.2 0.4-0.1 0.8-0.2 0.4-0.1 0.9 0 0.4 0 0.8 0.1 0.4 0.1 0.8 0.2 0.4 0.3 0.8 0.6 0.4 0.3 0.8 0.7 0.3 0.4 0.6 0.8 0.2 0.5 0.4 0.9c0.6 1.3 1 2.6 1.5 3.6q0.2 0.4 0.4 0.7 0.2 0.3 0.4 0.6 0.3 0.3 0.6 0.5 0.3 0.2 0.6 0.4 0.2 0.2 0.5 0.3 0.2 0 0.5 0.1 0.2 0.1 0.5 0.1 0.3 0 0.5 0c0.5-0.1 0.7-0.3 0.8-0.2z"/>
		<path id="Layer" class="s4" d="m285.9 22.6c0 0-0.3 0.1-0.8 0.1q-0.2 0-0.5-0.1-0.2-0.1-0.4-0.2-0.3-0.1-0.5-0.2-0.2-0.1-0.4-0.3-0.3-0.2-0.6-0.5-0.2-0.2-0.5-0.5-0.2-0.3-0.4-0.6-0.2-0.3-0.4-0.6-0.2-0.4-0.4-0.8-0.2-0.4-0.5-0.7-0.2-0.4-0.5-0.7-0.2-0.4-0.5-0.7-0.5-0.6-1.2-1-0.6-0.4-1.3-0.7-0.8-0.3-1.5-0.4-0.8-0.2-1.5-0.1-0.4 0-0.7 0.1-0.3 0-0.6 0.1-0.4 0-0.7 0.1-0.3 0.1-0.6 0.2c-0.2 0.1 0.2-0.2 0.6-0.4q0.2-0.1 0.5-0.2 0.2 0 0.4-0.1 0.3-0.1 0.5-0.1 0.3-0.1 0.5-0.1 0.8-0.1 1.7 0 0.8 0.1 1.6 0.4 0.8 0.3 1.5 0.8 0.6 0.4 1.2 1 0.3 0.4 0.6 0.7 0.2 0.4 0.5 0.8 0.2 0.3 0.4 0.7 0.3 0.4 0.5 0.8 0.1 0.3 0.3 0.6 0.2 0.3 0.4 0.6 0.2 0.3 0.4 0.5 0.3 0.3 0.5 0.5 0.3 0.2 0.6 0.4 0.2 0.2 0.5 0.3 0.3 0.1 0.6 0.2 0.3 0.1 0.7 0.1z"/>
		<path id="Layer" class="s4" d="m288.4 56.6c0 0 0.3-0.5 1-1.5q0.3-0.5 0.6-1.1 0.3-0.5 0.5-1.1 0.3-0.6 0.5-1.2 0.2-0.5 0.4-1.1 0.2-0.9 0.4-1.8 0.1-0.9 0.2-1.8 0-0.9-0.1-1.8-0.1-0.9-0.3-1.8-0.2-1.1-0.7-2.1-0.4-1-1.1-1.9-0.6-0.9-1.4-1.7-0.8-0.7-1.8-1.3c-1.3-0.8-2.8-1.4-4.1-2.2q-0.5-0.2-1-0.6-0.4-0.4-0.8-0.8-0.4-0.4-0.7-0.9-0.3-0.4-0.5-1-0.2-0.4-0.4-0.9-0.2-0.4-0.4-0.9-0.1-0.5-0.3-1-0.1-0.4-0.2-0.9-0.1-0.4-0.3-0.8-0.1-0.4-0.2-0.8-0.2-0.4-0.3-0.8-0.2-0.4-0.4-0.8-0.2-0.6-0.6-1.1-0.3-0.5-0.8-0.9-0.5-0.4-1-0.7-0.5-0.3-1.1-0.5-0.2 0-0.4-0.1-0.3 0-0.5 0-0.2 0-0.4 0-0.2 0-0.5 0c-0.1 0 0.2-0.1 0.5-0.1q0.2-0.1 0.3-0.1 0.2 0 0.4 0 0.1 0 0.3 0 0.2 0 0.4 0.1 0.6 0.1 1.1 0.4 0.6 0.3 1.1 0.8 0.5 0.4 0.9 0.9 0.4 0.5 0.7 1.1 0.1 0.4 0.3 0.7 0.2 0.4 0.3 0.9 0.2 0.4 0.3 0.8 0.2 0.4 0.3 0.8 0.1 0.5 0.2 1 0.2 0.4 0.4 0.9 0.1 0.4 0.3 0.9 0.2 0.4 0.4 0.9 0.2 0.5 0.5 0.9 0.3 0.4 0.7 0.8 0.3 0.4 0.7 0.8 0.4 0.3 0.9 0.5c1.3 0.8 2.8 1.4 4.2 2.2q0.9 0.6 1.8 1.4 0.8 0.8 1.5 1.8 0.7 0.9 1.1 2 0.5 1 0.7 2.2 0.2 0.9 0.3 1.8 0.1 1 0 1.9 0 0.9-0.2 1.9-0.1 0.9-0.4 1.8-0.2 0.6-0.5 1.2-0.2 0.5-0.5 1.1-0.2 0.6-0.6 1.1-0.3 0.6-0.6 1.1-0.1 0.1-0.2 0.3-0.1 0.1-0.2 0.2-0.1 0.2-0.2 0.3-0.1 0.1-0.2 0.3-0.3 0.3-0.3 0.3z"/>
		<path id="Layer" class="s4" d="m245.1 59.1c0 0-0.1-0.1-0.2-0.3q-0.1-0.1-0.2-0.2-0.1-0.2-0.2-0.3 0-0.1-0.1-0.2-0.1-0.1-0.2-0.2-0.2-0.5-0.4-0.9-0.3-0.5-0.4-1-0.2-0.5-0.3-1-0.1-0.5-0.2-1-0.1-0.8-0.1-1.5 0-0.8 0.1-1.6 0.1-0.7 0.3-1.5 0.2-0.7 0.5-1.4 0.2-0.4 0.4-0.8 0.2-0.4 0.4-0.8 0.3-0.4 0.5-0.7 0.2-0.4 0.5-0.8 0.3-0.4 0.5-0.8 0.2-0.4 0.4-0.8 0.1-0.4 0.2-0.9 0.1-0.4 0.2-0.9c0.2-2.5-1-4.9-1.2-7.2q-0.1-0.7-0.1-1.5 0-0.8 0.1-1.5 0.1-0.8 0.3-1.5 0.2-0.8 0.5-1.5 0.2-0.4 0.4-0.9 0.3-0.4 0.6-0.9 0.3-0.4 0.6-0.8 0.3-0.4 0.7-0.7 0.1-0.1 0.2-0.2 0.1-0.1 0.2-0.2 0.1-0.1 0.2-0.2 0.1-0.1 0.3-0.1 0-0.1 0-0.1 0.1 0 0.1-0.1 0 0 0.1 0 0 0 0.1-0.1c0 0-0.4 0.4-1 1.1q-0.4 0.4-0.7 0.8-0.3 0.4-0.5 0.8-0.3 0.4-0.5 0.9-0.2 0.4-0.4 0.9-0.3 0.7-0.4 1.4-0.2 0.7-0.3 1.4-0.1 0.8-0.1 1.5 0 0.7 0.1 1.5 0.1 0.4 0.2 0.8 0.1 0.5 0.1 0.9 0.1 0.4 0.2 0.9 0.1 0.4 0.3 0.8 0.1 0.5 0.2 1 0.1 0.4 0.2 0.9 0 0.5 0 1 0.1 0.5 0.1 0.9-0.1 0.5-0.2 1-0.1 0.5-0.3 0.9-0.2 0.5-0.4 0.9-0.2 0.5-0.5 0.9-0.3 0.3-0.5 0.7-0.2 0.4-0.5 0.8-0.2 0.3-0.4 0.7-0.2 0.4-0.4 0.8-0.3 0.6-0.5 1.4-0.2 0.7-0.4 1.4-0.1 0.7-0.1 1.5 0 0.7 0.1 1.4 0.1 0.5 0.2 1 0.1 0.5 0.2 1 0.2 0.4 0.3 0.9 0.2 0.5 0.4 0.9c0.5 0.9 0.8 1.3 0.7 1.4z"/>
		<path id="Layer" class="s4" d="m263.5 10.7q-0.5 0.1-1 0.2-0.5 0-0.9 0.1-0.5 0.1-1 0.3-0.4 0.1-0.9 0.2-1.1 0.3-2.1 0.9-1 0.5-1.9 1.2-1 0.7-1.8 1.5-0.8 0.8-1.4 1.8-0.6 0.9-1.1 2-0.5 1-0.8 2.1-0.3 1.1-0.5 2.3-0.2 1.1-0.2 2.3 0 0.4 0 0.9 0.1 0.5 0.1 1 0.1 0.4 0.1 0.9 0.1 0.5 0.2 1-0.1-0.1-0.2-0.3 0-0.1-0.1-0.2 0-0.1 0-0.3-0.1-0.1-0.1-0.2-0.1-0.4-0.1-0.7-0.1-0.4-0.2-0.7 0-0.4 0-0.7-0.1-0.4-0.1-0.8 0-1.1 0.2-2.3 0.1-1.2 0.4-2.3 0.4-1.2 0.8-2.3 0.5-1.1 1.1-2.1 0.7-0.9 1.6-1.8 0.8-0.8 1.7-1.5 1-0.7 2.1-1.2 1.1-0.6 2.2-0.9 0.3-0.1 0.7-0.2 0.3 0 0.7-0.1 0.4-0.1 0.7-0.1 0.4 0 0.7 0 0.2-0.1 0.3-0.1 0.1 0 0.2 0 0.2 0.1 0.3 0.1 0.1 0 0.3 0z"/>
		<path id="Layer" class="s4" d="m256.7 23.5q0-0.1-0.1-0.2 0-0.1 0-0.2-0.1-0.1-0.1-0.2 0-0.1 0-0.2-0.1-0.3-0.1-0.6-0.1-0.3-0.1-0.6 0-0.4 0-0.7 0-0.3 0.1-0.6c0.1-1.4 0.5-2.7 1.1-3.9 0.6-1.3 1.5-2.3 2.6-3.2 1.1-0.9 2.3-1.5 3.7-1.9 1.3-0.3 2.7-0.4 4.1-0.2q0.3 0 0.6 0.1 0.3 0 0.6 0.1 0.3 0.1 0.6 0.2 0.3 0.1 0.6 0.2 0.1 0 0.2 0.1 0.1 0 0.2 0.1 0.1 0 0.2 0.1 0.1 0.1 0.2 0.1-0.4-0.1-0.8-0.2-0.4-0.1-0.8-0.2-0.5-0.1-0.9-0.1-0.4-0.1-0.8-0.2c-1.3-0.1-2.6 0-3.9 0.4-1.3 0.4-2.4 1-3.5 1.8-1 0.8-1.8 1.9-2.5 3-0.6 1.2-1 2.4-1.2 3.7q0 0.5 0 0.9 0 0.4 0 0.8 0 0.4 0 0.8 0 0.4 0 0.8z"/>
		<path id="Layer" class="s1" d="m302.3 165.7l-10.9-41.8 3.8-16.3 5.4-30.7c0 0-5-6.8-17.8-7.5l-0.9-6.2-21.9 0.8-0.4 5.9q-2.5 0.6-4.7 1.7-2.3 1.1-4.3 2.6-2 1.6-3.6 3.5-1.6 1.9-2.8 4.2l-15.6 29.3-42.6 21.3 5.6 13.2c0 0 42.8-16.2 46.5-17.8 2.4-1 5-5.5 7.2-10.2 1.8 8.2 3.5 14.6 3.5 14.6l-0.3 32.1z"/>
		<path id="Layer" class="s9" d="m283.1 80.9c0 0-0.5 0.1-1.5 0.4-1 0.3-2.4 0.8-4.2 1.4-1.8 0.6-3.8 1.3-6.2 1.9q-0.5 0.1-1 0.2-0.5 0.1-1 0.1-0.5 0.1-0.9 0.1-0.5 0-1 0-0.6-0.1-1.1-0.2-0.5-0.1-1-0.3-0.5-0.1-1-0.4-0.5-0.2-0.9-0.5c-1.3-0.6-2.5-1.4-3.6-2q-0.5-0.2-0.9-0.4-0.4-0.2-0.9-0.3-0.4-0.2-0.9-0.3-0.4-0.2-0.9-0.3-0.8-0.2-1.5-0.3-0.8-0.1-1.6-0.2-0.9 0-1.7 0-0.8 0-1.6 0.1-0.7 0.1-1.4 0.3-0.8 0.1-1.5 0.3-0.7 0.2-1.4 0.5-0.7 0.2-1.4 0.5 0.1 0 0.1 0 0-0.1 0.1-0.1 0 0 0.1 0 0-0.1 0.1-0.1 0.1-0.1 0.2-0.1 0.2-0.1 0.3-0.2 0.1 0 0.3-0.1 0.1-0.1 0.2-0.1 0.5-0.3 1.1-0.4 0.5-0.2 1-0.4 0.6-0.1 1.1-0.3 0.5-0.1 1.1-0.2 1.3-0.2 2.6-0.1 1.3 0 2.6 0.2 1.3 0.2 2.6 0.6 1.2 0.4 2.4 1c1.2 0.6 2.4 1.3 3.6 2q0.5 0.2 0.9 0.5 0.5 0.2 0.9 0.3 0.5 0.2 1 0.3 0.5 0.1 1 0.2 0.5 0 0.9 0 0.5 0 1-0.1 0.4 0 0.9-0.1 0.5-0.1 0.9-0.2c2.4-0.5 4.5-1.2 6.3-1.8 1.7-0.5 3.2-1 4.2-1.2q0.8-0.2 1.2-0.2 0.1 0 0.1 0 0.1 0 0.1 0 0.1-0.1 0.1 0 0.1 0 0.1 0z"/>
		<path id="Layer" class="s9" d="m289.8 102.1c-0.1 0-0.9-0.2-2.4-0.3q-0.8 0-1.7 0.1-0.8 0-1.6 0.1-0.8 0.1-1.6 0.3-0.8 0.2-1.5 0.4-1.2 0.4-2.3 0.8-1.1 0.4-2.3 0.9-1.1 0.4-2.2 0.9-1.1 0.5-2.2 1.1-1.3 0.7-2.6 1.3-1.4 0.6-2.8 1-1.4 0.5-2.9 0.9-1.4 0.4-2.9 0.7-0.4 0-0.8 0.1-0.4 0-0.8 0-0.4 0.1-0.8 0.1-0.3 0-0.7 0-0.4-0.1-0.8-0.1-0.4 0-0.8-0.1-0.4-0.1-0.7-0.1-0.4-0.1-0.8-0.2-0.7-0.2-1.4-0.5-0.6-0.2-1.3-0.5-0.7-0.3-1.3-0.7-0.6-0.3-1.2-0.7c-3.1-2-5.7-4-8.4-4.8q-0.7-0.3-1.5-0.5-0.8-0.2-1.6-0.2-0.8-0.1-1.6 0-0.8 0.1-1.6 0.4-0.2 0.1-0.5 0.2-0.3 0.1-0.6 0.3-0.2 0.1-0.5 0.2-0.2 0.2-0.5 0.4 0.1-0.1 0.1-0.2 0.1 0 0.1-0.1 0.1 0 0.2-0.1 0 0 0.1-0.1 0.2-0.1 0.4-0.2 0.1-0.1 0.3-0.2 0.2-0.2 0.4-0.2 0.2-0.1 0.5-0.2 0.7-0.3 1.6-0.4 0.8-0.1 1.6-0.1 0.9 0 1.7 0.2 0.8 0.1 1.6 0.4c2.7 0.8 5.4 2.9 8.4 4.8q0.6 0.4 1.2 0.7 0.6 0.3 1.3 0.6 0.6 0.3 1.3 0.6 0.7 0.2 1.3 0.4 0.4 0.1 0.8 0.2 0.3 0 0.7 0.1 0.4 0 0.7 0.1 0.4 0 0.8 0 0.4 0 0.7 0 0.4 0 0.8 0 0.4 0 0.8 0 0.4-0.1 0.7-0.1 1.5-0.3 2.9-0.7 1.4-0.4 2.8-0.8 1.4-0.5 2.8-1.1 1.3-0.6 2.7-1.3 1-0.5 2.1-1 1.1-0.5 2.3-0.9 1.1-0.5 2.2-0.9 1.2-0.4 2.4-0.7 0.7-0.3 1.6-0.4 0.8-0.2 1.6-0.3 0.8-0.1 1.6-0.1 0.8 0 1.7 0 0.2 0.1 0.4 0.1 0.2 0 0.5 0 0.2 0.1 0.4 0.1 0.2 0.1 0.4 0.1 0.1 0 0.2 0 0.1 0.1 0.1 0.1 0.1 0 0.2 0 0.1 0 0.1 0.1z"/>
		<path id="Layer" class="s0" d="m249.7 87.4c0 0 0 0.2-0.1 0.5-0.1 0.3-0.2 0.7-0.3 1.2-0.4 1-1 2.5-1.7 4.3-0.7 1.8-1.6 4-2.4 6.4q-0.1 0.5-0.3 1-0.1 0.5-0.2 0.9-0.2 0.5-0.3 1-0.1 0.5-0.2 1-0.1 0.5-0.2 1.1 0 0.5-0.1 1 0 0.5 0 1.1 0 0.5 0 1 0.1 1.1 0.2 2.1 0.1 1.1 0.2 2.1 0.2 1 0.4 2.1 0.2 1 0.4 2c0.5 2.5 1.1 4.8 1.5 6.7 0.5 1.9 0.9 3.4 1.1 4.5 0.1 0.5 0.2 1 0.3 1.2q0 0.1 0 0.1 0 0.1 0 0.1 0 0.1 0 0.1 0 0.1 0 0.1-0.1-0.1-0.1-0.3-0.1-0.2-0.2-0.5 0-0.2-0.1-0.4-0.1-0.2-0.1-0.4l-1.2-4.4c-0.5-1.9-1.1-4.1-1.7-6.7q-0.2-1-0.4-2-0.2-1.1-0.4-2.1-0.1-1-0.2-2.1-0.2-1-0.2-2.1-0.1-0.5-0.1-1.1 0-0.5 0.1-1.1 0-0.5 0.1-1.1 0.1-0.5 0.2-1.1 0.1-0.5 0.2-1 0.1-0.5 0.3-1 0.1-0.4 0.2-0.9 0.2-0.5 0.3-1c0.8-2.5 1.8-4.6 2.5-6.4 0.8-1.8 1.4-3.2 1.8-4.3q0.1-0.2 0.2-0.4 0.1-0.2 0.1-0.4 0.1-0.2 0.2-0.4 0.1-0.2 0.2-0.4z"/>
		<path id="Layer" class="s9" d="m225.3 132.9q-0.1 0-0.2 0-0.1 0-0.2 0-0.1 0-0.2 0-0.1 0-0.2-0.1-0.2 0-0.5-0.2-0.2-0.1-0.4-0.2-0.3-0.1-0.5-0.3-0.2-0.1-0.4-0.3-0.3-0.2-0.6-0.5-0.3-0.3-0.5-0.5-0.3-0.3-0.5-0.7-0.3-0.3-0.5-0.6-0.2-0.4-0.4-0.8-0.2-0.5-0.4-0.9-0.2-0.5-0.3-0.9-0.1-0.5-0.2-1-0.1-0.4-0.2-0.9-0.1-0.4-0.3-0.9-0.1-0.4-0.2-0.9-0.2-0.4-0.3-0.8-0.2-0.4-0.3-0.7-0.2-0.3-0.4-0.6-0.2-0.3-0.5-0.6-0.2-0.3-0.5-0.6-0.3-0.2-0.5-0.4-0.3-0.2-0.6-0.3-0.3-0.2-0.7-0.3-0.3-0.1-0.6-0.2c-0.3 0 0.2-0.1 0.7 0q0.3 0.1 0.6 0.2 0.2 0.1 0.5 0.2 0.2 0.1 0.4 0.2 0.2 0.2 0.4 0.4 0.3 0.2 0.6 0.5 0.3 0.3 0.5 0.6 0.3 0.3 0.5 0.7 0.2 0.3 0.3 0.7 0.2 0.4 0.3 0.9 0.2 0.4 0.3 0.9 0.2 0.4 0.3 0.9 0.1 0.4 0.2 0.9 0.1 0.5 0.2 0.9 0.1 0.4 0.3 0.9 0.2 0.4 0.3 0.8 0.2 0.4 0.5 0.8 0.2 0.4 0.4 0.7 0.2 0.3 0.4 0.6 0.3 0.3 0.5 0.5 0.3 0.3 0.6 0.5 0.2 0.2 0.4 0.4 0.2 0.1 0.4 0.3 0.2 0.1 0.4 0.2 0.2 0.2 0.5 0.3c0.4 0.1 0.6 0.2 0.6 0.2z"/>
		<path id="Layer" class="s9" d="m200.9 142.2c-0.1 0 0-0.8-0.2-2.2q-0.1-0.7-0.3-1.4-0.1-0.7-0.3-1.3-0.2-0.7-0.4-1.3-0.2-0.7-0.5-1.3-0.2-0.7-0.6-1.3-0.3-0.6-0.6-1.2-0.3-0.6-0.7-1.2-0.4-0.5-0.8-1.1c-0.9-1.1-1.5-1.7-1.5-1.7q0.3 0.1 0.5 0.3 0.3 0.1 0.5 0.3 0.2 0.2 0.4 0.4 0.2 0.2 0.4 0.5 0.4 0.5 0.8 1.1 0.5 0.6 0.8 1.2 0.4 0.6 0.7 1.2 0.3 0.6 0.6 1.3 0.3 0.6 0.5 1.3 0.2 0.7 0.4 1.3 0.1 0.7 0.3 1.4 0.1 0.7 0.1 1.4 0.1 0.3 0.1 0.6 0 0.3 0 0.6-0.1 0.3-0.1 0.6 0 0.3-0.1 0.5z"/>
		<path id="Layer" class="s9" d="m291.6 123.5c0 0-0.6 0-1.8 0.2q-0.6 0-1.2 0.1-0.6 0.1-1.2 0.2-0.5 0.1-1.1 0.2-0.6 0.2-1.2 0.3c-2 0.6-4.2 1.4-6.8 2.3q-1 0.4-2.1 0.8-1 0.3-2.1 0.6-1 0.3-2.1 0.6-1.1 0.2-2.2 0.4-2 0.3-4 0.4-2 0-4-0.1-2-0.2-3.9-0.6-2-0.4-3.9-1.1-0.6-0.2-1.1-0.4-0.6-0.2-1.2-0.4-0.5-0.3-1.1-0.5-0.5-0.3-1.1-0.6-0.7-0.4-1.1-0.6c-0.3-0.2-0.4-0.3-0.4-0.3q0.2 0.1 0.4 0.2 0.2 0.1 0.4 0.1 0.2 0.1 0.4 0.2 0.2 0.1 0.4 0.2 0.6 0.3 1.1 0.5 0.6 0.3 1.1 0.5 0.6 0.2 1.2 0.4 0.5 0.2 1.1 0.4 1.9 0.6 3.8 0.9 2 0.4 4 0.6 1.9 0.1 3.9 0.1 2-0.1 4-0.4 1-0.2 2.1-0.5 1.1-0.2 2.1-0.5 1.1-0.3 2.1-0.6 1.1-0.3 2.1-0.7c2.5-0.9 4.8-1.7 6.8-2.2q0.6-0.2 1.2-0.3 0.6-0.1 1.2-0.2 0.6-0.1 1.2-0.2 0.6 0 1.2 0 0.2-0.1 0.4-0.1 0.1 0 0.3 0 0.2 0 0.3 0 0.2 0 0.4 0.1 0 0 0.1 0 0 0 0.1 0 0 0 0.1 0 0 0 0.1 0z"/>
		<g id="Layer" style="opacity: .3">
			<path id="Layer" class="s10" d="m261.1 69.9q2.2 1.2 4.6 1.8 2.4 0.7 4.9 0.7 2.5 0 4.9-0.6 2.4-0.6 4.6-1.8-9.6 0.4-19.1 0"/>
		</g>
		<path id="Layer" class="s0" d="m282.7 69.3q-0.1 0.1-0.2 0.1-0.2 0.1-0.3 0.1-0.1 0-0.2 0.1-0.1 0-0.2 0-0.3 0.1-0.6 0.2-0.3 0.1-0.6 0.1-0.3 0.1-0.6 0.1-0.3 0.1-0.7 0.1-1 0.2-2 0.2-1 0.1-2.1 0.2-1 0-2 0-1.1 0-2.1-0.1c-3.2-0.1-6.1-0.3-8.2-0.3-2.1 0-3.4 0-3.4 0q0.1-0.1 0.2-0.1 0.1 0 0.2 0 0.1-0.1 0.3-0.1 0.1 0 0.2 0 0.9-0.1 2.5-0.2c2.1 0 5 0.1 8.2 0.2q1 0.1 2.1 0.1 1 0 2 0 1 0 2.1-0.1 1 0 2-0.1c2.1-0.3 3.3-0.6 3.4-0.5z"/>
		<path id="Layer" class="s0" d="m269.2 115.4c0.6 1.2 35.2 28.8 45.1 36.7q0.5 0.4 0.8 1 0.4 0.5 0.4 1.2 0.1 0.7-0.1 1.3-0.2 0.6-0.6 1.2l-23.1 28.6q-0.4 0.5-1 0.9-0.5 0.3-1.2 0.4-0.6 0-1.3-0.2-0.6-0.1-1.1-0.6l-44.2-35q-0.6-0.4-0.9-1-0.3-0.6-0.4-1.3-0.1-0.6 0.1-1.3 0.3-0.7 0.7-1.2z"/>
		<path id="Layer" class="s1" d="m268.7 110.5c0.6 1.2 37.6 30.7 46 37.4q0.3 0.3 0.6 0.7 0.2 0.3 0.2 0.8 0 0.4-0.1 0.8-0.1 0.4-0.4 0.7l-24.5 30.6q-0.3 0.3-0.7 0.5-0.4 0.2-0.8 0.2-0.4 0.1-0.8 0-0.4-0.1-0.7-0.4l-46.2-36.6q-0.3-0.3-0.5-0.6-0.2-0.4-0.3-0.9 0-0.4 0.1-0.8 0.1-0.4 0.4-0.8z"/>
		<path id="Layer" class="s11" d="m268.7 110.5c0.6 1.2 38.3 31.3 46.3 37.6q0.2 0.2 0.4 0.6 0.2 0.3 0.2 0.6 0.1 0.4 0 0.8-0.1 0.3-0.4 0.6l-25 31q-0.2 0.3-0.5 0.5-0.3 0.1-0.7 0.2-0.4 0-0.7-0.1-0.4-0.1-0.7-0.3l-46.6-37q-0.3-0.2-0.4-0.6-0.2-0.3-0.3-0.7 0-0.4 0.1-0.7 0.1-0.4 0.4-0.7z"/>
		<path id="Layer" class="s4" d="m272.5 111.1c11.7 9.7 43.4 35 43.4 35l-24.5 30.5q-0.6 0.6-1.3 1-0.8 0.4-1.6 0.5-0.9 0.1-1.7-0.1-0.8-0.2-1.4-0.7l-42.7-33.9q-0.7-0.5-1.1-1.3-0.4-0.8-0.5-1.6-0.1-0.9 0.2-1.8 0.2-0.8 0.8-1.5l22.3-25.5q0.7-0.8 1.8-1.3 1-0.6 2.1-0.7 1.1 0 2.2 0.3 1.1 0.3 2 1.1z"/>
		<path id="Layer" class="s9" d="m301.9 134.8l0.6 4.3 11.2 9.7 2.2-2.8-14-11.2z"/>
		<path id="Layer" class="s7" d="m269 177.4l10.6-8.8-5.1-12.3-7.2 6.5q-0.6 0.2-1.3 0.3-0.6 0.2-1.2 0.3-0.7 0.1-1.3 0.2-0.7 0.1-1.3 0.1-0.3 0-0.7 0-0.3 0.1-0.6 0-0.4 0-0.7-0.1-0.3 0-0.6-0.1-0.5-0.1-0.9-0.2-0.4-0.1-0.7-0.2-0.4-0.2-0.8-0.3-0.4-0.2-0.8-0.4c-0.8-0.6-1.9 0.2-1.6 1.1 0.3 0.8 2.6 2.4 5.9 3 2.9 0.4-0.4 2.6-2.3 3.7q-0.1 0.1-0.2 0.2-0.1 0.1-0.1 0.2-0.1 0.2 0 0.3 0 0.2 0 0.3c1 2.2 4.8 9.4 10.9 6.2z"/>
		<path id="Layer" class="s1" d="m285.8 90.6c-0.8-11 9.4-22.1 15.4-12.9 6.5 10.2 20.9 34 24.4 50.2 1.6 7.6-43.6 43.6-46.4 45.8-0.1 0.1-0.8-0.9-0.9-1l-11.2-11.6c0-0.1 2.7-2.8 2.7-2.9l31.9-31.2q0 0 0 0 0-0.1 0-0.1 0 0 0-0.1 0 0 0 0c-1.1-2-15.1-27.6-15.9-35.9z"/>
		<path id="Layer" class="s0" d="m311 126.8c-0.1 0.2-2.2-0.5-4.9-0.5-2.7-0.1-4.8 0.4-4.9 0.2 0-0.2 2.1-1.1 5-1 2.8 0.1 4.8 1.1 4.8 1.3z"/>
		<path id="Layer" class="s0" d="m309 130.3c-0.2 0.1-1.5-1.3-3.5-2.3-2.1-1.1-4-1.3-4-1.6 0.1-0.2 2.1-0.2 4.3 0.9 2.2 1.2 3.3 2.9 3.2 3z"/>
		<path id="Layer" class="s0" d="m301.7 127q0-0.1-0.1-0.1 0-0.1-0.1-0.2 0-0.1-0.1-0.1 0-0.1 0-0.2l-1-1.7-3.2-6.4c-2.7-5.4-6.4-12.9-10.5-21.1q-0.8-1.4-1.5-2.9-0.6-1.5-1.1-3.1-0.4-1.6-0.7-3.2-0.3-1.6-0.5-3.2c-0.3-4 0.9-7.8 3-10q0.4-0.4 0.8-0.7 0.4-0.4 0.8-0.7 0.5-0.2 0.9-0.5 0.5-0.2 1-0.4 0.4-0.1 0.7-0.2 0.4 0 0.8-0.1 0.4 0 0.8 0 0.4-0.1 0.8 0 0.2 0 0.5 0 0.2 0.1 0.4 0.1 0.3 0.1 0.5 0.2 0.2 0.1 0.5 0.2c0.2 0 0.3 0.1 0.4 0.2q0.2 0.1 0.2 0.1-0.3-0.1-0.6-0.2-0.3-0.1-0.7-0.2-0.3-0.1-0.6-0.1-0.3-0.1-0.6-0.1-0.4 0-0.8 0-0.4 0-0.8 0-0.3 0.1-0.7 0.2-0.4 0.1-0.7 0.2-0.5 0.2-1 0.4-0.4 0.2-0.8 0.5-0.4 0.3-0.8 0.6-0.4 0.4-0.7 0.7c-2 2.2-3.2 5.9-2.9 9.8q0.2 1.6 0.5 3.2 0.3 1.6 0.8 3.1 0.5 1.5 1.1 3 0.7 1.5 1.4 2.9c4.1 8.2 7.8 15.7 10.4 21.2 1.3 2.7 2.4 4.8 3.1 6.4l0.8 1.8q0.1 0.1 0.1 0.1 0.1 0.1 0.1 0.2 0 0.1 0.1 0.1 0 0.1 0 0.2z"/>
		<g id="Layer" style="opacity: .3">
			<path id="Layer" class="s10" d="m283.5 84.5c-1.2 9.7-2 19.6-1.1 29.3 0.5 5.2 5.9 11.6 10.2 14.5l-1.1-4.4c0.6-2.9 2.7-11.9 2.7-11.9 0 0-3.9-7.8-5.5-10.6q-1.1-1.9-2-4-0.9-2-1.6-4.2-0.6-2.1-1-4.3-0.5-2.2-0.6-4.4z"/>
		</g>
		<path id="Layer" class="s9" d="m322.4 118.2c0 0-0.2 0.3-0.7 0.7q-0.3 0.3-0.9 0.6-0.5 0.4-1.2 0.8-0.4 0.3-0.8 0.5-0.4 0.2-0.9 0.4-0.4 0.2-0.8 0.4-0.5 0.2-0.9 0.4-0.6 0.2-1.1 0.4-0.6 0.2-1.1 0.3-0.6 0.2-1.1 0.4-0.6 0.1-1.2 0.2-0.6 0.1-1.1 0.2-0.6 0.1-1.2 0.2-0.6 0.1-1.1 0.1-0.6 0.1-1.2 0.1-0.5 0-1 0-0.4 0-0.9 0-0.5 0-1-0.1-0.4 0-0.9-0.1-0.2 0-0.4 0-0.2 0-0.3-0.1-0.2 0-0.4 0-0.2-0.1-0.3-0.1-0.2-0.1-0.3-0.1-0.2 0-0.3 0-0.1-0.1-0.2-0.1-0.2-0.1-0.3-0.1-0.1 0-0.2-0.1-0.2 0-0.3 0-0.1-0.1-0.2-0.1-0.1-0.1-0.2-0.1c0-0.1 1.3 0.3 3.4 0.5q0.5 0 1 0 0.4 0.1 0.9 0.1 0.5 0 0.9 0 0.5 0 1-0.1 0.6 0 1.1-0.1 0.6 0 1.2-0.1 0.5-0.1 1.1-0.2 0.5-0.1 1.1-0.2 0.6-0.1 1.1-0.2 0.6-0.2 1.1-0.3 0.6-0.2 1.1-0.4 0.6-0.2 1.1-0.4 0.4-0.1 0.9-0.3 0.4-0.2 0.8-0.4 0.5-0.2 0.9-0.4 0.4-0.2 0.8-0.4c1.9-1 3-1.8 3-1.8z"/>
		<path id="Layer" class="s9" d="m303.8 151.7q-0.1-0.3-0.3-0.6-0.1-0.4-0.2-0.7-0.2-0.4-0.3-0.8-0.1-0.3-0.2-0.7-0.2-0.8-0.5-1.7-0.3-0.8-0.7-1.7-0.3-0.8-0.6-1.6-0.4-0.8-0.8-1.6-0.2-0.5-0.5-0.9-0.2-0.4-0.5-0.9-0.2-0.4-0.5-0.8-0.3-0.4-0.6-0.8-0.2-0.3-0.5-0.6-0.2-0.3-0.5-0.6-0.3-0.3-0.6-0.5-0.3-0.3-0.6-0.5c-1.4-1.1-2.5-1.6-2.5-1.7q0.1 0.1 0.2 0.1 0.1 0 0.2 0 0.1 0.1 0.2 0.1 0.1 0 0.2 0.1 0.3 0.1 0.5 0.2 0.2 0.1 0.5 0.3 0.2 0.1 0.5 0.3 0.2 0.1 0.4 0.3 0.4 0.2 0.7 0.5 0.3 0.2 0.6 0.5 0.3 0.3 0.6 0.6 0.3 0.3 0.5 0.6 0.3 0.4 0.6 0.8 0.3 0.4 0.6 0.9 0.2 0.4 0.5 0.8 0.2 0.5 0.5 0.9 0.4 0.8 0.7 1.7 0.4 0.8 0.7 1.7 0.3 0.8 0.6 1.7 0.3 0.8 0.5 1.7 0.1 0.4 0.2 0.7 0.1 0.4 0.2 0.8 0.1 0.3 0.1 0.7 0.1 0.4 0.1 0.7z"/>
		<path id="Layer" class="s9" d="m292 162.8q-0.3-0.1-0.7-0.2-0.3-0.1-0.6-0.2-0.4-0.1-0.7-0.3-0.3-0.1-0.6-0.3-0.8-0.4-1.5-0.8-0.8-0.4-1.5-0.9-0.7-0.4-1.3-1-0.7-0.5-1.3-1-0.7-0.6-1.3-1.2-0.6-0.6-1.1-1.2-0.6-0.6-1.1-1.3-0.5-0.7-1-1.4-0.2-0.3-0.4-0.6-0.1-0.3-0.3-0.6-0.2-0.3-0.3-0.6-0.2-0.3-0.3-0.7c0.1 0 0.6 0.9 1.6 2.3q1 1.3 2.1 2.6 1.1 1.2 2.4 2.3 1.3 1.1 2.6 2 1.4 1 2.9 1.8c1.4 0.8 2.4 1.2 2.4 1.3z"/>
		<path id="Layer" class="s9" d="m303.2 81q-0.1 0.1-0.2 0.1-0.1 0.1-0.2 0.1-0.1 0-0.2 0.1-0.1 0-0.2 0-0.2 0.1-0.5 0.2-0.3 0.1-0.6 0.1-0.3 0.1-0.5 0.1-0.3 0.1-0.6 0.1c-1.9 0.3-4.6 0.1-7.5 0.3q-0.6 0-1.1 0.1-0.5 0-1 0.1-0.5 0.1-1 0.3-0.5 0.1-0.9 0.2-0.4 0.2-0.8 0.4-0.4 0.1-0.7 0.3-0.4 0.2-0.7 0.5-0.4 0.2-0.7 0.5-0.3 0.2-0.5 0.5-0.3 0.3-0.5 0.6-0.3 0.3-0.5 0.6-0.2 0.4-0.4 0.7 0-0.1 0.1-0.2 0-0.1 0-0.2 0-0.1 0.1-0.2 0-0.1 0.1-0.2 0.1-0.3 0.3-0.5 0.1-0.3 0.3-0.5 0.2-0.2 0.4-0.5 0.1-0.2 0.4-0.4 0.3-0.3 0.6-0.5 0.4-0.3 0.7-0.5 0.4-0.3 0.8-0.5 0.4-0.1 0.8-0.3 0.5-0.2 1-0.3 0.5-0.2 1-0.3 0.5-0.1 1.1-0.1 0.5-0.1 1-0.1c3-0.2 5.6 0 7.5-0.2 1.9-0.1 3.1-0.5 3.1-0.4z"/>
		<path id="Layer" class="s9" d="m313.6 99.6q-0.1 0.1-0.1 0.2-0.1 0.1-0.1 0.2-0.1 0.1-0.1 0.2-0.1 0.1-0.2 0.2-0.2 0.3-0.4 0.5-0.2 0.2-0.5 0.4-0.3 0.2-0.5 0.3-0.3 0.2-0.6 0.3-0.4 0.2-0.9 0.3-0.4 0.1-0.9 0.2-0.4 0.1-0.9 0.1-0.4 0.1-0.9 0.1-0.6 0.1-1.1 0.1-0.6 0.1-1.1 0.1-0.6 0.1-1.1 0.2-0.6 0.1-1.1 0.2-1 0.2-2 0.4-1 0.3-1.9 0.6-1 0.3-1.9 0.6-1 0.4-1.9 0.8c-1.9 0.8-3 1.5-3 1.4q0.1-0.1 0.2-0.1 0.1-0.1 0.2-0.2 0 0 0.1-0.1 0.1-0.1 0.2-0.1 0.3-0.2 0.6-0.3 0.2-0.2 0.5-0.3 0.3-0.2 0.5-0.3 0.3-0.2 0.6-0.3 0.9-0.5 1.9-0.9 0.9-0.4 1.9-0.7 0.9-0.3 1.9-0.6 1-0.2 2-0.4c3.2-0.7 6.1-0.4 8-1.2q0.4-0.1 0.8-0.3 0.3-0.2 0.6-0.4 0.3-0.3 0.6-0.6 0.3-0.3 0.5-0.6z"/>
	</g>
	<g id="freepik--Plant--inject-7">
		<path id="Layer" class="s1" d="m66.4 0.2q1.5 0.1 3 0.5 1.5 0.5 2.9 1.2 1.3 0.7 2.5 1.6 1.2 1 2.2 2.2 1 1.2 1.8 2.5 0.8 1.3 1.5 2.7 0.6 1.3 1.1 2.8 0.6 1.4 0.9 2.9c2 7.6 0.6 16.6-1.6 24.2-8.2-3-13.2-11.9-15.5-16.5-3.6-7.4-5.6-22.8 1.3-24.1"/>
		<path id="Layer" class="s1" d="m92.4 50.1q-0.9-1.4-1.4-3.1-0.5-1.6-0.6-3.3 0-1.7 0.4-3.4 0.3-1.7 1.1-3.2 0.9-1.5 2-2.8 1.1-1.3 2.4-2.3 1.4-1.1 2.9-1.9 1.5-0.8 3.2-1.2c2-0.6 4.3-0.9 6.1 0.3q0.6 0.5 1 1.1 0.5 0.6 0.7 1.3 0.3 0.6 0.4 1.4 0.1 0.7 0 1.4-0.2 0.8-0.4 1.5-0.2 0.7-0.5 1.4-0.3 0.6-0.7 1.3-0.4 0.6-0.8 1.1c-4.1 5.4-9.1 9.9-15.8 10.4z"/>
		<g id="Layer" style="opacity: .3">
			<path id="Layer" class="s5" d="m92.4 50.1q-0.9-1.4-1.4-3.1-0.5-1.6-0.6-3.3 0-1.7 0.4-3.4 0.3-1.7 1.1-3.2 0.9-1.5 2-2.8 1.1-1.3 2.4-2.3 1.4-1.1 2.9-1.9 1.5-0.8 3.2-1.2c2-0.6 4.3-0.9 6.1 0.3q0.6 0.5 1 1.1 0.5 0.6 0.7 1.3 0.3 0.6 0.4 1.4 0.1 0.7 0 1.4-0.2 0.8-0.4 1.5-0.2 0.7-0.5 1.4-0.3 0.6-0.7 1.3-0.4 0.6-0.8 1.1c-4.1 5.4-9.1 9.9-15.8 10.4z"/>
		</g>
		<path id="Layer" class="s1" d="m83.7 58.2q-2-3-4.5-5.6-2.6-2.5-5.7-4.3-3.1-1.9-6.6-2.9-3.5-1.1-7.1-1.3c-2.4-0.1-5.3 0.3-6.4 2.6-1 2.2 0.5 4.7 2.2 6.5 1.8 1.8 3.8 3.3 6.1 4.5 2.2 1.2 4.6 2.1 7.1 2.6 2.5 0.5 5.1 0.6 7.6 0.4 2.5-0.3 5-0.9 7.4-1.8"/>
		<g id="Layer" style="opacity: .3">
			<path id="Layer" class="s5" d="m83.7 58.2q-2-3-4.5-5.6-2.6-2.5-5.7-4.3-3.1-1.9-6.6-2.9-3.5-1.1-7.1-1.3c-2.4-0.1-5.3 0.3-6.4 2.6-1 2.2 0.5 4.7 2.2 6.5 1.8 1.8 3.8 3.3 6.1 4.5 2.2 1.2 4.6 2.1 7.1 2.6 2.5 0.5 5.1 0.6 7.6 0.4 2.5-0.3 5-0.9 7.4-1.8"/>
		</g>
		<path id="Layer" class="s0" d="m92.5 76.3q-0.1-0.2-0.1-0.4-0.1-0.2-0.1-0.4 0-0.2-0.1-0.4 0-0.2 0-0.4c-0.2-1-0.5-2.6-0.7-4.4q-0.3-1.9-0.5-3.7-0.1-1.9-0.2-3.8 0-1.8 0.1-3.7 0.1-1.8 0.3-3.7 0.2-1.9 0.6-3.7 0.5-1.8 1.2-3.5 0.7-1.8 1.6-3.4 0.9-1.6 2.1-3.1 0.3-0.5 0.7-0.9 0.4-0.4 0.8-0.8 0.4-0.4 0.8-0.8 0.4-0.4 0.8-0.7 0.2-0.1 0.3-0.2 0.1-0.1 0.2-0.2 0.2-0.1 0.3-0.2 0.1 0 0.2-0.1 0.1-0.1 0.1-0.1 0.1 0 0.1 0 0.1-0.1 0.1-0.1 0.1 0 0.1 0-0.6 0.4-1.1 1-0.6 0.5-1.1 1-0.6 0.6-1.1 1.1-0.5 0.6-1 1.2-1 1.5-1.9 3.1-0.9 1.6-1.6 3.4-0.6 1.7-1.1 3.5-0.4 1.8-0.6 3.6-0.2 1.8-0.3 3.7-0.1 1.8-0.1 3.7 0.1 1.8 0.2 3.6 0.1 1.9 0.4 3.7c0.2 1.8 0.3 3.3 0.5 4.5q0 0.2 0 0.4 0.1 0.2 0.1 0.4 0 0.2 0 0.4 0 0.2 0 0.4z"/>
		<path id="Layer" class="s0" d="m69 11.8q0 0.1 0.1 0.2 0 0 0.1 0.1 0 0.1 0 0.2 0.1 0.1 0.1 0.1 0.3 0.7 0.8 1.9c0.8 1.6 1.8 3.9 3 6.8 2.4 5.8 5.7 13.9 9.1 22.8 3.3 9 6.2 17.2 8.2 23.2 1 3 1.8 5.3 2.4 7q0.3 1.2 0.6 2 0 0 0 0.1 0 0.1 0.1 0.2 0 0.1 0 0.2 0 0.1 0 0.1 0 0 0-0.1-0.1-0.1-0.1-0.2-0.1-0.1-0.1-0.1 0-0.1 0-0.2-0.3-0.7-0.7-1.9c-0.6-1.7-1.5-4.1-2.5-7-2.1-5.9-5-14.1-8.4-23.1-3.4-8.9-6.6-17-9-22.8l-2.7-6.9q-0.5-1.2-0.8-1.9 0-0.1 0-0.2-0.1-0.1-0.1-0.1 0-0.1-0.1-0.2 0-0.1 0-0.2z"/>
		<path id="Layer" class="s0" d="m63.7 50.4q0.2 0 0.4 0 0.2 0 0.4 0 0.2 0 0.4 0.1 0.2 0 0.4 0 0.3 0 0.5 0 0.2 0.1 0.4 0.1 0.3 0 0.5 0.1 0.2 0 0.4 0.1 0.4 0 0.7 0.1 0.3 0 0.6 0.1 0.3 0.1 0.6 0.1 0.3 0.1 0.6 0.2l1.3 0.4c0.5 0.1 1 0.3 1.5 0.5q0.4 0.1 0.8 0.3 0.4 0.1 0.8 0.3 0.4 0.2 0.8 0.4 0.4 0.1 0.8 0.3 1.7 0.9 3.4 1.9 1.7 1.1 3.2 2.3 1.5 1.3 2.9 2.7 1.4 1.4 2.6 3c0.7 0.9 1.4 1.8 2 2.8 0.2 0.4 0.5 0.9 0.8 1.3l0.6 1.3c0.5 0.8 0.7 1.6 1 2.2q0.1 0.2 0.2 0.4 0.1 0.3 0.2 0.5 0 0.2 0.1 0.4 0.1 0.2 0.1 0.5 0.1 0.2 0.2 0.3 0 0.2 0.1 0.4 0 0.2 0.1 0.4 0 0.2 0.1 0.4c-0.2 0-0.7-2.1-2.4-5.3q-0.3-0.7-0.7-1.3c-0.2-0.4-0.5-0.8-0.8-1.3q-0.2-0.3-0.5-0.7-0.2-0.4-0.5-0.7-0.2-0.3-0.5-0.7-0.2-0.3-0.5-0.6-1.2-1.6-2.6-2.9-1.3-1.4-2.9-2.7-1.5-1.2-3.1-2.2-1.6-1.1-3.4-1.9c-1-0.5-2-1-3.1-1.4-0.4-0.2-1-0.4-1.4-0.5l-1.3-0.5c-3.5-0.9-5.8-1.1-5.8-1.2z"/>
		<path id="Layer" class="s1" d="m76.8 68.9h29.7v17.4c0 1.6-0.3 3.2-1 4.7-0.6 1.5-1.5 2.8-2.6 4-1.2 1.1-2.5 2-4 2.6-1.5 0.7-3.1 1-4.7 1h-5.1c-1.6 0-3.2-0.3-4.7-1-1.5-0.6-2.8-1.5-4-2.6-1.1-1.2-2-2.5-2.6-4-0.6-1.5-0.9-3.1-0.9-4.7z"/>
		<path id="Layer" class="s2" d="m76.8 68.9h29.7v17.4c0 1.6-0.3 3.2-1 4.7-0.6 1.5-1.5 2.8-2.6 4-1.2 1.1-2.5 2-4 2.6-1.5 0.7-3.1 1-4.7 1h-5.1c-1.6 0-3.2-0.3-4.7-1-1.5-0.6-2.8-1.5-4-2.6-1.1-1.2-2-2.5-2.6-4-0.6-1.5-0.9-3.1-0.9-4.7z"/>
		<path id="Layer" class="s9" d="m96.9 69q-0.1 0.1-0.1 0.2 0 0.1-0.1 0.3 0 0.1-0.1 0.2 0 0.1-0.1 0.2-0.1 0.3-0.3 0.6-0.1 0.2-0.3 0.5-0.1 0.3-0.3 0.6-0.2 0.2-0.4 0.5-1.2 1.7-2.8 3.1-1.7 1.4-3.6 2.4-1.9 0.9-3.9 1.4-2.1 0.5-4.3 0.5-0.3 0-0.6 0-0.3 0-0.6 0-0.3-0.1-0.7-0.1-0.3-0.1-0.6-0.1-0.1 0-0.2 0-0.2-0.1-0.3-0.1-0.1 0-0.2-0.1-0.1 0-0.2-0.1c0 0 1.3 0.2 3.4 0.1q2.1 0 4.1-0.5 2-0.5 3.9-1.5 1.9-0.9 3.5-2.3 1.6-1.3 2.8-2.9c1.3-1.7 1.9-2.9 2-2.9z"/>
		<path id="Layer" class="s9" d="m106.2 89q-0.1 0-0.3 0-0.1 0-0.2-0.1-0.1 0-0.3 0-0.1-0.1-0.2-0.1-0.3-0.1-0.6-0.2-0.3-0.1-0.7-0.3-0.3-0.1-0.6-0.3-0.3-0.1-0.5-0.3c-1.3-0.8-2.5-1.7-3.4-2.9-1-1.1-1.7-2.4-2.2-3.8-0.5-1.5-0.7-2.9-0.7-4.4 0.1-1.5 0.4-3 0.9-4.4q0.1-0.3 0.3-0.6 0.1-0.3 0.3-0.6 0.1-0.3 0.3-0.6 0.2-0.3 0.4-0.5 0-0.1 0.1-0.2 0.1-0.1 0.1-0.2 0.1-0.1 0.2-0.2 0.1-0.1 0.2-0.2-0.2 0.4-0.4 0.8-0.2 0.4-0.4 0.8-0.2 0.4-0.4 0.8-0.2 0.4-0.3 0.9-0.8 2-0.8 4.2 0 2.1 0.7 4.2 0.7 2 2.1 3.7 1.3 1.7 3.2 2.9 0.4 0.2 0.7 0.4 0.4 0.2 0.9 0.4 0.4 0.2 0.8 0.4 0.4 0.2 0.8 0.4z"/>
		<path id="Layer" class="s9" d="m98.6 97.8q0-0.6 0-1.1-0.1-0.6-0.2-1.1 0-0.6-0.2-1.1-0.1-0.6-0.2-1.1-0.2-0.6-0.4-1.1-0.3-0.6-0.5-1.1-0.3-0.6-0.6-1.1-0.4-0.5-0.7-0.9-0.5-0.6-1-1.1-0.5-0.6-1-1-0.6-0.5-1.2-0.9-0.6-0.5-1.2-0.8-1.2-0.7-2.4-1.2-1.3-0.4-2.6-0.7-1.3-0.2-2.6-0.3-1.4 0-2.7 0.2-0.5 0.1-1.1 0.2-0.5 0.1-1.1 0.2-0.5 0.1-1.1 0.3-0.5 0.1-1 0.3 0.1-0.1 0.2-0.2 0.2-0.1 0.3-0.1 0.1-0.1 0.3-0.1 0.1-0.1 0.3-0.1 0.4-0.2 0.8-0.3 0.3-0.1 0.7-0.2 0.4-0.1 0.9-0.2 0.4-0.1 0.8-0.2 1.3-0.2 2.7-0.2 1.4 0.1 2.7 0.3 1.4 0.2 2.7 0.7 1.3 0.5 2.5 1.1 0.6 0.4 1.2 0.9 0.6 0.4 1.2 0.9 0.6 0.5 1.1 1.1 0.5 0.5 1 1.1 0.3 0.5 0.7 1.1 0.3 0.5 0.6 1 0.2 0.6 0.5 1.2 0.2 0.5 0.3 1.1 0.2 0.4 0.2 0.8 0.1 0.5 0.2 0.9 0 0.4 0 0.8 0.1 0.4 0.1 0.8 0 0.2-0.1 0.3 0 0.2 0 0.3 0 0.1 0 0.3-0.1 0.1-0.1 0.3z"/>
	</g>
	<g id="freepik--filing-cabinet--inject-7">
		<path id="Layer" class="s0" d="m9.6 98.6h93.2v270.7h-93.2z"/>
		<path id="Layer" class="s4" d="m50.8 98.6h102.1v270.7h-102.1z"/>
		<path id="Layer" class="s4" d="m57.3 175.4h91v55.9h-91z"/>
		<path id="Layer" class="s0" d="m88 307.4h31.2v1.4q0 0.4-0.2 0.8-0.1 0.4-0.4 0.8-0.4 0.3-0.8 0.4-0.4 0.2-0.8 0.2h-26.8q-0.5 0-0.9-0.2-0.4-0.1-0.7-0.4-0.3-0.3-0.4-0.7-0.2-0.4-0.2-0.8v-1.5z"/>
		<path id="Layer" class="s0" d="m148.1 307.4q0 0 0 1 0 1 0 2.9c0 2.6 0 6.3 0 11.2 0 9.7 0.1 23.7 0.2 40.8v0.2h-0.2l-91 0.1h-0.4v-0.3c0-19.8 0-38.6 0-55.8v-0.2h0.3 65.6 18.8 5 1.3 0.4-0.5-1.3-5l-18.8 0.1-65.5 0.2 0.3-0.3c0 17.2 0 36 0 55.8l-0.3-0.2h91l-0.2 0.2c0-17 0.1-31 0.1-40.7 0-4.8 0-8.6 0.1-11.2q0-1.9 0-2.9c0.1-0.6 0.1-0.9 0.1-0.9z"/>
		<path id="Layer" class="s12" d="m90.9 321h27.1v7.4h-27.1z"/>
		<path id="Layer" class="s4" d="m57.3 237.6h91v55.9h-91z"/>
		<path id="Layer" class="s0" d="m87.9 244.9h31.2v1.4q-0.1 0.4-0.2 0.8-0.2 0.4-0.5 0.7-0.3 0.3-0.7 0.5-0.4 0.1-0.8 0.1h-26.9q-0.4 0-0.8-0.1-0.4-0.2-0.7-0.5-0.3-0.3-0.5-0.7-0.1-0.4-0.2-0.8v-1.4z"/>
		<path id="Layer" class="s0" d="m149 244.9q0 0 0 1 0 1 0 2.9c0 2.5 0 6.3 0.1 11.1 0 9.8 0 23.8 0.1 40.9v0.2h-0.2-91-0.3v-0.3c0-19.7 0-38.6 0-55.8v-0.2h0.2 65.7l18.7 0.1h5 1.3 0.4-0.4-1.4-5l-18.8 0.1-65.5 0.2 0.3-0.3c0 17.2 0 36 0 55.8l-0.3-0.2h91l-0.2 0.2c0.1-17.1 0.1-31 0.1-40.7 0-4.9 0-8.6 0-11.2q0-1.9 0-3c0.2-0.5 0.2-0.8 0.2-0.8z"/>
		<path id="Layer" class="s12" d="m89.9 258.1h27.1v7.3h-27.1z"/>
		<path id="Layer" class="s0" d="m88.2 106h31.2v1.4q0 0.4-0.2 0.8-0.1 0.4-0.4 0.7-0.4 0.3-0.7 0.5-0.4 0.2-0.9 0.2h-26.8q-0.5 0-0.9-0.2-0.4-0.2-0.7-0.5-0.3-0.3-0.4-0.7-0.2-0.4-0.2-0.8z"/>
		<path id="Layer" class="s0" d="m148.3 106q0 0 0 1 0 1 0 2.9c0 2.6 0 6.3 0.1 11.2 0 9.7 0.1 23.7 0.1 40.8v0.2h-0.2l-91 0.1h-0.3v-0.3c0-19.8 0-38.6 0-55.8v-0.2h0.2 65.7 18.7 5 1.3 0.4-0.4-1.3-5l-18.8 0.1-65.5 0.2 0.2-0.3c0 17.2 0 36 0 55.9l-0.2-0.3 91 0.1-0.2 0.2c0-17.1 0.1-31 0.1-40.8 0-4.8 0-8.6 0-11.2q0-1.9 0-2.9c0-0.7 0.1-0.9 0.1-0.9z"/>
		<path id="Layer" class="s12" d="m89.8 117.9h27.1v7.3h-27.1z"/>
		<path id="Layer" class="s1" d="m57.6 193.5v-21q0-0.6 0.3-1.2 0.2-0.6 0.7-1.1 0.4-0.4 1-0.7 0.6-0.2 1.3-0.3h55.9q0.7 0.1 1.3 0.3 0.6 0.2 1 0.7 0.5 0.5 0.7 1 0.3 0.6 0.3 1.3v21z"/>
		<path id="Layer" class="s2" d="m57.6 193.5v-21q0-0.6 0.3-1.2 0.2-0.6 0.7-1.1 0.4-0.4 1-0.7 0.6-0.2 1.3-0.3h55.9q0.7 0.1 1.3 0.3 0.6 0.2 1 0.7 0.5 0.5 0.7 1 0.3 0.6 0.3 1.3v21z"/>
		<path id="Layer" class="s9" d="m63.3 193.5v-18.4q0-0.1 0.1-0.2 0 0 0-0.1 0.1 0 0.1 0 0.1-0.1 0.2-0.1h56.4v18.8z"/>
		<path id="Layer" class="s1" d="m132.8 171.2l-1.6 22.3h-60.7l1.6-20.7c0.1-2 1.5-3.5 3.2-3.5l29.5 0.1q0-0.4 0.1-0.8 0.1-0.4 0.4-0.8 0.3-0.3 0.7-0.5 0.4-0.3 0.8-0.3h22.8c1.9 0 3.3 1.9 3.2 4.2z"/>
		<path id="Layer" class="s1" d="m82.5 191.4v-21q0-0.7 0.2-1.3 0.3-0.6 0.7-1.1 0.5-0.4 1.1-0.7 0.6-0.2 1.3-0.2h55.9q0.7 0 1.2 0.2 0.6 0.3 1.1 0.7 0.4 0.5 0.7 1.1 0.2 0.6 0.2 1.2v21.1z"/>
		<path id="Layer" class="s2" d="m82.5 191.4v-21q0-0.7 0.2-1.3 0.3-0.6 0.7-1.1 0.5-0.4 1.1-0.7 0.6-0.2 1.3-0.2h55.9q0.7 0 1.2 0.2 0.6 0.3 1.1 0.7 0.4 0.5 0.7 1.1 0.2 0.6 0.2 1.2v21.1z"/>
		<path id="Layer" class="s9" d="m88.2 191.4v-18.5q0-0.1 0-0.1 0.1-0.1 0.1-0.1 0-0.1 0.1-0.1 0.1 0 0.1 0h56.4v18.8z"/>
		<path id="Layer" class="s1" d="m157.7 169l-1.7 22.4h-60.7l1.7-20.8q0-0.6 0.2-1.3 0.3-0.6 0.7-1.1 0.5-0.4 1-0.7 0.6-0.3 1.3-0.4l29.5 0.2q0-0.5 0.1-0.9 0.1-0.4 0.4-0.8 0.3-0.3 0.7-0.5 0.4-0.2 0.8-0.3h22.8c1.8 0 3.3 2 3.2 4.2z"/>
		<path id="Layer" class="s1" d="m117.1 192.6v-21q0-0.7 0.2-1.3 0.3-0.6 0.7-1.1 0.5-0.4 1.1-0.7 0.6-0.2 1.3-0.2h55.9q0.6 0 1.2 0.2 0.6 0.3 1.1 0.7 0.4 0.5 0.7 1.1 0.2 0.6 0.2 1.2v21.1z"/>
		<path id="Layer" class="s2" d="m117.1 192.6v-21q0-0.7 0.2-1.3 0.3-0.6 0.7-1.1 0.5-0.4 1.1-0.7 0.6-0.2 1.3-0.2h55.9q0.6 0 1.2 0.2 0.6 0.3 1.1 0.7 0.4 0.5 0.7 1.1 0.2 0.6 0.2 1.2v21.1z"/>
		<path id="Layer" class="s9" d="m122.8 192.6v-18.5q0-0.1 0-0.1 0.1-0.1 0.1-0.1 0-0.1 0.1-0.1 0.1 0 0.1 0h56.4v18.8z"/>
		<path id="Layer" class="s12" d="m125.7 169h57.2v33.5h-57.3z"/>
		<path id="Layer" class="s3" d="m129.9 154.1h57.7v35.7h-57.7z"/>
		<path id="Layer" class="s0" d="m140.4 187.6c-0.1 0-0.2-6.2-0.2-13.8 0-7.7 0.1-13.8 0.2-13.8 0.2 0 0.3 6.1 0.3 13.8 0 7.6-0.1 13.8-0.3 13.8z"/>
		<path id="Layer" class="s0" d="m144.5 187.6c-0.1 0-0.2-6.2-0.2-13.8 0-7.7 0.1-13.8 0.2-13.8 0.2 0 0.3 6.1 0.3 13.8 0 7.6-0.1 13.8-0.3 13.8z"/>
		<path id="Layer" class="s0" d="m149 187.6c-0.2 0-0.3-6.2-0.3-13.8 0-7.7 0.2-13.8 0.3-13.8 0.1 0 0.3 6.1 0.3 13.8 0 7.6-0.2 13.8-0.3 13.8z"/>
		<path id="Layer" class="s0" d="m153.4 187.6c-0.1 0-0.2-6.2-0.2-13.8 0-7.7 0.1-13.8 0.2-13.8 0.2 0 0.3 6.1 0.3 13.8 0 7.6-0.1 13.8-0.3 13.8z"/>
		<path id="Layer" class="s0" d="m157.9 187.6c-0.1 0-0.3-6.2-0.3-13.8 0-7.7 0.2-13.8 0.3-13.8 0.1 0 0.3 6.1 0.3 13.8 0 7.6-0.1 13.8-0.3 13.8z"/>
		<path id="Layer" class="s0" d="m162.4 187.6c-0.2 0-0.3-6.2-0.3-13.8 0-7.7 0.1-13.8 0.3-13.8 0.1 0 0.2 6.1 0.2 13.8 0 7.6-0.1 13.8-0.2 13.8z"/>
		<path id="Layer" class="s0" d="m166.8 187.6c-0.1 0-0.2-6.2-0.2-13.8 0-7.7 0.1-13.8 0.2-13.8 0.2 0 0.3 6.1 0.3 13.8 0 7.6-0.1 13.8-0.3 13.8z"/>
		<path id="Layer" class="s0" d="m171.3 187.6c-0.1 0-0.3-6.2-0.3-13.8 0-7.7 0.2-13.8 0.3-13.8 0.1 0 0.3 6.1 0.3 13.8 0 7.6-0.2 13.8-0.3 13.8z"/>
		<path id="Layer" class="s0" d="m175.8 187.6c-0.2 0-0.3-6.2-0.3-13.8 0-7.7 0.1-13.8 0.3-13.8 0.1 0 0.2 6.1 0.2 13.8 0 7.6-0.1 13.8-0.2 13.8z"/>
		<path id="Layer" class="s0" d="m180.2 187.6c-0.1 0-0.2-6.2-0.2-13.8 0-7.7 0.1-13.8 0.2-13.8 0.2 0 0.3 6.1 0.3 13.8 0 7.6-0.1 13.8-0.3 13.8z"/>
		<path id="Layer" class="s1" d="m192.2 174.2l-1.6 18.4h-60.7l1.6-17.1q0.1-0.6 0.4-1.1 0.2-0.6 0.7-1 0.4-0.4 1-0.6 0.5-0.2 1.1-0.2l29.6 0.1q0-0.4 0.1-0.7 0.2-0.4 0.5-0.7 0.2-0.3 0.6-0.4 0.4-0.2 0.8-0.2h22.7q0.7 0 1.3 0.3 0.6 0.3 1.1 0.8 0.5 0.4 0.7 1.1 0.2 0.6 0.1 1.3z"/>
		<path id="Layer" class="s0" d="m57.1 182.4h91v55.8h-91z"/>
		<path id="Layer" class="s4" d="m112.2 182.4h91v55.8h-91z"/>
		<path id="Layer" class="s0" d="m203.2 238q0 0 0-1c0-0.6 0-1.6 0-2.9 0-2.6 0-6.3 0-11.1 0-9.7-0.1-23.5-0.1-40.5l0.2 0.2-91 0.1 0.2-0.3c0 19.7 0 38.4 0 55.5l-0.2-0.2 65.4 0.1h18.8 5 1.3 0.5-0.4-1.3-5l-18.8 0.1-65.6 0.1h-0.2v-0.1c0-17.1 0-35.8 0-55.5v-0.2h0.3 91 0.2v0.2c0 17-0.1 30.9-0.1 40.6 0 4.8 0 8.5-0.1 11q0 1.9 0 2.9c-0.1 0.6-0.1 1-0.1 1z"/>
		<path id="Layer" class="s0" d="m144.9 182.4h31.2v1.2q0 0.4-0.2 0.8-0.1 0.4-0.4 0.7-0.3 0.3-0.7 0.5-0.4 0.1-0.9 0.1h-26.8q-0.5 0-0.9-0.1-0.3-0.2-0.7-0.5-0.3-0.3-0.4-0.7-0.2-0.4-0.2-0.8z"/>
		<path id="Layer" class="s12" d="m147.5 194.9h27.1v7.3h-27.1z"/>
		<path id="Layer" class="s7" d="m173.5 147.5q-0.3 1.3-0.6 2.7-0.2 1.3-0.4 2.6-0.2 1.3-0.3 2.7-0.1 1.3-0.2 2.7c0 0.4 0 1 0.4 1.2 0.4 0.3 1-0.4 1.3-0.8 0.7-0.8 3-4.9 3-4.9q1.3-0.1 2.4-0.6 1.1-0.6 2-1.5 0.8-0.9 1.3-2 0.5-1.2 0.5-2.4"/>
		<path id="Layer" class="s8" d="m182.9 147.2q0 0.1 0 0.1 0 0.1 0 0.2 0 0.1 0 0.2 0 0.1 0 0.2-0.1 0.3-0.1 0.5 0 0.3-0.1 0.5-0.1 0.3-0.2 0.5 0 0.3-0.1 0.5-0.2 0.4-0.4 0.7-0.2 0.4-0.5 0.7-0.2 0.3-0.5 0.6-0.2 0.3-0.6 0.5-0.4 0.3-0.8 0.6-0.4 0.3-0.9 0.5-0.5 0.2-1 0.3-0.5 0.1-1 0.2l0.2-0.1c-0.8 1.3-1.6 2.7-2.5 4.1-0.2 0.2-0.3 0.5-0.5 0.7-0.2 0.2-0.3 0.3-0.5 0.6q-0.1 0-0.1 0.1-0.1 0.1-0.2 0.1-0.1 0.1-0.2 0.1-0.1 0.1-0.2 0.1-0.2 0-0.3 0-0.1 0-0.2-0.1-0.2-0.1-0.2-0.2-0.1-0.1-0.2-0.2 0-0.2-0.1-0.4 0-0.1 0-0.3 0-0.2 0-0.4 0-0.2 0-0.4c0-0.5 0.1-0.9 0.1-1.3q0.1-0.6 0.1-1.2 0.1-0.6 0.2-1.2 0-0.6 0.1-1.2 0.1-0.5 0.2-1.1c0.3-1.3 0.5-2.4 0.7-3.1q0.1-0.1 0.1-0.3 0-0.1 0.1-0.3 0-0.1 0.1-0.2 0-0.2 0.1-0.3 0 0.2 0 0.3 0 0.1-0.1 0.3 0 0.1 0 0.3 0 0.1-0.1 0.2c-0.1 0.8-0.3 1.8-0.5 3.2-0.2 1.3-0.4 2.8-0.5 4.6l-0.1 1.3q0 0.2 0 0.3 0 0.2 0 0.4 0 0.1 0 0.3 0 0.1 0.1 0.3c0.1 0.1 0.2 0.2 0.3 0.2q0 0 0.1 0 0.1-0.1 0.1-0.1 0.1-0.1 0.1-0.1 0.1-0.1 0.1-0.1l0.5-0.6q0.1 0 0.1-0.1 0.1-0.1 0.1-0.2 0.1 0 0.1-0.1 0.1-0.1 0.1-0.2c1-1.4 1.8-2.8 2.6-4.1v-0.1h0.2q0.4 0 0.9-0.2 0.5-0.1 0.9-0.2 0.5-0.2 0.9-0.5 0.4-0.2 0.8-0.5 0.3-0.2 0.6-0.5 0.2-0.3 0.5-0.5 0.2-0.3 0.4-0.7 0.2-0.3 0.4-0.6 0.1-0.3 0.2-0.7 0.2-0.3 0.3-0.6 0.1-0.3 0.1-0.7 0.1-0.3 0.2-0.6z"/>
	</g>
</svg>