<svg width="500" height="500" viewBox="0 0 500 500" fill="none" xmlns="http://www.w3.org/2000/svg">
<path d="M271.16 378.75H167.01V459.08H271.16V378.75Z" fill="#EBEBEB"/>
<path d="M245.07 458.521C244.93 458.521 244.81 440.611 244.81 418.521C244.81 396.431 244.93 378.521 245.07 378.521C245.21 378.521 245.33 396.431 245.33 418.521C245.33 440.611 245.21 458.521 245.07 458.521Z" fill="#E0E0E0"/>
<path d="M262.33 440.8H254.35V449.83H262.33V440.8Z" fill="#FAFAFA"/>
<path d="M210.62 378.96H198.79V396.1H210.62V378.96Z" fill="#E0E0E0"/>
<path d="M210.62 441.7H198.79V458.84H210.62V441.7Z" fill="#E0E0E0"/>
<path d="M460.15 358.61H328.82V459.9H460.15V358.61Z" fill="#EBEBEB"/>
<path d="M427.24 459.18C427.1 459.18 426.98 436.61 426.98 408.76C426.98 380.91 427.1 358.34 427.24 358.34C427.38 358.34 427.5 380.91 427.5 408.76C427.5 436.61 427.39 459.18 427.24 459.18Z" fill="#E0E0E0"/>
<path d="M449.01 436.84H438.94V448.22H449.01V436.84Z" fill="#FAFAFA"/>
<path d="M383.8 358.87H368.88V380.48H383.8V358.87Z" fill="#E0E0E0"/>
<path d="M383.8 437.98H368.88V459.59H383.8V437.98Z" fill="#E0E0E0"/>
<path d="M81.46 361.59C86.78 358.85 93.04 358.49 98.94 359.47C102.11 359.99 105.41 360.94 107.57 363.32C109.73 365.7 110.13 369.89 107.66 371.94C106.18 373.16 104.13 373.34 102.21 373.32C97.59 373.26 92.47 372.45 88.78 375.23C86.67 376.82 85.27 379.45 82.78 380.23C80.29 381.01 77.54 379.54 76.24 377.32C75.0373 375.005 74.7723 372.315 75.5 369.81C75.7944 368.074 76.4854 366.429 77.5191 365.003C78.5528 363.577 79.9014 362.409 81.46 361.59Z" fill="#EBEBEB"/>
<path d="M69.28 338.08C72.53 342.72 78.85 341.19 81.78 338.35C84.71 335.51 85.95 331.41 87.07 327.5C89.65 318.55 92.24 309.16 90.33 300.05C89.8701 297.288 88.6554 294.706 86.82 292.59C85.8908 291.551 84.7063 290.773 83.3837 290.333C82.0612 289.893 80.6466 289.806 79.28 290.08C76.09 290.92 74.11 294.08 72.68 297.01C68.4639 305.769 66.2569 315.359 66.22 325.08C66.22 329.61 66.73 334.35 69.28 338.08Z" fill="#EBEBEB"/>
<path d="M60.36 344.74C63.89 340.55 64.56 334.45 62.99 329.2C61.42 323.95 57.87 319.49 53.78 315.84C48.9696 311.561 43.3721 308.26 37.3 306.12C34.9466 305.169 32.4153 304.74 29.88 304.86C28.6153 304.932 27.3874 305.313 26.3033 305.968C25.2192 306.623 24.3117 307.534 23.66 308.62C21.92 311.93 23.59 315.94 25.39 319.22C28.5598 324.991 32.1776 330.505 36.21 335.71C39.46 339.89 43.21 344.02 48.12 345.91C53.03 347.8 58.21 347.58 60.83 344.15" fill="#EBEBEB"/>
<path d="M69.06 408.1C69.2337 407.412 69.3342 406.709 69.36 406C69.51 404.46 69.69 402.53 69.92 400.24C70.2067 397.407 70.6372 394.59 71.21 391.8C71.9614 388.389 72.9881 385.045 74.28 381.8C75.5471 378.576 77.2605 375.547 79.37 372.8C81.0946 370.566 83.2899 368.74 85.8 367.45C87.5071 366.608 89.3363 366.041 91.22 365.77C91.9291 365.742 92.6332 365.638 93.32 365.46C92.6122 365.382 91.8979 365.382 91.19 365.46C89.2338 365.607 87.32 366.105 85.54 366.93C82.8894 368.18 80.5651 370.029 78.75 372.33C76.5422 375.113 74.7625 378.211 73.47 381.52C72.1796 384.804 71.1759 388.193 70.47 391.65C69.926 394.475 69.5487 397.33 69.34 400.2C69.16 402.65 69.09 404.63 69.06 406C68.9863 406.698 68.9863 407.402 69.06 408.1Z" fill="#E0E0E0"/>
<path d="M69.46 403.68C69.5194 403.35 69.5395 403.015 69.52 402.68C69.52 401.94 69.52 401.01 69.52 399.88C69.52 397.45 69.52 393.93 69.64 389.59C69.86 380.91 70.64 371.59 72.05 358.4C73.42 346.01 75.25 331.6 77.19 322.23C77.6 320.1 78.02 318.18 78.42 316.5C78.82 314.82 79.11 313.36 79.42 312.19C79.73 311.02 79.9 310.19 80.08 309.47C80.1779 309.145 80.235 308.809 80.25 308.47C80.0994 308.762 79.9852 309.071 79.91 309.39C79.69 310.1 79.42 310.98 79.09 312.07C78.76 313.16 78.36 314.68 77.94 316.35C77.52 318.02 77.04 319.94 76.59 322.07C74.1878 333.152 72.3818 344.355 71.18 355.63C69.74 368.83 69.09 380.85 69.03 389.55C69.03 393.9 69.03 397.43 69.18 399.86C69.25 400.99 69.31 401.92 69.35 402.65C69.3452 402.997 69.3821 403.343 69.46 403.68Z" fill="#E0E0E0"/>
<path d="M69.52 380.5C69.5962 379.525 69.5962 378.546 69.52 377.57C69.41 375.69 69.15 372.98 68.62 369.65C67.9659 365.757 67.0912 361.904 66 358.11C64.7389 353.441 63.1242 348.875 61.17 344.45C57.8242 336.298 53.0227 328.823 47 322.39C45.955 321.286 44.8394 320.25 43.66 319.29C43.15 318.85 42.66 318.42 42.24 318.08L41 317.19C40.2217 316.596 39.3956 316.068 38.53 315.61C38.39 315.8 42.02 317.94 46.6 322.81C52.4258 329.303 57.0997 336.744 60.42 344.81C62.3405 349.206 63.9609 353.726 65.27 358.34C66.3697 362.099 67.2808 365.911 68 369.76C68.6 373.05 69 375.76 69.16 377.6C69.2028 378.575 69.3231 379.545 69.52 380.5Z" fill="#E0E0E0"/>
<path d="M45.56 417.86L47.88 449.69H88.77L91.09 417.86H45.56Z" fill="#EBEBEB"/>
<path d="M95.96 405.32H41.61V417.86H95.96V405.32Z" fill="#EBEBEB"/>
<path d="M41.61 448.47V451.94H44.17H95.07V448.47H41.61Z" fill="#E0E0E0"/>
<path d="M46.67 457.681L44.17 451.561H93.12L90.2 457.681H46.67Z" fill="#E0E0E0"/>
<path d="M90.33 428.261C90.2789 428.368 90.2151 428.469 90.14 428.561C89.98 428.771 89.77 429.041 89.53 429.371L87.15 432.371L87.04 432.511L86.94 432.371L81.09 424.281H81.42L75.66 432.431L75.48 432.691L75.28 432.451L68.45 424.321H68.84L68.47 424.801L62.36 432.451L62.15 432.711L61.97 432.441L56.2 424.291H56.54L49.44 432.371L49.32 432.521L49.22 432.351L47 428.671C46.76 428.271 46.58 427.941 46.43 427.671C46.3546 427.559 46.2941 427.438 46.25 427.311C46.3436 427.406 46.4243 427.514 46.49 427.631L47.12 428.581L49.45 432.251H49.23L56.23 424.071L56.4 423.861L56.56 424.081L62.38 432.201H62L68.09 424.531C68.22 424.371 68.35 424.211 68.46 424.061L68.66 423.811L68.86 424.051L75.67 432.201H75.29L81.11 424.091L81.28 423.851L81.44 424.091C83.75 427.381 85.71 430.171 87.17 432.271H86.96L89.44 429.271C89.71 428.961 89.93 428.711 90.1 428.501C90.1707 428.415 90.2476 428.335 90.33 428.261Z" fill="#F5F5F5"/>
<path d="M91.66 417.65C91.66 417.79 81.41 417.91 68.78 417.91C56.15 417.91 45.9 417.79 45.9 417.65C45.9 417.51 56.14 417.4 68.78 417.4C81.42 417.4 91.66 417.51 91.66 417.65Z" fill="#F5F5F5"/>
<path d="M378.422 56.8013L370.042 56.8467L370.268 98.5461L378.648 98.5007L378.422 56.8013Z" fill="#E0E0E0"/>
<path d="M319.144 56.9124L297.444 57.0298L297.569 80.0494L319.268 79.932L319.144 56.9124Z" fill="#EBEBEB"/>
<path d="M340.743 56.7957L319.043 56.9131L319.168 79.9327L340.867 79.8153L340.743 56.7957Z" fill="#F5F5F5"/>
<path d="M297.47 63.4C311.897 63.52 326.33 63.4533 340.77 63.2C340.831 63.2 340.89 63.1758 340.933 63.1326C340.976 63.0895 341 63.031 341 62.97C341 62.909 340.976 62.8505 340.933 62.8074C340.89 62.7642 340.831 62.74 340.77 62.74C326.35 62.66 311.89 62.74 297.47 63.01C297.426 63.0201 297.386 63.0448 297.358 63.0803C297.33 63.1157 297.314 63.1597 297.314 63.205C297.314 63.2503 297.33 63.2943 297.358 63.3297C297.386 63.3651 297.426 63.3899 297.47 63.4Z" fill="#E0E0E0"/>
<path d="M323.346 79.5494L283.917 79.7627L284.018 98.5224L323.448 98.3091L323.346 79.5494Z" fill="#EBEBEB"/>
<path d="M362.585 79.337L323.155 79.5503L323.257 98.31L362.686 98.0967L362.585 79.337Z" fill="#F5F5F5"/>
<path d="M283.94 85.0002C310.13 85.2902 336.41 85.0002 362.61 84.6102C362.671 84.6102 362.73 84.586 362.773 84.5429C362.816 84.4997 362.84 84.4412 362.84 84.3802C362.84 84.3192 362.816 84.2607 362.773 84.2176C362.73 84.1745 362.671 84.1502 362.61 84.1502C336.42 84.0102 310.13 84.0202 283.94 84.6002C283.887 84.6002 283.836 84.6213 283.799 84.6588C283.761 84.6963 283.74 84.7472 283.74 84.8002C283.74 84.8533 283.761 84.9042 283.799 84.9417C283.836 84.9792 283.887 85.0002 283.94 85.0002Z" fill="#E0E0E0"/>
<path d="M421.95 98.54H269.19V105.26H421.95V98.54Z" fill="#E0E0E0"/>
<path d="M300.4 101.77H294.2V124.7H300.4V101.77Z" fill="#E0E0E0"/>
<path d="M392.97 101.77H386.77V124.7H392.97V101.77Z" fill="#E0E0E0"/>
<path d="M386.598 41.2471L378.218 41.2925L378.528 98.6416L386.908 98.5963L386.598 41.2471Z" fill="#EBEBEB"/>
<path d="M399.685 51.9261L386.666 51.9966L386.917 98.4759L399.937 98.4055L399.685 51.9261Z" fill="#F5F5F5"/>
<path d="M399.6 60.9C395.272 61.2057 390.928 61.2057 386.6 60.9C390.928 60.6076 395.272 60.6076 399.6 60.9Z" fill="#E0E0E0"/>
<path d="M399.6 59.0003C397.437 59.2191 395.262 59.2926 393.09 59.2203C390.918 59.2923 388.743 59.2188 386.58 59.0003C390.908 58.6946 395.252 58.6946 399.58 59.0003H399.6Z" fill="#E0E0E0"/>
<path d="M399.6 91.4303C395.272 91.736 390.928 91.736 386.6 91.4303C390.928 91.1378 395.272 91.1378 399.6 91.4303Z" fill="#E0E0E0"/>
<path d="M399.6 89.4803C395.272 89.7727 390.928 89.7727 386.6 89.4803C390.928 89.1745 395.272 89.1745 399.6 89.4803Z" fill="#E0E0E0"/>
<path d="M393.3 85.22C393.18 85.22 393.08 80.53 393.08 74.75C393.08 68.97 393.18 64.27 393.3 64.27C393.42 64.27 393.53 68.96 393.53 74.75C393.53 80.54 393.43 85.22 393.3 85.22Z" fill="#E0E0E0"/>
<path d="M413.92 63.3604H399.75V98.4404H413.92V63.3604Z" fill="#EBEBEB"/>
<path d="M382.28 53.4704C383.611 53.4704 384.69 52.3914 384.69 51.0604C384.69 49.7294 383.611 48.6504 382.28 48.6504C380.949 48.6504 379.87 49.7294 379.87 51.0604C379.87 52.3914 380.949 53.4704 382.28 53.4704Z" fill="#E0E0E0"/>
<path d="M383.03 57.6899H381.54V91.8099H383.03V57.6899Z" fill="#E0E0E0"/>
<path d="M464.66 459.35C464.66 459.5 368.54 459.61 250.01 459.61C131.48 459.61 35.34 459.5 35.34 459.35C35.34 459.2 131.44 459.09 250.01 459.09C368.58 459.09 464.66 459.21 464.66 459.35Z" fill="#263238"/>
<path d="M149.21 92.3496C153.926 98.1207 156.479 105.357 156.43 112.81C156.38 117.03 155.6 121.68 158.06 125.11C159.92 127.71 163.32 129.02 164.83 131.84C166.65 135.23 165.1 139.52 166.22 143.2C167.8 148.42 173.92 150.61 177.55 154.68C179.097 156.479 180.18 158.631 180.703 160.946C181.226 163.261 181.173 165.669 180.55 167.96C179.889 170.24 178.693 172.33 177.061 174.055C175.43 175.781 173.41 177.092 171.17 177.88C168.778 178.823 166.11 178.779 163.75 177.76C161.3 176.54 159.75 174.03 158.55 171.58C156.14 166.76 134.97 140.71 133.77 135.45" fill="#263238"/>
<path d="M133.81 86.21C125.15 84.81 116.81 90.56 113.18 98.54C109.55 106.52 109.43 115.54 109.18 124.34C108.93 133.14 108.29 142.26 103.82 149.8C100.98 154.59 96.58 158.8 95.89 164.31C95.27 169.25 97.83 174.23 96.98 179.14C96.24 183.42 92.98 187.14 93.11 191.47C93.27 196.69 98.64 200.62 103.85 200.76C109.06 200.9 113.94 198.17 118.03 194.93C124.694 189.639 130.026 182.862 133.6 175.14" fill="#263238"/>
<path d="M119.56 106.85C119.288 104.671 119.456 102.461 120.055 100.348C120.654 98.2364 121.671 96.2661 123.046 94.5546C124.42 92.8431 126.125 91.4252 128.058 90.3851C129.992 89.345 132.114 88.7038 134.3 88.4998C143.03 87.6598 150.8 94.1698 152.11 102.85C153.26 110.46 154.24 118.14 154.21 120.93C154.1 129.34 149.21 132.61 147.21 133.6C146.491 133.858 145.747 134.042 144.99 134.15V134.21L146.85 143.87C147.7 150.2 144.17 155.87 137.85 156.76C131.53 157.65 126.56 152.82 125.59 146.49L119.56 106.85Z" fill="#FFBE9D"/>
<path d="M150.39 106.53C150.25 106.73 149.14 106.14 147.72 106.35C146.3 106.56 145.35 107.42 145.17 107.27C144.99 107.12 145.17 106.87 145.61 106.47C146.157 105.937 146.856 105.587 147.61 105.47C148.35 105.355 149.107 105.482 149.77 105.83C150.27 106.15 150.46 106.45 150.39 106.53Z" fill="#263238"/>
<path d="M137.73 109.61C137.59 109.81 136.48 109.21 135.05 109.42C133.62 109.63 132.69 110.5 132.51 110.35C132.33 110.2 132.51 109.94 132.95 109.55C133.497 109.017 134.196 108.668 134.95 108.55C135.691 108.444 136.446 108.574 137.11 108.92C137.6 109.23 137.8 109.52 137.73 109.61Z" fill="#263238"/>
<path d="M142.92 117.24C143.635 116.896 144.391 116.644 145.17 116.49C145.53 116.4 145.86 116.28 145.89 116.02C145.858 115.654 145.719 115.307 145.49 115.02L144 112.36C141.93 108.64 140.38 105.56 140.53 105.47C140.68 105.38 142.53 108.35 144.53 112.07C145.04 112.99 145.53 113.87 145.97 114.7C146.261 115.106 146.402 115.601 146.37 116.1C146.337 116.236 146.273 116.363 146.183 116.471C146.093 116.578 145.979 116.664 145.85 116.72C145.655 116.805 145.45 116.866 145.24 116.9C144.485 117.114 143.705 117.228 142.92 117.24Z" fill="#263238"/>
<path d="M144.91 134.16C144.91 134.16 139.48 135.41 132 132.28C132 132.28 135.23 139.23 145.42 136.76L144.91 134.16Z" fill="#EB996E"/>
<path d="M137 105.88C136.92 106.29 135.47 106.31 133.83 106.76C132.19 107.21 130.9 107.85 130.63 107.54C130.51 107.39 130.69 106.99 131.18 106.54C131.84 105.975 132.619 105.569 133.46 105.35C134.3 105.132 135.179 105.108 136.03 105.28C136.69 105.43 137 105.69 137 105.88Z" fill="#263238"/>
<path d="M149.22 103.38C149.02 103.74 147.99 103.55 146.81 103.7C145.63 103.85 144.66 104.24 144.38 103.93C144.26 103.78 144.38 103.44 144.76 103.07C145.284 102.605 145.943 102.318 146.64 102.25C147.329 102.167 148.027 102.296 148.64 102.62C149.12 102.89 149.31 103.2 149.22 103.38Z" fill="#263238"/>
<path d="M134.64 111.45C134.662 111.605 134.714 111.754 134.794 111.888C134.874 112.022 134.98 112.139 135.106 112.232C135.232 112.325 135.374 112.392 135.526 112.43C135.678 112.467 135.836 112.474 135.99 112.45C136.14 112.433 136.285 112.386 136.417 112.312C136.549 112.238 136.665 112.138 136.758 112.019C136.851 111.9 136.919 111.764 136.959 111.618C136.999 111.472 137.01 111.32 136.99 111.17C136.943 110.859 136.775 110.578 136.522 110.391C136.269 110.204 135.952 110.124 135.64 110.17C135.489 110.186 135.343 110.232 135.211 110.306C135.078 110.379 134.962 110.479 134.869 110.598C134.775 110.717 134.707 110.854 134.668 111.001C134.628 111.147 134.619 111.3 134.64 111.45Z" fill="#263238"/>
<path d="M147.25 108.72C147.297 109.031 147.465 109.311 147.718 109.499C147.971 109.686 148.288 109.766 148.6 109.72C148.75 109.703 148.895 109.656 149.027 109.582C149.159 109.508 149.275 109.408 149.368 109.289C149.461 109.17 149.529 109.034 149.569 108.888C149.609 108.742 149.62 108.59 149.6 108.44C149.553 108.129 149.385 107.848 149.132 107.661C148.879 107.474 148.562 107.394 148.25 107.44C148.099 107.456 147.953 107.502 147.821 107.576C147.688 107.649 147.572 107.749 147.479 107.868C147.385 107.987 147.317 108.124 147.278 108.271C147.238 108.417 147.229 108.57 147.25 108.72Z" fill="#263238"/>
<path d="M145.16 120C144.767 119.878 144.344 119.897 143.965 120.054C143.585 120.211 143.272 120.496 143.08 120.86C142.897 121.194 142.823 121.577 142.867 121.955C142.912 122.333 143.074 122.688 143.33 122.97C143.603 123.238 143.961 123.4 144.342 123.427C144.723 123.455 145.102 123.346 145.41 123.12C145.796 122.769 146.029 122.281 146.06 121.76C146.128 121.282 146.014 120.797 145.74 120.4C145.6 120.206 145.399 120.063 145.169 119.995C144.94 119.926 144.694 119.935 144.47 120.02" fill="#EB996E"/>
<path d="M151 95.9998C150.215 92.8315 148.256 90.0794 145.52 88.2998C143.28 86.682 140.62 85.7476 137.86 85.6098C135.083 85.4903 132.372 86.4755 130.32 88.3498C128.864 89.7932 128.031 91.7497 128 93.7998L128.16 92.3998C127.74 93.539 127.74 94.7907 128.16 95.9298C128.39 96.5398 128.67 97.1598 128.91 97.7698C129.626 99.5326 130.954 100.978 132.65 101.84C133.418 102.252 134.278 102.462 135.15 102.45C135.586 102.441 136.015 102.337 136.408 102.145C136.8 101.954 137.145 101.679 137.42 101.34C138.041 100.256 138.234 98.9787 137.96 97.7598C138.616 98.9643 139.553 99.9933 140.69 100.76C141.271 101.131 141.962 101.291 142.646 101.213C143.331 101.134 143.968 100.823 144.45 100.33C145.27 99.3298 144.95 97.7498 144.45 96.5098C145.224 97.6794 146.307 98.6108 147.58 99.1998C147.915 99.3919 148.286 99.5125 148.67 99.5538C149.054 99.5951 149.442 99.5563 149.81 99.4398C150.104 99.2939 150.362 99.0831 150.563 98.8232C150.763 98.5634 150.903 98.2614 150.97 97.9398C151.118 97.3027 151.129 96.6412 151 95.9998Z" fill="#263238"/>
<path d="M143.77 98.6597C143.68 98.6597 143.7 97.4697 143.31 95.6597C142.86 93.2546 141.651 91.057 139.86 89.3897C138.876 88.4946 137.688 87.8528 136.4 87.5197C135.345 87.2608 134.247 87.2335 133.18 87.4397C132.197 87.6695 131.258 88.0579 130.4 88.5897C130.4 88.5897 130.57 88.3397 131.01 88.0197C131.641 87.578 132.351 87.2591 133.1 87.0797C134.222 86.8172 135.388 86.8172 136.51 87.0797C137.892 87.4247 139.164 88.1126 140.21 89.0797C142.085 90.8157 143.31 93.1413 143.68 95.6697C143.799 96.4172 143.859 97.1728 143.86 97.9297C143.872 98.1764 143.842 98.4234 143.77 98.6597Z" fill="#455A64"/>
<path d="M235.87 215.25L197.42 200C197.42 200 177.73 174.17 178.14 173.67L164.31 188.81L184.41 216L231 226.92L239 224.7C237.24 216.21 235.87 215.25 235.87 215.25Z" fill="#FFBE9D"/>
<path d="M152.07 141.56L146.83 139.56L124.21 142.43V146.43L123.56 146.51C118.684 147.547 114.007 149.363 109.71 151.89C105.685 154.347 102.486 157.952 100.526 162.242C98.566 166.531 97.9335 171.308 98.71 175.96C99.63 181.68 101.41 188.63 104.85 192.65C111.42 200.34 117.42 190.84 117.42 190.84C117.42 190.84 121.54 200.24 121.3 204.69C121.1 208.42 119.46 216.18 118.93 218.6C118.908 218.697 118.906 218.797 118.925 218.894C118.943 218.992 118.981 219.085 119.036 219.167C119.091 219.249 119.162 219.319 119.246 219.373C119.329 219.427 119.422 219.463 119.52 219.48L167.24 228.31L167.47 216.64L165.95 168.64L163.8 150C163.8 150 163.87 141.1 152.07 141.56Z" fill="#EC8951"/>
<path d="M163.07 146.9L181.27 173.19L166.62 191.03L163.07 146.9Z" fill="#EC8951"/>
<path d="M167 202.22C166.935 201.656 166.911 201.087 166.93 200.52C166.93 199.34 166.93 197.79 166.87 195.9C166.781 190.827 166.418 185.763 165.78 180.73C165.03 174.83 163.88 169.56 163.01 165.73L161.95 161.23C161.796 160.686 161.683 160.131 161.61 159.57C161.837 160.089 162.018 160.628 162.15 161.18C162.46 162.18 162.88 163.75 163.36 165.65C164.651 170.584 165.633 175.594 166.3 180.65C166.943 185.704 167.257 190.795 167.24 195.89C167.24 197.89 167.19 199.43 167.13 200.52C167.135 201.089 167.092 201.658 167 202.22Z" fill="#263238"/>
<path d="M122.2 162.25C122.2 162.33 120.82 162.32 118.61 162.43C115.726 162.586 112.858 162.957 110.03 163.54C107.202 164.133 104.422 164.932 101.71 165.93C99.63 166.7 98.38 167.27 98.34 167.19C98.5963 166.989 98.879 166.824 99.18 166.7C99.73 166.4 100.55 166.02 101.58 165.59C106.976 163.362 112.743 162.167 118.58 162.07C119.7 162.07 120.58 162.07 121.23 162.13C121.558 162.119 121.885 162.16 122.2 162.25Z" fill="#FAFAFA"/>
<path d="M164.35 174.28C163.619 174.546 162.855 174.714 162.08 174.78C158.382 175.32 154.636 175.447 150.91 175.16C150.132 175.146 149.359 175.032 148.61 174.82C149.382 174.751 150.158 174.751 150.93 174.82C152.35 174.82 154.32 174.82 156.49 174.82C158.66 174.82 160.62 174.6 162.04 174.47C162.803 174.337 163.576 174.273 164.35 174.28Z" fill="#FAFAFA"/>
<path d="M172.7 162.39C171.598 163.664 170.277 164.73 168.8 165.54C167.406 166.483 165.85 167.16 164.21 167.54C164.15 167.4 166.21 166.54 168.53 165.06C170.85 163.58 172.6 162.27 172.7 162.39Z" fill="#FAFAFA"/>
<path d="M165.35 150.2C162.195 153.038 158.175 154.729 153.94 155C153.94 154.84 156.69 154.42 159.85 153.07C163.01 151.72 165.25 150.07 165.35 150.2Z" fill="#FAFAFA"/>
<path d="M166.34 194.64C166.046 194.838 165.731 195.002 165.4 195.13C164.77 195.43 163.86 195.8 162.7 196.23C159.686 197.313 156.575 198.103 153.41 198.59C150.245 199.078 147.04 199.256 143.84 199.12C142.61 199.07 141.62 198.98 140.94 198.89C140.584 198.866 140.232 198.802 139.89 198.7C139.89 198.61 141.41 198.7 143.89 198.76C150.248 198.819 156.574 197.847 162.62 195.88C164.9 195.13 166.31 194.56 166.34 194.64Z" fill="#FAFAFA"/>
<path d="M166.71 208.19C166.71 208.19 166.57 208.29 166.28 208.44L165 209C163.9 209.52 162.27 210.2 160.23 211C158.19 211.8 155.72 212.57 152.94 213.33C146.896 214.957 140.693 215.92 134.44 216.2C131.56 216.31 128.97 216.3 126.79 216.2C124.61 216.1 122.86 215.94 121.65 215.77L120.26 215.58C120.096 215.568 119.935 215.534 119.78 215.48C119.942 215.454 120.108 215.454 120.27 215.48L121.67 215.57C122.88 215.67 124.67 215.77 126.8 215.83C128.93 215.89 131.56 215.83 134.42 215.73C137.28 215.63 140.42 215.27 143.69 214.73C146.96 214.19 150.04 213.54 152.82 212.84C155.6 212.14 158.06 211.35 160.1 210.62C162.14 209.89 163.8 209.28 164.92 208.82L166.22 208.31C166.379 208.253 166.543 208.213 166.71 208.19Z" fill="#FAFAFA"/>
<path d="M79 420.78L73.59 445.21L63.72 463.3C63.5522 463.609 63.4495 463.949 63.4183 464.299C63.3871 464.649 63.4281 465.002 63.5387 465.336C63.6493 465.67 63.8271 465.977 64.0613 466.239C64.2954 466.501 64.5809 466.713 64.9 466.86C65.2704 467.03 65.6762 467.109 66.0834 467.09C66.4905 467.071 66.8871 466.954 67.24 466.75C71.82 464.11 88.63 454.28 88.92 452.47C89.27 450.38 96.34 427.08 96.34 427.08L79 420.78Z" fill="#EC8951"/>
<g opacity="0.6">
<path d="M64.9 466.859L89.33 450.859L89.07 451.859C88.8563 452.752 88.3316 453.539 87.59 454.079C85.59 455.509 80.02 459.349 67.32 466.769C66.9554 466.983 66.5436 467.103 66.1213 467.119C65.6991 467.134 65.2795 467.045 64.9 466.859Z" fill="white"/>
</g>
<g opacity="0.6">
<path d="M86.26 441.77C85.9072 441.917 85.6211 442.19 85.4569 442.535C85.2926 442.88 85.2616 443.274 85.37 443.64C85.5035 443.997 85.7686 444.289 86.1108 444.457C86.453 444.624 86.8464 444.654 87.21 444.54C87.5878 444.384 87.8936 444.092 88.0674 443.722C88.2413 443.352 88.2708 442.931 88.15 442.54C87.9729 442.186 87.6671 441.913 87.2952 441.778C86.9233 441.642 86.5135 441.654 86.15 441.81" fill="white"/>
</g>
<path d="M73.06 457.6C72.6566 456.7 72.0904 455.883 71.39 455.19C70.5833 454.628 69.6773 454.224 68.72 454C68.72 453.93 69.07 453.82 69.66 453.88C70.4278 453.979 71.1503 454.298 71.74 454.8C72.3342 455.282 72.7726 455.929 73 456.66C73.17 457.23 73.12 457.6 73.06 457.6Z" fill="#263238"/>
<path d="M70.53 460.43C70.39 460.51 69.8 459.53 68.63 458.86C67.8837 458.514 67.1153 458.216 66.33 457.97C66.7617 457.829 67.2209 457.792 67.6696 457.864C68.1182 457.935 68.5434 458.112 68.91 458.38C70.24 459.15 70.67 460.4 70.53 460.43Z" fill="#263238"/>
<path d="M77.3 454.22C76.4496 453.276 75.5268 452.4 74.54 451.6C73.4528 450.937 72.3161 450.359 71.14 449.87C72.4925 449.843 73.8108 450.296 74.86 451.15C76.0168 451.846 76.8833 452.936 77.3 454.22Z" fill="#263238"/>
<path d="M79.57 446.93C79.47 447.06 78.26 446.17 76.57 445.68C74.88 445.19 73.35 445.27 73.34 445.1C74.453 444.812 75.6233 444.83 76.7269 445.152C77.8306 445.474 78.8268 446.089 79.61 446.93H79.57Z" fill="#263238"/>
<path d="M81.34 439.8C80.3645 439.197 79.3115 438.729 78.21 438.41C77.0752 438.256 75.9248 438.256 74.79 438.41C74.79 438.35 75.1 438.11 75.74 437.92C76.5813 437.692 77.4643 437.663 78.3186 437.837C79.1729 438.01 79.9747 438.381 80.66 438.92C81.17 439.4 81.38 439.76 81.34 439.8Z" fill="#263238"/>
<path d="M78.58 437.06C78.5807 436.743 78.6489 436.429 78.78 436.14C79.0633 435.315 79.5125 434.556 80.1 433.91C80.4843 433.399 81.025 433.027 81.64 432.85C81.8494 432.816 82.0643 432.845 82.2568 432.934C82.4493 433.024 82.6107 433.168 82.72 433.35C82.9038 433.723 82.943 434.15 82.83 434.55C82.5736 435.352 82.0463 436.04 81.3385 436.496C80.6307 436.952 79.7863 437.148 78.95 437.05C78.1253 436.933 77.3538 436.574 76.7327 436.019C76.1117 435.463 75.6688 434.737 75.46 433.93C75.412 433.725 75.4077 433.513 75.4473 433.306C75.4869 433.099 75.5696 432.903 75.69 432.73C75.8282 432.569 76.0141 432.456 76.2209 432.407C76.4276 432.359 76.6445 432.377 76.84 432.46C77.4052 432.742 77.8876 433.166 78.24 433.69C78.77 434.384 79.1729 435.166 79.43 436C79.5518 436.298 79.6097 436.619 79.6 436.94C79.1969 435.862 78.6339 434.851 77.93 433.94C77.6022 433.513 77.1771 433.17 76.69 432.94C76.5829 432.894 76.4636 432.883 76.35 432.91C76.2364 432.937 76.1347 433.001 76.06 433.09C75.9901 433.208 75.9452 433.339 75.928 433.475C75.9108 433.611 75.9217 433.749 75.96 433.88C76.1686 434.559 76.5646 435.165 77.1024 435.628C77.6402 436.092 78.298 436.394 79 436.5C79.7073 436.582 80.4216 436.422 81.0263 436.047C81.6311 435.671 82.0906 435.101 82.33 434.43C82.4269 434.159 82.4269 433.862 82.33 433.59C82.2733 433.488 82.1859 433.406 82.08 433.355C81.9742 433.305 81.8553 433.289 81.74 433.31C81.2188 433.453 80.7544 433.754 80.41 434.17C79.6429 435.025 79.0243 436.002 78.58 437.06Z" fill="#263238"/>
<g opacity="0.3">
<path d="M78.34 423.43L77.17 429.03L94.86 431.97L96.34 427.08L78.97 420.78L78.34 423.43Z" fill="black"/>
</g>
<path d="M158 429.82L156.54 449.34C156.54 449.34 175.9 457.34 175.98 461.02L137.98 459.55L138.98 429.03L158 429.82Z" fill="#EC8951"/>
<g opacity="0.6">
<path d="M144.89 447.239C144.521 447.338 144.201 447.569 143.991 447.888C143.781 448.207 143.695 448.591 143.75 448.969C143.834 449.341 144.057 449.667 144.373 449.881C144.688 450.094 145.074 450.18 145.45 450.119C145.842 450.015 146.182 449.77 146.404 449.43C146.625 449.09 146.713 448.68 146.65 448.279C146.524 447.9 146.255 447.584 145.901 447.397C145.547 447.211 145.135 447.169 144.75 447.279" fill="white"/>
</g>
<g opacity="0.6">
<path d="M138 459.55L138.22 456.47L174.57 459C174.57 459 176.24 459.8 176 461L138 459.55Z" fill="white"/>
</g>
<path d="M157.18 449.17C157.18 449.36 156.24 449.41 155.31 449.97C154.38 450.53 153.86 451.29 153.69 451.21C153.52 451.13 153.84 450.07 154.98 449.41C156.12 448.75 157.23 449 157.18 449.17Z" fill="#263238"/>
<path d="M161.1 451C161.1 451.19 160.32 451.47 159.66 452.23C159 452.99 158.79 453.81 158.6 453.8C158.41 453.79 158.34 452.73 159.18 451.8C160.02 450.87 161.1 450.8 161.1 451Z" fill="#263238"/>
<path d="M163.18 455.83C163.01 455.83 162.79 454.92 163.3 453.93C163.81 452.94 164.7 452.56 164.77 452.72C164.84 452.88 164.29 453.4 163.88 454.22C163.47 455.04 163.36 455.82 163.18 455.83Z" fill="#263238"/>
<path d="M157 444.69C156.92 444.85 156.08 444.56 155 444.59C153.92 444.62 153.12 444.92 153 444.76C152.88 444.6 153.72 443.97 155 443.95C156.28 443.93 157.12 444.55 157 444.69Z" fill="#263238"/>
<g opacity="0.3">
<path d="M157.73 433.69L157.47 437.17L138.82 436.27L138.95 432.25L157.73 433.69Z" fill="black"/>
</g>
<path d="M157.25 440.74C156.622 440.892 155.963 440.864 155.35 440.66C154.657 440.516 153.985 440.284 153.35 439.97C152.98 439.788 152.622 439.58 152.28 439.35C152.071 439.222 151.883 439.063 151.72 438.88C151.61 438.737 151.55 438.561 151.55 438.38C151.55 438.199 151.61 438.023 151.72 437.88C151.817 437.753 151.943 437.652 152.088 437.584C152.232 437.516 152.391 437.484 152.55 437.49C152.791 437.5 153.029 437.54 153.26 437.61C153.66 437.727 154.049 437.881 154.42 438.07C155.051 438.378 155.629 438.787 156.13 439.28C156.98 440.13 157.25 440.84 157.19 440.87C157.13 440.9 156.7 440.33 155.83 439.62C155.319 439.221 154.762 438.885 154.17 438.62C153.817 438.474 153.457 438.347 153.09 438.24C152.69 438.12 152.35 438.11 152.24 438.24C152.13 438.37 152.24 438.34 152.24 438.46C152.36 438.592 152.498 438.707 152.65 438.8C152.971 439.023 153.305 439.227 153.65 439.41C154.227 439.728 154.833 439.989 155.46 440.19C156.069 440.331 156.667 440.514 157.25 440.74Z" fill="#263238"/>
<path d="M157 441C156.668 440.439 156.517 439.789 156.57 439.14C156.574 438.436 156.689 437.737 156.91 437.07C157.054 436.678 157.231 436.3 157.44 435.94C157.552 435.692 157.726 435.478 157.945 435.317C158.164 435.156 158.42 435.053 158.69 435.02C158.861 435.031 159.025 435.09 159.163 435.191C159.301 435.292 159.408 435.43 159.47 435.59C159.557 435.814 159.611 436.05 159.63 436.29C159.696 436.714 159.696 437.145 159.63 437.57C159.496 438.276 159.191 438.939 158.74 439.5C157.96 440.5 157.18 440.65 157.16 440.59C157.14 440.53 157.76 440.16 158.37 439.23C158.72 438.699 158.949 438.098 159.04 437.47C159.091 437.105 159.091 436.734 159.04 436.37C158.99 435.97 158.85 435.63 158.7 435.67C158.55 435.71 158.18 435.95 158.01 436.27C157.815 436.589 157.644 436.924 157.5 437.27C157.269 437.873 157.12 438.506 157.06 439.15C156.93 440.27 157.1 441 157 441Z" fill="#263238"/>
<path d="M118.72 219.3C118.72 219.3 112.72 219.57 108.72 240.09C104.72 260.61 74.23 426.88 74.23 426.88L96.34 427.08L138 269L135.23 432L157.69 433.72C157.69 433.72 174.54 253.43 174.69 242.94C174.89 229.86 167.38 216.63 167.38 216.63L118.72 219.3Z" fill="#263238"/>
<path d="M149.11 217.55C149.25 217.55 146.95 229.3 143.98 243.73C141.01 258.16 138.49 269.84 138.35 269.81C138.21 269.78 140.5 258.06 143.47 243.63C146.44 229.2 149 217.52 149.11 217.55Z" fill="#455A64"/>
<path d="M152.55 220.48C152.55 220.42 153.15 220.24 153.84 220.85C154.036 221.028 154.191 221.246 154.295 221.489C154.398 221.732 154.448 221.995 154.44 222.26C154.415 222.594 154.295 222.915 154.095 223.184C153.895 223.453 153.623 223.66 153.31 223.78C153.005 223.918 152.667 223.969 152.334 223.924C152.002 223.88 151.689 223.743 151.43 223.53C151.237 223.349 151.084 223.128 150.982 222.883C150.881 222.639 150.832 222.375 150.84 222.11C150.84 221.19 151.46 220.87 151.47 220.93C151.301 221.297 151.213 221.696 151.21 222.1C151.223 222.303 151.277 222.501 151.368 222.683C151.459 222.865 151.586 223.027 151.74 223.16C151.937 223.296 152.166 223.38 152.404 223.405C152.642 223.43 152.883 223.394 153.104 223.301C153.325 223.209 153.519 223.062 153.669 222.875C153.818 222.688 153.919 222.466 153.96 222.23C153.975 222.027 153.949 221.824 153.883 221.631C153.818 221.439 153.715 221.262 153.58 221.11C153.09 220.54 152.54 220.56 152.55 220.48Z" fill="#455A64"/>
<path d="M151.6 228.6C151.6 228.54 152.22 228.6 152.6 229.43C152.697 229.667 152.74 229.922 152.728 230.177C152.716 230.433 152.649 230.683 152.53 230.91C152.358 231.179 152.116 231.397 151.83 231.539C151.543 231.681 151.224 231.743 150.905 231.717C150.586 231.692 150.28 231.58 150.021 231.393C149.761 231.207 149.557 230.953 149.43 230.66C149.35 230.419 149.324 230.163 149.353 229.911C149.383 229.659 149.467 229.416 149.6 229.2C150.07 228.45 150.71 228.47 150.69 228.53C150.67 228.59 150.21 228.73 149.92 229.37C149.773 229.729 149.773 230.131 149.92 230.49C150.024 230.688 150.177 230.857 150.364 230.98C150.552 231.104 150.767 231.178 150.99 231.196C151.214 231.214 151.438 231.175 151.643 231.083C151.847 230.991 152.025 230.849 152.16 230.67C152.348 230.328 152.395 229.926 152.29 229.55C152 228.87 151.55 228.67 151.6 228.6Z" fill="#455A64"/>
<path d="M130.41 220.68C130.369 221.023 130.281 221.36 130.15 221.68C129.838 222.595 129.446 223.482 128.98 224.33C127.454 227.159 125.251 229.565 122.566 231.333C119.882 233.101 116.801 234.175 113.6 234.46C112.638 234.543 111.672 234.543 110.71 234.46C110.371 234.449 110.035 234.395 109.71 234.3C109.71 234.2 111.22 234.37 113.61 234.07C116.725 233.692 119.71 232.596 122.33 230.87C124.95 229.143 127.134 226.833 128.71 224.12C129.88 222.1 130.32 220.65 130.41 220.68Z" fill="#455A64"/>
<path d="M173.43 235.27C173.43 235.27 173.17 235.15 172.76 234.87C172.187 234.458 171.652 233.996 171.16 233.49C169.515 231.825 168.232 229.839 167.391 227.655C166.549 225.472 166.168 223.138 166.27 220.8C166.293 220.096 166.383 219.396 166.54 218.71C166.65 218.22 166.72 217.96 166.76 217.97C166.8 217.98 166.64 219.06 166.64 220.81C166.642 225.404 168.349 229.833 171.43 233.24C172.6 234.53 173.48 235.19 173.43 235.27Z" fill="#455A64"/>
<path d="M251 235.85C251.33 235.05 251.24 235.37 245.94 231.85C245.94 231.85 253.54 236.85 252.75 234.47C252.067 233.568 251.231 232.793 250.28 232.18C252.28 233.36 253.44 233.49 253.79 233.01C254.39 232.18 250.04 229.01 247.97 227.58C249.862 228.934 251.847 230.153 253.91 231.23C255.14 231.61 254.55 230.17 253.72 229.12C252.89 228.07 246.45 221.87 244.72 220.02C244.555 219.879 244.423 219.704 244.332 219.507C244.242 219.311 244.195 219.097 244.195 218.88C244.195 218.663 244.242 218.449 244.332 218.252C244.423 218.056 244.555 217.881 244.72 217.74C247.82 215.74 249.18 212.55 249.14 211.5C249.106 211.264 248.997 211.044 248.83 210.873C248.663 210.702 248.447 210.589 248.211 210.549C247.975 210.509 247.733 210.544 247.519 210.651C247.305 210.757 247.131 210.928 247.02 211.14C246.237 212.113 245.326 212.974 244.31 213.7C243.522 214.314 242.637 214.791 241.69 215.11C240.59 215.47 235.18 215.17 234.02 214.58L230.33 227.09C230.33 227.09 243.72 233.35 246.26 234.57C249.38 236.05 250.77 236.46 251 235.85Z" fill="#FFBE9D"/>
<path d="M243.53 230C243.42 230.15 245.16 231.42 247.41 232.85C249.66 234.28 251.55 235.31 251.64 235.16C251.73 235.01 249.99 233.73 247.75 232.31C245.51 230.89 243.63 229.81 243.53 230Z" fill="#EB996E"/>
<path d="M244.79 227.55C244.69 227.7 246.47 229.16 248.79 230.82C251.11 232.48 253.03 233.71 253.13 233.57C253.23 233.43 251.46 231.96 249.13 230.3C246.8 228.64 244.9 227.41 244.79 227.55Z" fill="#EB996E"/>
<path d="M246.12 225.07C246.02 225.21 247.68 226.63 249.83 228.23C251.98 229.83 253.83 231.01 253.91 230.87C253.99 230.73 252.36 229.31 250.21 227.71C248.06 226.11 246.23 224.93 246.12 225.07Z" fill="#EB996E"/>
<path d="M109.93 179.76L119.75 180.3C120.446 183.041 121.376 185.718 122.53 188.3C130.44 174.58 136.53 156.19 138.09 148.8C137.87 148.073 137.6 147.253 137.28 146.34C137.04 144.959 137.081 143.544 137.4 142.18C137.67 140.54 138.13 138.32 138.26 137.3C138.69 134.18 139.19 133.68 140.26 134.04C141.74 134.52 139.65 142.81 140.86 142.99C141.52 143.08 142.31 140.24 142.55 137.91C142.79 135.58 143.83 128.42 144.6 127.91C145.73 127.21 146.71 128.32 146.43 130.64C146.15 132.96 145.78 139.99 147.01 140.08C148.24 140.17 149.24 128.29 149.24 128.29C149.24 128.29 149.05 125.71 150.47 125.77C153.04 125.88 151.04 138.41 150.82 139.6C150.66 140.42 152 140.6 152.12 139.68C152.24 138.76 152.86 127.79 155.47 127.88C157.47 127.95 153.92 138.2 155.05 140.58C156.18 142.96 156.96 132.51 158.88 132.65C159.59 132.71 160.12 132.85 158.81 138.76C157.531 143.459 155.999 148.086 154.22 152.62C151.22 169.02 137.83 221.48 116.91 211.88C105.21 206.51 99.74 179.88 99.74 179.88L109.93 179.76Z" fill="#FFBE9D"/>
<path d="M154.24 152.71C154.257 152.586 154.291 152.465 154.34 152.35C154.43 152.09 154.54 151.75 154.69 151.35C155.02 150.4 155.47 149.08 156.06 147.35C156.65 145.62 157.36 143.52 158.06 141.04C158.42 139.81 158.72 138.47 158.99 137.04C159.13 136.32 159.26 135.58 159.35 134.82C159.375 134.444 159.375 134.066 159.35 133.69C159.35 133.3 159.26 132.98 158.95 132.97C158.64 132.96 158.42 133.15 158.2 133.48C158.001 133.833 157.837 134.205 157.71 134.59C157.43 135.38 157.21 136.22 156.99 137.07C156.77 137.92 156.57 138.81 156.31 139.71C156.197 140.203 155.993 140.671 155.71 141.09C155.639 141.172 155.545 141.231 155.44 141.26C155.374 141.274 155.306 141.274 155.24 141.258C155.174 141.243 155.113 141.212 155.06 141.17C154.945 141.064 154.85 140.939 154.78 140.8C154.674 140.554 154.604 140.295 154.57 140.03C154.524 138.013 154.726 135.998 155.17 134.03C155.34 133.03 155.52 132.03 155.65 131.03C155.71 130.52 155.77 130.03 155.78 129.49C155.79 128.95 155.71 128.38 155.5 128.29C155.29 128.2 154.78 128.48 154.5 128.9C154.224 129.343 154.005 129.821 153.85 130.32C153.509 131.364 153.252 132.434 153.08 133.52C152.89 134.62 152.74 135.74 152.61 136.88C152.56 137.45 152.5 138.02 152.45 138.6L152.37 139.47C152.381 139.656 152.35 139.841 152.281 140.014C152.212 140.187 152.106 140.343 151.97 140.47C151.799 140.595 151.592 140.662 151.38 140.662C151.168 140.662 150.961 140.595 150.79 140.47C150.693 140.406 150.611 140.322 150.549 140.223C150.487 140.125 150.446 140.015 150.43 139.9C150.415 139.794 150.415 139.686 150.43 139.58V139.37L150.7 137.62C150.87 136.44 151.01 135.26 151.12 134.06C151.23 132.86 151.32 131.65 151.34 130.44C151.399 129.242 151.277 128.042 150.98 126.88C150.911 126.585 150.732 126.327 150.48 126.16C150.359 126.121 150.23 126.121 150.109 126.161C149.989 126.2 149.884 126.277 149.81 126.38C149.486 126.972 149.353 127.649 149.43 128.32C149.21 130.67 148.96 132.98 148.62 135.25C148.45 136.38 148.26 137.51 147.98 138.62C147.9 138.89 147.82 139.17 147.72 139.45C147.625 139.789 147.426 140.09 147.15 140.31C147.028 140.37 146.89 140.386 146.757 140.357C146.624 140.328 146.506 140.255 146.42 140.15C146.298 140.022 146.206 139.868 146.15 139.7C146.042 139.422 145.965 139.134 145.92 138.84C145.686 136.664 145.666 134.47 145.86 132.29C146.008 131.274 146.065 130.246 146.03 129.22C145.998 128.782 145.797 128.373 145.47 128.08C145.393 128.032 145.308 128 145.218 127.987C145.129 127.973 145.038 127.977 144.95 128C144.856 128.031 144.766 128.071 144.68 128.12C144.59 128.2 144.6 128.12 144.54 128.29C144.178 129.189 143.914 130.124 143.75 131.08C143.55 132.08 143.38 132.99 143.23 133.93C143.08 134.87 142.94 135.79 142.82 136.71C142.7 137.63 142.64 138.53 142.46 139.43C142.305 140.309 142.07 141.173 141.76 142.01C141.678 142.223 141.581 142.43 141.47 142.63C141.33 142.82 141.25 143.06 140.87 143.18C140.773 143.198 140.672 143.186 140.582 143.147C140.491 143.108 140.414 143.043 140.36 142.96C140.29 142.844 140.236 142.72 140.2 142.59C140.155 142.372 140.128 142.152 140.12 141.93C140.12 140.22 140.35 138.66 140.44 137.15C140.505 136.428 140.505 135.702 140.44 134.98C140.44 134.66 140.29 134.28 140.11 134.21C139.984 134.148 139.845 134.116 139.705 134.116C139.565 134.116 139.426 134.148 139.3 134.21C138.88 134.661 138.62 135.237 138.56 135.85C138.41 136.46 138.35 137.08 138.24 137.67C137.82 140.03 137.38 142.07 137.17 143.73C137.071 144.46 137.071 145.2 137.17 145.93C137.31 146.53 137.52 147.07 137.63 147.49C137.74 147.91 137.85 148.21 137.92 148.49C137.957 148.597 137.984 148.707 138 148.82C137.94 148.723 137.893 148.619 137.86 148.51L137.52 147.51C137.38 147.08 137.17 146.6 137 145.94C136.893 145.19 136.893 144.429 137 143.68C137.19 141.99 137.59 139.97 138 137.6C138.11 137.01 138.17 136.39 138.3 135.75C138.372 135.412 138.462 135.078 138.57 134.75C138.67 134.386 138.888 134.066 139.19 133.84C139.372 133.743 139.574 133.693 139.78 133.693C139.986 133.693 140.188 133.743 140.37 133.84C140.566 133.963 140.726 134.134 140.836 134.338C140.947 134.541 141.003 134.769 141 135C141.07 135.751 141.07 136.508 141 137.26C140.93 138.78 140.69 140.37 140.73 141.99C140.737 142.181 140.761 142.372 140.8 142.56C140.8 142.75 140.94 142.83 140.92 142.79C140.9 142.75 141.11 142.63 141.19 142.47C141.289 142.292 141.375 142.109 141.45 141.92C141.746 141.109 141.964 140.272 142.1 139.42C142.27 138.55 142.33 137.65 142.45 136.72C142.57 135.79 142.69 134.87 142.84 133.92C142.99 132.97 143.16 132.02 143.35 131.05C143.513 130.037 143.795 129.047 144.19 128.1C144.27 127.941 144.391 127.806 144.54 127.71C144.673 127.637 144.814 127.58 144.96 127.54C145.128 127.492 145.304 127.48 145.476 127.506C145.649 127.532 145.814 127.595 145.96 127.69C146.192 127.874 146.384 128.104 146.523 128.366C146.662 128.627 146.746 128.914 146.77 129.21C146.845 129.754 146.845 130.306 146.77 130.85C146.72 131.36 146.67 131.85 146.64 132.41C146.445 134.54 146.465 136.684 146.7 138.81C146.743 139.062 146.81 139.31 146.9 139.55C146.93 139.647 146.981 139.735 147.05 139.81C147.05 139.81 147.05 139.81 147.1 139.81C147.1 140.04 147.1 139.81 147.1 139.9C147.1 139.99 147.1 139.9 147.1 139.82C147.225 139.653 147.323 139.467 147.39 139.27C147.483 139.023 147.563 138.763 147.63 138.49C147.9 137.43 148.08 136.31 148.25 135.19C148.59 132.94 148.84 130.63 149.05 128.29V128.34C148.961 127.515 149.14 126.684 149.56 125.97C149.72 125.765 149.94 125.616 150.19 125.543C150.439 125.469 150.704 125.475 150.95 125.56C151.16 125.676 151.344 125.833 151.492 126.022C151.639 126.211 151.748 126.428 151.81 126.66C152.13 127.889 152.262 129.161 152.2 130.43C152.2 131.67 152.09 132.89 151.98 134.1C151.87 135.31 151.72 136.5 151.55 137.68C151.46 138.28 151.37 138.86 151.28 139.45C151.2 139.82 151.22 139.83 151.28 139.94C151.349 139.987 151.431 140.012 151.515 140.012C151.599 140.012 151.681 139.987 151.75 139.94C151.87 139.85 151.89 139.68 151.92 139.35L151.99 138.48L152.17 136.75C152.29 135.61 152.45 134.47 152.64 133.36C152.825 132.245 153.092 131.145 153.44 130.07C153.622 129.526 153.867 129.006 154.17 128.52C154.335 128.258 154.553 128.033 154.81 127.86C154.953 127.757 155.118 127.689 155.292 127.663C155.466 127.637 155.643 127.653 155.81 127.71C155.963 127.804 156.093 127.933 156.188 128.085C156.283 128.238 156.342 128.411 156.36 128.59C156.401 128.871 156.418 129.156 156.41 129.44C156.41 129.99 156.34 130.52 156.28 131.05C156.14 132.05 155.95 133.11 155.77 134.12C155.34 136.019 155.132 137.962 155.15 139.91C155.178 140.119 155.232 140.324 155.31 140.52C155.346 140.591 155.39 140.658 155.44 140.72C155.44 140.72 155.44 140.72 155.44 140.65C155.665 140.288 155.83 139.893 155.93 139.48C156.19 138.61 156.4 137.73 156.63 136.87C156.836 136.014 157.087 135.17 157.38 134.34C157.519 133.929 157.699 133.533 157.92 133.16C158.039 132.956 158.195 132.777 158.38 132.63C158.481 132.543 158.601 132.481 158.73 132.45C158.859 132.43 158.991 132.43 159.12 132.45C159.256 132.463 159.387 132.513 159.498 132.594C159.608 132.675 159.695 132.784 159.75 132.91C159.834 133.12 159.878 133.344 159.88 133.57C159.888 133.974 159.864 134.379 159.81 134.78C159.72 135.56 159.57 136.3 159.43 137.03C159.14 138.46 158.82 139.82 158.43 141.03C157.68 143.51 156.93 145.61 156.32 147.32C155.71 149.03 155.19 150.32 154.84 151.24C154.67 151.66 154.53 151.99 154.43 152.24C154.385 152.403 154.321 152.561 154.24 152.71Z" fill="#EB996E"/>
<path d="M99.65 180.89C101.55 187.6 105.27 197.95 109.26 208.89C109.386 209.242 109.613 209.55 109.914 209.773C110.214 209.996 110.574 210.124 110.948 210.143C111.322 210.161 111.693 210.068 112.013 209.875C112.334 209.682 112.591 209.398 112.75 209.06L122.53 188.37C122.53 188.37 120.17 171.37 120.37 171.98C120.57 172.59 100.19 174.18 100.19 174.18L99.65 180.89Z" fill="#EC8951"/>
<path d="M121.69 177.56C121.69 177.64 120.47 178 118.54 178.74C116.018 179.697 113.588 180.882 111.28 182.28C108.975 183.684 106.8 185.291 104.78 187.08C103.23 188.45 102.34 189.39 102.28 189.33C102.22 189.27 102.45 189.05 102.83 188.6C103.366 187.975 103.933 187.377 104.53 186.81C106.501 184.912 108.674 183.235 111.01 181.81C113.347 180.402 115.827 179.249 118.41 178.37C119.191 178.101 119.985 177.874 120.79 177.69C121.081 177.599 121.385 177.555 121.69 177.56Z" fill="#FAFAFA"/>
<path d="M125.57 182.72C124.935 182.079 124.383 181.36 123.93 180.58C122.762 178.759 121.758 176.838 120.93 174.84C120.101 172.836 119.455 170.761 119 168.64C118.767 167.773 118.649 166.878 118.65 165.98C118.948 166.818 119.186 167.677 119.36 168.55C119.896 170.621 120.564 172.655 121.36 174.64C122.192 176.615 123.147 178.535 124.22 180.39C124.719 181.137 125.17 181.915 125.57 182.72Z" fill="#263238"/>
<path d="M132.09 91.0997C130.393 93.8959 129.342 97.0352 129.011 100.289C128.681 103.543 129.08 106.83 130.18 109.91C131.18 112.66 132.78 115.37 132.49 118.29C132.2 121.21 129.92 124.1 130.72 126.98C131.2 128.69 132.66 129.98 133.23 131.64C133.88 133.64 133.23 135.75 132.88 137.8C132.08 143.04 133.76 148.31 134.17 153.59C134.58 158.87 133.17 165.06 128.45 167.36C127.02 168.06 125.15 168.26 123.96 167.19C122.44 165.84 122.86 163.4 123.28 161.4C127.42 141.4 114.63 121.88 117.55 101.64C118.02 98.3997 119.83 92.8997 122.16 90.6397C124.49 88.3797 130.96 88.6397 133.16 91.0397" fill="#263238"/>
<path d="M112.39 149.12C112.39 149.12 113 148.4 113.9 146.98C115.163 144.974 116.048 142.754 116.51 140.43C116.812 138.829 116.916 137.196 116.82 135.57C116.645 133.679 116.575 131.779 116.61 129.88C116.67 128.84 116.861 127.812 117.18 126.82C117.545 125.798 118.008 124.814 118.56 123.88C119.68 121.99 121.09 120.23 122.39 118.35C123.725 116.573 124.653 114.525 125.11 112.35C125.332 110.301 125.213 108.23 124.76 106.22C124.382 104.352 124.234 102.444 124.32 100.54C124.439 98.8765 124.775 97.2359 125.32 95.6599C126.084 93.3729 127.286 91.2567 128.86 89.4299C129.278 88.9332 129.733 88.4686 130.22 88.0399C130.375 87.8752 130.549 87.7307 130.74 87.6099C130.74 87.6099 130.07 88.2599 129.01 89.6099C126.485 92.7437 125.009 96.5916 124.79 100.61C124.723 102.483 124.888 104.357 125.28 106.19C125.757 108.254 125.885 110.383 125.66 112.49C125.186 114.726 124.23 116.831 122.86 118.66C121.55 120.57 120.14 122.32 119.04 124.16C118.499 125.059 118.05 126.011 117.7 127C117.384 127.951 117.192 128.939 117.13 129.94C117.086 131.818 117.139 133.697 117.29 135.57C117.369 137.229 117.242 138.892 116.91 140.52C116.409 142.876 115.458 145.114 114.11 147.11C113.745 147.65 113.344 148.164 112.91 148.65C112.754 148.825 112.58 148.983 112.39 149.12Z" fill="#455A64"/>
<path d="M102.91 150.61C102.991 150.377 103.094 150.152 103.22 149.94C103.47 149.47 103.79 148.85 104.22 148.07C105.06 146.44 106.31 144.07 107.54 141.07C109.045 137.566 109.879 133.811 110 130C110.001 128.902 109.917 127.805 109.75 126.72C109.58 125.6 109.32 124.47 109.15 123.29C108.942 122.069 108.969 120.82 109.23 119.61C109.568 118.367 110.264 117.251 111.23 116.4C113.11 114.69 115.38 113.57 116.56 111.56C117.582 109.567 118.185 107.385 118.33 105.15C118.542 103.101 119.005 101.086 119.71 99.1501C121.295 94.9945 124.119 91.4267 127.8 88.9301C128.387 88.5351 128.998 88.1777 129.63 87.8601C129.843 87.7323 130.072 87.6315 130.31 87.5601C130.31 87.5601 129.41 88.0401 127.92 89.1001C125.82 90.5987 124.002 92.4574 122.55 94.5901C121.543 96.052 120.723 97.6343 120.11 99.3001C119.436 101.24 119 103.255 118.81 105.3C118.51 107.43 118.27 109.81 116.99 111.92C115.71 114.03 113.37 115.23 111.58 116.92C110.668 117.712 110.01 118.755 109.69 119.92C109.447 121.065 109.423 122.246 109.62 123.4C109.78 124.55 110.03 125.69 110.2 126.82C110.373 127.931 110.453 129.055 110.44 130.18C110.304 134.061 109.425 137.88 107.85 141.43C106.827 143.829 105.665 146.166 104.37 148.43L103.31 150C103.199 150.217 103.065 150.421 102.91 150.61Z" fill="#455A64"/>
<path d="M433.77 433.18C433.816 433.034 433.877 432.894 433.95 432.76C434.09 432.46 434.28 432.06 434.51 431.55C435.206 429.988 435.764 428.369 436.18 426.71C437.28 422.41 437.67 415.84 436.04 408.04C435.155 403.786 433.996 399.594 432.57 395.49C431.11 391.04 429.4 386.32 428.01 381.21C426.441 375.88 425.682 370.345 425.76 364.79C425.97 358.98 427.69 353.19 429.58 347.41C431.47 341.63 433.42 336 434 330.3C434.645 324.834 433.546 319.304 430.86 314.5C428.36 309.89 425.21 305.94 422.86 301.86C420.66 298.069 419.039 293.97 418.05 289.7C416.631 283.517 416.525 277.106 417.74 270.88C418.182 268.602 418.853 266.374 419.74 264.23C419.713 264.38 419.673 264.527 419.62 264.67L419.22 265.94C418.88 267.06 418.43 268.74 418 270.94C416.882 277.138 417.049 283.499 418.49 289.63C419.493 293.848 421.121 297.893 423.32 301.63C425.67 305.63 428.83 309.63 431.39 314.26C434.141 319.161 435.272 324.807 434.62 330.39C434.03 336.17 432.07 341.86 430.18 347.63C428.29 353.4 426.59 359.13 426.38 364.84C426.291 370.34 427.032 375.822 428.58 381.1C429.95 386.18 431.63 390.9 433.08 395.37C434.492 399.497 435.628 403.712 436.48 407.99C438.07 415.85 437.62 422.49 436.48 426.8C436.034 428.462 435.435 430.079 434.69 431.63L434.07 432.82C433.984 432.951 433.883 433.072 433.77 433.18Z" fill="#263238"/>
<path d="M426.06 305.89C426.06 305.89 421.28 290.58 429.86 281.62C429.927 281.548 430.012 281.496 430.106 281.469C430.201 281.443 430.301 281.443 430.395 281.47C430.489 281.497 430.574 281.55 430.641 281.622C430.707 281.694 430.752 281.784 430.77 281.88C431.23 284.41 431.8 292.11 426.06 305.89Z" fill="#EC8951"/>
<path d="M428.93 286.72C428.915 287.668 428.808 288.612 428.61 289.54C428.29 291.49 427.92 293.77 427.52 296.29C427.12 298.81 426.75 301.1 426.44 303.04C426.353 303.985 426.185 304.922 425.94 305.84C425.846 304.894 425.866 303.941 426 303C426.16 301.25 426.47 298.85 426.9 296.21C427.33 293.57 427.8 291.21 428.17 289.48C428.316 288.533 428.571 287.607 428.93 286.72Z" fill="#263238"/>
<path d="M431.68 342C431.68 342 434.61 326.23 446.39 322.33C446.483 322.297 446.583 322.292 446.679 322.313C446.775 322.334 446.863 322.381 446.934 322.45C447.004 322.518 447.054 322.605 447.078 322.701C447.103 322.796 447.1 322.896 447.07 322.99C446.29 325.42 443.2 332.49 431.68 342Z" fill="#EC8951"/>
<path d="M443.18 326.38C442.723 327.213 442.187 328 441.58 328.73L437.45 334.18L433.35 339.65C432.834 340.444 432.248 341.19 431.6 341.88C431.965 341 432.435 340.167 433 339.4C434 337.93 435.36 335.95 437 333.82C438.64 331.69 440.13 329.82 441.26 328.46C441.822 327.698 442.466 327.001 443.18 326.38Z" fill="#263238"/>
<path d="M428.5 381.53C428.5 381.53 426.72 365.59 436.86 358.44C436.938 358.378 437.032 358.341 437.131 358.331C437.23 358.322 437.329 358.341 437.417 358.386C437.506 358.431 437.579 358.501 437.629 358.587C437.679 358.672 437.704 358.77 437.7 358.87C437.67 361.44 436.76 369.1 428.5 381.53Z" fill="#EC8951"/>
<path d="M435 363.26C434.814 364.191 434.529 365.099 434.15 365.97L431.79 372.39C430.91 374.79 430.12 376.96 429.45 378.81C429.194 379.72 428.859 380.607 428.45 381.46C428.542 380.511 428.751 379.578 429.07 378.68C429.56 377 430.32 374.68 431.25 372.18C432.18 369.68 433.09 367.43 433.78 365.82C434.099 364.927 434.507 364.069 435 363.26Z" fill="#263238"/>
<path d="M437.37 421.31C437.37 421.31 436.17 405.31 446.55 398.53C446.631 398.474 446.726 398.442 446.825 398.437C446.923 398.432 447.021 398.455 447.107 398.503C447.194 398.551 447.265 398.622 447.313 398.708C447.361 398.794 447.384 398.891 447.38 398.99C447.26 401.56 446.08 409.19 437.37 421.31Z" fill="#EC8951"/>
<path d="M444.49 403.29C444.266 404.214 443.948 405.112 443.54 405.97C442.8 407.79 441.92 409.97 440.95 412.3C439.98 414.63 439.13 416.8 438.39 418.63C438.094 419.533 437.716 420.406 437.26 421.24C437.393 420.294 437.638 419.368 437.99 418.48C438.54 416.82 439.38 414.54 440.4 412.07C441.42 409.6 442.4 407.38 443.15 405.8C443.506 404.918 443.955 404.077 444.49 403.29Z" fill="#263238"/>
<path d="M419.18 292.44C419.18 292.44 405 285 404.69 272.61C404.689 272.513 404.715 272.417 404.764 272.333C404.813 272.249 404.883 272.18 404.968 272.133C405.053 272.086 405.149 272.063 405.246 272.066C405.344 272.069 405.438 272.098 405.52 272.15C407.63 273.61 413.49 278.65 419.18 292.44Z" fill="#EC8951"/>
<path d="M407.64 276.87C408.306 277.55 408.899 278.298 409.41 279.1C410.57 280.69 411.92 282.57 413.41 284.64L417.41 290.16C418.019 290.886 418.562 291.666 419.03 292.49C418.299 291.882 417.644 291.186 417.08 290.42C415.95 289.08 414.47 287.16 412.91 284.99C411.35 282.82 409.98 280.81 409.04 279.34C408.489 278.568 408.02 277.74 407.64 276.87Z" fill="#263238"/>
<path d="M434.45 325.31C434.45 325.31 419.81 318.76 418.78 306.39C418.772 306.293 418.79 306.195 418.834 306.108C418.878 306.021 418.944 305.947 419.027 305.896C419.11 305.844 419.205 305.816 419.303 305.815C419.4 305.814 419.496 305.84 419.58 305.89C421.77 307.22 427.92 311.88 434.45 325.31Z" fill="#EC8951"/>
<path d="M422 310.47C422.705 311.105 423.342 311.812 423.9 312.58L428.24 317.87L432.59 323.14C433.242 323.829 433.831 324.576 434.35 325.37C433.583 324.803 432.885 324.149 432.27 323.42C431.07 322.14 429.47 320.32 427.78 318.25C426.09 316.18 424.61 314.25 423.57 312.84C422.961 312.11 422.434 311.315 422 310.47Z" fill="#263238"/>
<path d="M426 362C426 362 416 349.5 420.67 338C420.707 337.91 420.768 337.832 420.847 337.774C420.925 337.716 421.018 337.681 421.116 337.673C421.213 337.665 421.31 337.683 421.398 337.727C421.485 337.771 421.558 337.837 421.61 337.92C423 340.09 426.33 347.05 426 362Z" fill="#EC8951"/>
<path d="M421.68 343.08C422.022 343.968 422.27 344.89 422.42 345.83C422.84 347.75 423.33 350.01 423.87 352.51C424.41 355.01 424.92 357.26 425.34 359.18C425.608 360.091 425.792 361.025 425.89 361.97C425.451 361.12 425.115 360.22 424.89 359.29C424.4 357.6 423.8 355.29 423.24 352.63C422.68 349.97 422.24 347.63 421.96 345.91C421.763 344.98 421.67 344.031 421.68 343.08Z" fill="#263238"/>
<path d="M436 405.11C436 405.11 421.47 398.32 420.65 385.94C420.64 385.841 420.659 385.742 420.703 385.653C420.747 385.564 420.815 385.489 420.899 385.437C420.983 385.385 421.081 385.358 421.18 385.358C421.279 385.359 421.376 385.387 421.46 385.44C423.61 386.81 429.68 391.58 436 405.11Z" fill="#EC8951"/>
<path d="M423.77 390.06C424.457 390.715 425.08 391.435 425.63 392.21L429.88 397.56L434.14 402.91C434.781 403.609 435.356 404.366 435.86 405.17C435.115 404.586 434.444 403.914 433.86 403.17C432.67 401.87 431.11 400.02 429.45 397.92C427.79 395.82 426.35 393.87 425.33 392.44C424.719 391.71 424.196 390.911 423.77 390.06Z" fill="#263238"/>
<path d="M464.91 342.07C464.91 342.07 464.91 342.19 464.91 342.42C464.91 342.65 464.91 343.03 464.91 343.42C464.91 344.42 464.81 345.69 464.74 347.31C464.56 350.73 464.29 355.5 463.98 361.2C462.98 367 459.98 373.43 455.98 379.68C453.07 384.28 449.98 388.46 447.38 392.35C445.007 395.764 442.875 399.34 441 403.05C439.759 405.558 438.754 408.176 438 410.87C437.75 411.82 437.55 412.57 437.44 413.08C437.393 413.346 437.323 413.607 437.23 413.86C437.234 413.591 437.267 413.322 437.33 413.06C437.4 412.54 437.55 411.78 437.78 410.81C438.453 408.069 439.408 405.405 440.63 402.86C442.489 399.12 444.618 395.521 447 392.09C449.62 388.17 452.65 383.98 455.55 379.41C459.5 373.19 462.44 366.86 463.55 361.15C463.95 355.46 464.28 350.7 464.55 347.28C464.68 345.66 464.79 344.37 464.87 343.4C464.87 343 464.94 342.66 464.97 342.4C464.936 342.293 464.916 342.182 464.91 342.07Z" fill="#263238"/>
<path d="M456.26 378.53C456.26 378.53 462.41 363.73 454.68 354.02C454.62 353.942 454.54 353.882 454.448 353.848C454.356 353.813 454.256 353.804 454.159 353.823C454.063 353.842 453.974 353.887 453.901 353.953C453.829 354.02 453.777 354.105 453.75 354.2C453.06 356.68 451.79 364.29 456.26 378.53Z" fill="#EC8951"/>
<path d="M455.14 359.19C455.405 360.103 455.57 361.042 455.63 361.99C455.85 363.73 456.09 366.14 456.28 368.81C456.47 371.48 456.56 373.9 456.56 375.66C456.62 376.61 456.563 377.564 456.39 378.5C456.217 377.567 456.134 376.62 456.14 375.67C456.01 373.67 455.85 371.4 455.68 368.85C455.51 366.3 455.35 363.99 455.21 362.03C455.094 361.088 455.07 360.137 455.14 359.19Z" fill="#263238"/>
<g opacity="0.3">
<path d="M456.26 378.53C456.26 378.53 462.41 363.73 454.68 354.02C454.62 353.942 454.54 353.882 454.448 353.848C454.356 353.813 454.256 353.804 454.159 353.823C454.063 353.842 453.974 353.887 453.901 353.953C453.829 354.02 453.777 354.105 453.75 354.2C453.06 356.68 451.79 364.29 456.26 378.53Z" fill="black"/>
</g>
<path d="M437.21 414.22C437.21 414.22 442.14 398.96 433.64 389.92C433.574 389.848 433.49 389.796 433.396 389.769C433.302 389.742 433.203 389.741 433.109 389.767C433.014 389.793 432.929 389.844 432.862 389.915C432.796 389.987 432.75 390.075 432.73 390.17C432.25 392.69 431.6 400.39 437.21 414.22Z" fill="#EC8951"/>
<path d="M434.52 395C434.866 395.889 435.108 396.815 435.24 397.76C435.6 399.47 436.03 401.86 436.44 404.5C436.85 407.14 437.13 409.55 437.28 411.3C437.41 412.245 437.427 413.201 437.33 414.15C437.093 413.232 436.932 412.295 436.85 411.35C436.56 409.4 436.22 407.12 435.85 404.59C435.48 402.06 435.12 399.78 434.85 397.83C434.647 396.9 434.537 395.952 434.52 395Z" fill="#263238"/>
<g opacity="0.3">
<path d="M437.21 414.22C437.21 414.22 442.14 398.96 433.64 389.92C433.574 389.848 433.49 389.796 433.396 389.769C433.302 389.742 433.203 389.741 433.109 389.767C433.014 389.793 432.929 389.844 432.862 389.915C432.796 389.987 432.75 390.075 432.73 390.17C432.25 392.69 431.6 400.39 437.21 414.22Z" fill="black"/>
</g>
<path d="M464.1 360.44C464.1 360.44 477.23 351.24 475.91 338.9C475.9 338.803 475.863 338.711 475.804 338.633C475.744 338.556 475.665 338.496 475.574 338.461C475.483 338.426 475.384 338.416 475.288 338.434C475.192 338.451 475.103 338.495 475.03 338.56C473.12 340.28 468 346 464.1 360.44Z" fill="#EC8951"/>
<g opacity="0.3">
<path d="M464.1 360.44C464.1 360.44 477.23 351.24 475.91 338.9C475.9 338.803 475.863 338.711 475.804 338.633C475.744 338.556 475.665 338.496 475.574 338.461C475.483 338.426 475.384 338.416 475.288 338.434C475.192 338.451 475.103 338.495 475.03 338.56C473.12 340.28 468 346 464.1 360.44Z" fill="black"/>
</g>
<path d="M473.53 343.51C473.269 344.426 472.904 345.308 472.44 346.14C471.69 347.72 470.6 349.88 469.33 352.24C468.06 354.6 466.84 356.69 465.9 358.17C465.438 359.001 464.877 359.773 464.23 360.47C464.581 359.59 465.017 358.746 465.53 357.95C466.47 356.22 467.58 354.2 468.8 351.95L472.06 345.95C472.469 345.09 472.962 344.273 473.53 343.51Z" fill="#263238"/>
<path d="M442.51 399.09C442.51 399.09 458.35 396.62 462.59 384.96C462.624 384.869 462.633 384.771 462.615 384.675C462.597 384.58 462.553 384.491 462.488 384.419C462.423 384.346 462.339 384.293 462.246 384.265C462.153 384.238 462.054 384.236 461.96 384.26C459.49 385 452.33 387.85 442.51 399.09Z" fill="#EC8951"/>
<g opacity="0.3">
<path d="M442.51 399.09C442.51 399.09 458.35 396.62 462.59 384.96C462.624 384.869 462.633 384.771 462.615 384.675C462.597 384.58 462.553 384.491 462.488 384.419C462.423 384.346 462.339 384.293 462.246 384.265C462.153 384.238 462.054 384.236 461.96 384.26C459.49 385 452.33 387.85 442.51 399.09Z" fill="black"/>
</g>
<path d="M458.43 388.05C457.788 388.75 457.07 389.378 456.29 389.92C454.92 391.02 452.99 392.48 450.82 394.04C448.65 395.6 446.62 396.93 445.12 397.85C444.338 398.395 443.492 398.842 442.6 399.18C443.31 398.547 444.076 397.981 444.89 397.49L450.47 393.55L456.04 389.55C456.781 388.966 457.582 388.464 458.43 388.05Z" fill="#263238"/>
<path d="M427.39 428.25L422.77 459.35H451.57L447.84 428.25H427.39Z" fill="#455A64"/>
<path d="M449 437.88C449 438.05 443.8 438.18 437.39 438.18C430.98 438.18 425.77 438.05 425.77 437.88C429.636 437.584 433.514 437.484 437.39 437.58C441.263 437.484 445.138 437.584 449 437.88Z" fill="#263238"/>
<path d="M449.56 440.36C449.56 440.53 444.19 440.66 437.56 440.66C430.93 440.66 425.56 440.53 425.56 440.36C425.56 440.19 430.93 440.06 437.56 440.06C444.19 440.06 449.56 440.19 449.56 440.36Z" fill="#263238"/>
<path d="M337.57 126.54C337.57 126.54 337.3 126.54 336.78 126.54C336.021 126.495 335.259 126.495 334.5 126.54C331.563 126.712 328.677 127.388 325.97 128.54C321.678 130.339 317.944 133.248 315.15 136.97C313.428 139.293 312.146 141.913 311.37 144.7C309.62 151.337 310.565 158.397 314 164.34C314.936 165.985 316.079 167.504 317.4 168.86C318.733 170.296 320.286 171.511 322 172.46C323.759 173.45 325.752 173.951 327.77 173.91C329.851 173.885 331.846 173.078 333.36 171.65C334.092 170.883 334.665 169.98 335.048 168.992C335.43 168.003 335.615 166.949 335.59 165.89C335.575 163.689 334.876 161.546 333.59 159.76C331 156.11 326.8 153.66 322.33 152.34C317.695 151.038 312.8 150.969 308.13 152.14C305.746 152.76 303.449 153.674 301.29 154.86C299.111 156.09 297.131 157.644 295.42 159.47C295.01 159.94 294.54 160.37 294.17 160.89L293.04 162.41C292.353 163.481 291.738 164.597 291.2 165.75C290.13 168.091 289.4 170.573 289.03 173.12C288.304 178.209 288.996 183.399 291.03 188.12C292.974 192.733 296.36 196.592 300.68 199.12C302.775 200.317 305.113 201.024 307.52 201.19C309.88 201.322 312.227 200.759 314.27 199.57C316.298 198.449 317.9 196.692 318.83 194.57C319.707 192.478 319.768 190.134 319 188C318.21 185.941 316.917 184.112 315.24 182.68C313.613 181.274 311.738 180.185 309.71 179.47C305.756 178.223 301.525 178.15 297.53 179.26C293.792 180.273 290.359 182.185 287.53 184.83C284.953 187.298 282.991 190.336 281.8 193.7C279.717 199.536 279.813 205.929 282.07 211.7C283.83 216.008 286.664 219.795 290.3 222.7C292.591 224.537 295.142 226.023 297.87 227.11C298.81 227.46 299.54 227.72 300.04 227.86L300.78 228.1C300.78 228.1 300.52 228.05 300.02 227.91C299.281 227.712 298.554 227.475 297.84 227.2C295.076 226.161 292.492 224.697 290.18 222.86C286.482 219.957 283.593 216.152 281.79 211.81C279.493 205.984 279.376 199.525 281.46 193.62C282.653 190.205 284.637 187.121 287.25 184.62C290.119 181.922 293.603 179.965 297.4 178.92C301.479 177.782 305.8 177.851 309.84 179.12C311.927 179.848 313.858 180.964 315.53 182.41C317.273 183.889 318.614 185.784 319.43 187.92C320.252 190.149 320.217 192.605 319.33 194.81C318.344 197.015 316.67 198.843 314.56 200.02C312.441 201.254 310.009 201.845 307.56 201.72C305.094 201.548 302.7 200.816 300.56 199.58C296.141 197.016 292.671 193.09 290.67 188.39C288.592 183.582 287.88 178.296 288.61 173.11C288.992 170.511 289.739 167.979 290.83 165.59C291.379 164.412 292.007 163.273 292.71 162.18L293.87 160.63C294.24 160.1 294.72 159.63 295.14 159.17C296.892 157.309 298.914 155.725 301.14 154.47C303.349 153.261 305.701 152.334 308.14 151.71C312.899 150.517 317.887 150.59 322.61 151.92C327.17 153.28 331.44 155.77 334.13 159.55C335.482 161.411 336.216 163.649 336.23 165.95C336.279 168.214 335.426 170.404 333.86 172.04C332.26 173.542 330.154 174.388 327.96 174.41C325.86 174.457 323.787 173.936 321.96 172.9C320.205 171.931 318.617 170.685 317.26 169.21C315.921 167.824 314.762 166.275 313.81 164.6C310.314 158.547 309.364 151.353 311.17 144.6C311.97 141.781 313.282 139.134 315.04 136.79C317.885 133.04 321.684 130.122 326.04 128.34C328.77 127.211 331.678 126.574 334.63 126.46C335.396 126.409 336.164 126.409 336.93 126.46L337.57 126.54Z" fill="#263238"/>
<path d="M370.96 226.6H230.75V334.74H370.96V226.6Z" fill="#EC8951"/>
<path d="M230.75 226.6L256.65 250.76H394.48L370.96 226.6H230.75Z" fill="#EC8951"/>
<path d="M230.75 226.6L371 226.35H371.11L371.19 226.42L394.47 250.33L394.71 250.58L395.14 251.02H394.52L256.69 250.91H256.63L230.75 226.6L256.75 250.6H256.64L394.47 250.5L394.29 250.94L394.04 250.69L370.77 226.78L370.95 226.86L230.75 226.6Z" fill="#263238"/>
<path d="M272.87 276.47C272.11 276.497 271.392 276.822 270.869 277.374C270.347 277.925 270.062 278.66 270.075 279.42C270.089 280.18 270.401 280.904 270.943 281.437C271.485 281.969 272.215 282.268 272.975 282.268C273.735 282.268 274.465 281.969 275.007 281.437C275.549 280.904 275.861 280.18 275.874 279.42C275.888 278.66 275.603 277.925 275.081 277.374C274.558 276.822 273.84 276.497 273.08 276.47" fill="#263238"/>
<path d="M306 276.47C305.244 276.499 304.529 276.823 304.009 277.373C303.489 277.924 303.206 278.656 303.221 279.413C303.235 280.169 303.546 280.89 304.086 281.421C304.626 281.951 305.353 282.248 306.11 282.248C306.867 282.248 307.594 281.951 308.134 281.421C308.674 280.89 308.985 280.169 308.999 279.413C309.014 278.656 308.731 277.924 308.211 277.373C307.691 276.823 306.976 276.499 306.22 276.47" fill="#263238"/>
<path d="M306.19 302.35C305.612 300.141 304.673 298.043 303.41 296.14C302.006 294.105 300.203 292.377 298.11 291.06C295.585 289.385 292.641 288.452 289.612 288.369C286.584 288.286 283.593 289.056 280.98 290.59C278.822 291.795 276.928 293.42 275.41 295.37C274.043 297.202 272.991 299.251 272.3 301.43C272.308 301.267 272.335 301.106 272.38 300.95C272.476 300.499 272.599 300.055 272.75 299.62C273.298 298.014 274.098 296.505 275.12 295.15C276.627 293.109 278.545 291.406 280.75 290.15C283.43 288.55 286.51 287.746 289.63 287.831C292.75 287.916 295.781 288.887 298.37 290.63C300.499 291.998 302.318 293.797 303.71 295.91C304.66 297.32 305.379 298.873 305.84 300.51C305.963 300.954 306.06 301.405 306.13 301.86C306.164 302.021 306.185 302.185 306.19 302.35Z" fill="#263238"/>
<path opacity="0.5" d="M231.07 227.79L255.87 259.23H370.96V250.76H256.65L231.07 227.79Z" fill="black"/>
<path d="M343.31 334.5C343.17 334.5 343.05 315.69 343.05 292.5C343.05 269.31 343.17 250.5 343.31 250.5C343.45 250.5 343.58 269.3 343.58 292.5C343.58 315.7 343.46 334.5 343.31 334.5Z" fill="#263238"/>
<path d="M365.33 309.98H352.97V323.95H365.33V309.98Z" fill="#F5F5F5"/>
<path d="M230.75 226.6L201.97 250.76H230.75V226.6Z" fill="#EC8951"/>
<g opacity="0.4">
<path d="M230.75 226.6L201.97 250.76H230.75V226.6Z" fill="black"/>
</g>
<path d="M375.1 334.74H213.89V459.08H375.1V334.74Z" fill="#EC8951"/>
<path opacity="0.3" d="M375.1 334.74H213.89V459.08H375.1V334.74Z" fill="black"/>
<path d="M334.71 458.2C334.57 458.2 334.45 430.49 334.45 396.31C334.45 362.13 334.57 334.41 334.71 334.41C334.85 334.41 334.97 362.12 334.97 396.31C334.97 430.5 334.85 458.2 334.71 458.2Z" fill="#263238"/>
<path d="M361.43 430.779H349.07V444.749H361.43V430.779Z" fill="#F5F5F5"/>
<path d="M281.38 335.07H263.07V361.6H281.38V335.07Z" fill="#263238"/>
<path d="M281.38 432.18H263.07V458.71H281.38V432.18Z" fill="#263238"/>
<path d="M373.7 334.74H373.28H372.07L367.42 334.79L350.29 334.87L293.8 335L237.29 334.93L220.17 334.85L215.52 334.8L220.17 334.75L237.29 334.67L293.8 334.59L350.29 334.67L367.42 334.75L372.07 334.8H373.28L373.7 334.74Z" fill="#263238"/>
<path d="M97.42 119.47L79.86 115.15H79.99C75.4559 118.034 70.2128 119.609 64.84 119.7C61.6592 119.714 58.4941 119.253 55.45 118.33C50.0981 116.611 45.3501 113.397 41.767 109.066C38.1839 104.735 35.9155 99.4689 35.23 93.8899C34.6916 89.6705 35.0879 85.3843 36.391 81.3352C37.694 77.2862 39.8718 73.5733 42.77 70.4599C44.2935 68.7865 46.001 67.2903 47.86 65.9999C48.8 65.4099 49.74 64.7999 50.72 64.2899L52.21 63.5699L52.95 63.2099L53.73 62.9299C57.7454 61.3734 62.0529 60.7146 66.35 60.9999C72.1089 61.3738 77.6283 63.4441 82.2125 66.9499C86.7967 70.4556 90.2406 75.24 92.11 80.6999C93.1486 83.7541 93.6954 86.954 93.73 90.1799C93.755 95.5409 92.2981 100.805 89.52 105.39V105.23C94.4 114.04 96.86 118.49 97.41 119.47C96.84 118.47 94.29 114.1 89.24 105.38V105.3V105.22C91.9183 100.679 93.3017 95.4913 93.24 90.2199C93.1936 87.0456 92.6399 83.8993 91.6 80.8999C89.7509 75.5516 86.3651 70.8677 81.8665 67.4347C77.368 64.0016 71.9566 61.972 66.31 61.5999C62.0975 61.3253 57.8759 61.9737 53.94 63.4999L53.18 63.7699L52.45 64.1299L50.99 64.8299C49.99 65.3399 49.11 65.9299 48.18 66.5099C46.3568 67.7657 44.6798 69.2214 43.18 70.8499C40.3348 73.9063 38.1963 77.5508 36.9158 81.5253C35.6353 85.4999 35.2441 89.7074 35.77 93.8499C36.6971 101.439 40.5908 108.353 46.6 113.08C49.2866 115.209 52.3355 116.835 55.6 117.88C58.5894 118.804 61.701 119.273 64.83 119.27C70.1385 119.213 75.3285 117.694 79.83 114.88H79.89H80L97.42 119.47Z" fill="#263238"/>
<path d="M62 77.2998L62.89 91.9998C62.9255 92.5796 63.1719 93.1264 63.5826 93.5372C63.9934 93.948 64.5402 94.1943 65.12 94.2298C65.7301 94.2643 66.3302 94.0638 66.797 93.6695C67.2639 93.2752 67.5619 92.7171 67.63 92.1098L69.26 77.3798C69.2884 77.1163 69.2604 76.8497 69.178 76.5978C69.0955 76.3459 68.9604 76.1144 68.7817 75.9187C68.603 75.7229 68.3847 75.5674 68.1413 75.4625C67.8979 75.3575 67.635 75.3055 67.37 75.3098H63.8C63.5495 75.3173 63.3031 75.3753 63.0756 75.4804C62.848 75.5855 62.6441 75.7354 62.476 75.9213C62.3079 76.1071 62.179 76.3251 62.0972 76.562C62.0154 76.7989 61.9824 77.0498 62 77.2998Z" fill="#EC8951"/>
<path d="M69 102.44C68.7762 103.111 68.3584 103.701 67.7994 104.136C67.2403 104.57 66.5651 104.828 65.8591 104.879C65.1531 104.929 64.448 104.77 63.8328 104.419C63.2177 104.069 62.7201 103.545 62.403 102.912C62.0859 102.279 61.9635 101.566 62.0513 100.864C62.139 100.162 62.433 99.5012 62.8961 98.9659C63.3592 98.4306 63.9705 98.0445 64.6529 97.8566C65.3353 97.6686 66.0581 97.6871 66.73 97.9098C67.1767 98.0579 67.5898 98.2926 67.9458 98.6005C68.3017 98.9084 68.5934 99.2834 68.8043 99.7042C69.0151 100.125 69.1409 100.583 69.1745 101.053C69.2081 101.522 69.1488 101.993 69 102.44Z" fill="#EC8951"/>
</svg>
